<svg width="288" height="310" viewBox="0 0 288 310" fill="none" xmlns="http://www.w3.org/2000/svg">
<path opacity="0.35" d="M-113.536 143.075C-101.607 143.78 -101.181 139.164 -111.314 132.831C-123.761 125.051 -138.625 110.264 -147.855 80.4931C-150.988 70.337 -153.05 59.8195 -150.981 48.5312C-145.618 19.7539 -117.062 17.1945 -100.374 31.9157C-68.9105 59.5766 -50.5879 141.244 -4.04314 152.606C29.8748 160.826 76.2279 140.788 101.408 110.855C101.68 110.531 101.5 109.826 101.097 109.955C101.05 109.97 101.027 109.978 100.978 109.988C100.618 110.063 100.263 110.138 99.9902 110.221C67.5555 121.149 10.6915 113.206 -24.5901 81.8687C-57.4267 52.7052 -68.211 10.5186 -65.3427 -7.46829C-61.4455 -31.5589 -41.4927 -31.9192 -29.6948 -26.7111C-16.6174 -21.0419 -8.67719 -4.59392 3.88123 7.79937C17.4073 20.9696 33.2623 26.2035 50.8429 23.9052C63.0518 22.3606 78.958 15.3247 84.6175 11.8885C85.4981 11.3538 85.1978 10.3453 84.203 10.0775C78.4604 8.86493 72.6762 8.10768 67.0583 6.56222C-35.3428 -21.7174 -36.6394 -190.664 -151.377 -212.035C-192.502 -219.689 -245.285 -211.306 -282.627 -183.839C-283.354 -183.289 -284.006 -182.731 -284.65 -182.173C-284.786 -182.055 -284.839 -181.867 -284.807 -181.689C-284.775 -181.507 -284.619 -181.38 -284.434 -181.37C-283.784 -181.336 -283.128 -181.375 -282.471 -181.415C-276.468 -182.015 -270.684 -181.258 -264.994 -179.476C-243.157 -172.549 -222.732 -149.108 -220.599 -87.6261C-219.199 -48.132 -226.53 -29.8636 -222.05 11.0592C-212.267 100.44 -148.022 141.306 -113.536 143.075ZM-213.354 -186.701C-214.07 -187.879 -213.154 -189.291 -211.791 -189.495C-206.85 -190.239 -201.927 -190.758 -196.995 -191.079C-187.79 -191.677 -180.907 -181.807 -189.149 -177.664C-196.657 -173.889 -206.801 -175.967 -213.354 -186.701ZM-65.3979 229.069C-105.595 226.779 -148.763 190.82 -174.653 148.632C-178.375 142.653 -187.948 124.832 -189.56 120.618C-189.611 120.484 -189.574 120.344 -189.473 120.242C-189.332 120.1 -189.113 120.086 -188.967 120.221C-182.995 125.739 -166.711 143.528 -140.717 155.401C-118.786 165.436 -96.3361 166.681 -73.3366 157.761C-66.5814 155.132 -60.3806 154.373 -54.9763 154.703C-42.3535 155.475 -47.2183 163.178 -56.5751 171.685C-61.8071 176.258 -62.097 184.61 -51.8073 191.861C-28.5643 208.213 7.4693 194.055 36.5618 229.075C38.5617 231.509 43.1536 238.373 44.8124 241.912C44.8738 242.043 44.8688 242.198 44.771 242.304C44.5985 242.492 44.2987 242.563 44.0728 242.445C39.5154 240.067 29.2395 232.591 7.80781 228.632C-15.1107 224.246 -36.0924 230.71 -65.3979 229.069ZM124.433 -42.8342C140.328 -47.3521 164.493 -54.5587 187.039 -40.9099C201.438 -32.1361 209.627 -17.3869 213.5 1.21496C215.781 12.1178 216.222 23.8679 215.319 34.0507C215.306 34.1988 215.184 34.2999 215.035 34.3054C214.87 34.3116 214.679 34.2377 214.635 34.0781C214.525 33.6733 214.431 33.227 214.39 32.8581C211.993 7.38984 190.943 -19.5506 154.202 -6.94951C105.269 9.93355 31.1034 -7.04745 -6.44187 -76.6956C-6.57997 -76.9621 -6.77526 -77.2268 -6.97371 -77.4986C-8.25261 -79.25 -6.08679 -80.34 -4.6529 -78.713C10.9023 -61.9146 28.9326 -50.5141 49.0842 -43.7404C77.0074 -34.1919 99.9041 -35.7756 124.433 -42.8342ZM208.388 99.6809C178.031 97.141 171.539 153.819 104.701 164.134C87.5441 166.75 68.5811 166.085 62.5009 165.124C62.3402 165.099 62.2373 164.954 62.2521 164.792C62.2617 164.687 62.3187 164.595 62.4141 164.551C65.4231 163.144 76.5604 162.674 91.7988 148.266C99.9536 140.632 107.692 132.386 115.524 124.148C135.879 102.821 158.668 79.6508 196.256 86.7527C217.697 90.7747 222.837 98.589 228.737 104.292C228.827 104.38 228.893 104.479 228.952 104.592C229.124 104.925 228.757 105.522 228.456 105.299C222.182 101.628 215.41 100.322 208.388 99.6809ZM199.146 70.9554C199.282 71.1004 199.314 71.3187 199.256 71.5089C199.192 71.721 198.968 71.8208 198.755 71.7608C172.36 64.3361 154.909 58.8272 134.574 70.5664C117.629 80.3827 103.046 91.2179 73.9904 93.0432C48.2641 94.5983 31.5148 91.9225 12.9329 78.291C12.7102 78.0742 12.4875 77.8574 12.2061 77.6352C12.1158 77.564 12.0631 77.4438 12.0987 77.3345C12.1626 77.1387 12.3927 77.0152 12.5909 77.0709C35.2434 83.4417 45.8628 85.8157 64.7704 75.1012C86.9891 62.3228 105.078 48.2495 134.747 45.9064C162.76 43.7777 182.341 53.05 199.146 70.9554ZM-35.7354 -133.31C-36.4982 -134.432 -35.5374 -135.953 -34.1855 -135.846C-25.1469 -135.135 -6.88646 -133.321 11.6624 -121.985C29.2764 -111.196 39.6299 -95.3317 55.2473 -80.2491C64.8819 -70.9919 76.1905 -67.6647 88.4868 -67.9201C92.5287 -68.0076 96.5191 -68.553 100.571 -68.7579C100.622 -68.7605 100.657 -68.7651 100.708 -68.7722C101.391 -68.8684 101.437 -67.8599 100.867 -67.4718C100.646 -67.322 100.427 -67.1859 100.211 -67.08C92.2119 -63.219 83.9209 -61.3357 75.505 -61.1853C50.798 -60.4554 28.7942 -69.6934 8.38104 -84.984C-8.66114 -97.9011 -23.3216 -114.159 -35.7354 -133.31ZM287.068 169.318C287.175 169.487 287.156 169.85 287.001 169.976C282.866 173.324 264.412 180.851 246.714 172.155C235.602 166.665 230.003 153.529 219.63 142.024C211.847 133.396 202.744 131.551 196.128 130.399C195.241 130.244 194.713 129.073 195.461 128.572C210.274 119.364 225.285 117.291 240.423 125.213C251.69 131.062 256.997 142.22 266.372 155.356C274.968 167.499 284.079 168.359 286.581 169.158C286.785 169.223 286.953 169.138 287.068 169.318ZM74.0564 307.556C75.369 308.61 73.9678 309.731 72.3258 309.361C56.5048 305.794 43.6955 297.396 33.7405 280.694C16.8017 252.241 -0.545833 245.982 -7.63027 243.163C-8.01227 243.011 -8.01658 242.338 -7.60718 242.376C4.64775 243.609 16.7571 245.402 28.4092 250.138C51.4326 259.583 58.5414 282.039 63.6928 293.871C66.1905 299.608 69.6658 303.942 74.0564 307.556Z" fill="url(#paint0_linear_320_2269)" fill-opacity="0.42"/>
<defs>
<linearGradient id="paint0_linear_320_2269" x1="-254.505" y1="279.875" x2="302.635" y2="361.942" gradientUnits="userSpaceOnUse">
<stop stop-color="#FF2020"/>
<stop offset="0.446" stop-color="#FF7B7D"/>
<stop offset="1" stop-color="#8F0C11"/>
</linearGradient>
</defs>
</svg>
