<svg width="357" height="624" viewBox="0 0 357 624" fill="none" xmlns="http://www.w3.org/2000/svg">
<path opacity="0.35" d="M498.398 198.844C483.826 197.961 483.296 203.526 495.812 211.042C511.302 220.345 529.792 237.944 541.397 273.17C545.346 285.219 547.965 297.69 545.455 311.053C538.942 345.116 503.458 347.995 482.633 330.465C443.372 297.526 420.157 200.676 362.236 186.965C320.039 177.047 262.544 200.522 231.398 235.833C231.054 236.222 231.272 237.082 231.768 236.928C231.823 236.911 231.85 236.902 231.906 236.891C232.356 236.805 232.799 236.717 233.139 236.62C273.4 223.848 344.131 233.563 388.158 270.878C429.134 305.605 442.766 355.642 439.298 376.935C434.582 405.455 409.781 405.774 395.087 399.541C378.8 392.754 368.841 373.226 353.163 358.476C336.278 342.8 316.54 336.514 294.698 339.143C279.566 340.903 259.888 349.117 252.828 353.168C251.737 353.794 252.085 355.028 253.302 355.345C260.447 356.813 267.642 357.741 274.633 359.602C402.081 393.655 404.601 593.813 547.347 619.748C598.51 629.037 664.08 619.389 710.353 587.05C711.252 586.403 712.058 585.747 712.855 585.09C713.024 584.95 713.091 584.72 713.049 584.504C713.009 584.295 712.827 584.149 712.614 584.137C711.797 584.09 710.971 584.134 710.146 584.177C702.687 584.856 695.493 583.928 688.409 581.786C661.226 573.462 635.71 545.582 632.729 472.733C630.776 425.936 639.791 404.333 634.002 355.828C621.361 249.885 541.278 201.126 498.398 198.844ZM624.255 590.068C625.136 591.444 624.053 593.129 622.435 593.355C616.149 594.233 609.883 594.833 603.606 595.186C592.336 595.82 584.188 583.725 594.47 579.068C603.746 574.865 616.154 577.478 624.255 590.068ZM438.095 96.7085C488.077 99.6376 541.933 142.471 574.343 192.59C578.997 199.685 590.969 220.806 593.018 225.841C593.086 226.009 593.037 226.188 592.907 226.314C592.737 226.478 592.482 226.494 592.305 226.339C584.864 219.786 564.521 198.605 532.121 184.388C504.804 172.382 476.89 170.787 448.347 181.23C439.963 184.309 432.259 185.175 425.539 184.754C410.15 183.791 415.778 174.735 427.436 164.644C433.915 159.255 434.231 149.362 421.401 140.716C392.419 121.219 347.702 137.798 311.348 96.154C308.852 93.2635 303.117 85.122 301.03 80.9165C300.949 80.7529 300.955 80.5568 301.083 80.4263C301.293 80.2113 301.642 80.1251 301.911 80.2594C307.575 83.0859 320.387 92.0194 347.095 96.8328C375.609 102.153 401.657 94.6073 438.095 96.7085ZM203.576 417.814C183.841 423.081 153.84 431.489 125.74 415.198C107.793 404.726 97.5337 387.209 92.6193 365.15C89.7271 352.229 89.1149 338.315 90.18 326.262C90.1966 326.074 90.3524 325.946 90.5405 325.939C90.7444 325.932 90.9774 326.022 91.034 326.218C91.1721 326.697 91.2904 327.223 91.3437 327.657C94.46 357.843 120.772 389.872 166.377 375.141C227.115 355.403 319.402 375.919 366.449 458.633C366.607 458.921 366.824 459.208 367.049 459.501C368.672 461.616 366.047 462.969 364.236 461.013C344.809 441.028 322.335 427.425 297.248 419.292C262.485 407.83 234.03 409.583 203.576 417.814ZM98.4458 248.524C136.196 251.697 143.962 184.584 226.993 172.724C248.325 169.714 271.924 170.608 279.467 171.781C279.655 171.81 279.776 171.979 279.758 172.17C279.747 172.295 279.677 172.404 279.562 172.455C275.836 174.108 261.99 174.598 243.117 191.592C233.021 200.593 223.445 210.32 213.754 220.037C188.564 245.194 160.36 272.521 113.597 263.906C86.9214 259.026 80.4893 249.74 73.1251 242.952C73.0217 242.856 72.9431 242.749 72.8744 242.628C72.6468 242.23 73.0937 241.495 73.4686 241.76C81.2871 246.143 89.7131 247.728 98.4458 248.524ZM110.092 282.609C109.921 282.436 109.88 282.167 109.953 281.935C110.03 281.69 110.289 281.577 110.536 281.644C143.406 290.587 165.137 297.216 190.361 283.413C211.372 271.875 229.443 259.117 265.552 257.11C297.524 255.406 318.359 258.666 341.532 274.915C341.81 275.174 342.089 275.432 342.441 275.698C342.552 275.781 342.617 275.926 342.572 276.058C342.494 276.287 342.224 276.433 341.99 276.37C313.778 268.695 300.563 265.82 277.109 278.416C249.558 293.435 227.147 310.011 190.278 312.627C155.469 314.998 131.077 303.91 110.092 282.609ZM403.169 525.862C404.105 527.17 402.986 528.995 401.383 528.868C390.188 527.983 367.394 525.77 344.187 512.19C322.233 499.314 309.277 480.463 289.782 462.511C277.756 451.492 263.68 447.49 248.396 447.726C243.369 447.808 238.409 448.434 233.371 448.654C233.312 448.657 233.272 448.661 233.214 448.669C232.382 448.782 232.326 447.564 233.033 447.11C233.296 446.941 233.558 446.788 233.817 446.668C243.74 442.137 254.036 439.95 264.497 439.817C295.207 439.085 322.61 450.148 348.068 468.372C369.322 483.767 387.634 503.106 403.169 525.862ZM0.272498 165.614C0.126929 165.412 0.157569 164.966 0.355604 164.814C5.50191 160.865 28.383 152.069 50.4132 162.458C64.2551 169.022 71.2858 184.614 84.2432 198.3C93.9948 208.596 105.36 210.811 113.597 212.212C114.651 212.391 115.261 213.793 114.359 214.367C95.9954 225.196 77.3461 227.571 58.4859 218.104C44.4479 211.115 37.7903 197.867 26.0653 182.255C15.2814 167.777 3.91252 166.747 0.840488 165.786C0.602913 165.712 0.417688 165.817 0.272498 165.614ZM264.317 2.97585C262.699 1.73489 264.363 0.390003 266.356 0.824051C286.089 5.1231 302.092 15.141 314.578 35.0159C335.792 68.8222 357.396 76.3267 366.214 79.7032C366.673 79.879 366.673 80.6785 366.184 80.6339C350.943 79.1075 335.88 76.9178 321.37 71.2447C292.699 59.9305 283.741 33.2898 277.273 19.2443C274.138 12.4344 269.794 7.28117 264.317 2.97585Z" fill="url(#paint0_linear_320_2273)" fill-opacity="0.42"/>
<defs>
<linearGradient id="paint0_linear_320_2273" x1="672.903" y1="37.5346" x2="-19.5611" y2="-66.4228" gradientUnits="userSpaceOnUse">
<stop stop-color="#FF2020"/>
<stop offset="0.446" stop-color="#FF7B7D"/>
<stop offset="1" stop-color="#8F0C11"/>
</linearGradient>
</defs>
</svg>
