<svg width="322" height="569" viewBox="0 0 322 569" fill="none" xmlns="http://www.w3.org/2000/svg">
<g opacity="0.52" filter="url(#filter0_d_320_2271)">
<mask id="path-1-outside-1_320_2271" maskUnits="userSpaceOnUse" x="-442.981" y="-164.33" width="861.537" height="940.694" fill="black">
<rect fill="white" x="-442.981" y="-164.33" width="861.537" height="940.694"/>
<path d="M43.3798 470.671C49.1247 457.173 44.0452 454.801 32.7416 464.151C18.7336 475.737 -4.10371 487.392 -41.2153 486.626C-53.9069 486.346 -66.5468 484.661 -78.2916 477.81C-108.194 460.238 -98.9057 425.597 -75.3403 411.693C-31.0165 385.446 68.116 395.798 100.629 345.409C124.247 308.678 121.569 246.263 98.8263 204.893C98.5746 204.435 97.6878 204.351 97.6656 204.873C97.6632 204.931 97.6626 204.959 97.6538 205.016C97.5837 205.471 97.5162 205.922 97.4924 206.277C95.9131 248.76 62.8342 312.643 12.7736 341.952C-33.8151 369.23 -85.5854 365.437 -104.481 355.024C-129.766 341.011 -121.679 317.365 -110.834 305.503C-98.9291 292.314 -77.155 289.393 -57.9507 279.445C-37.4657 268.661 -24.8657 252.03 -19.9553 230.42C-16.4975 215.474 -17.5826 194.062 -19.0116 185.999C-19.2321 184.755 -20.5167 184.666 -21.2253 185.712C-25.0249 192.003 -28.3331 198.521 -32.4519 204.535C-107.652 314.11 -297.153 249.568 -369.877 376.378C-395.936 421.831 -409.02 487.291 -394.191 542.023C-393.885 543.093 -393.539 544.077 -393.19 545.052C-393.115 545.261 -392.92 545.401 -392.702 545.434C-392.491 545.466 -392.294 545.343 -392.211 545.147C-391.89 544.386 -391.651 543.587 -391.413 542.787C-389.53 535.481 -386.222 528.963 -381.808 522.956C-364.768 499.94 -329.862 485.045 -260.193 506.577C-215.427 520.372 -198.115 536.153 -150.441 546.879C-46.3145 570.308 26.7272 510.605 43.3798 470.671ZM-367.915 459.297C-369.506 459.673 -370.733 458.087 -370.401 456.487C-369.098 450.204 -367.538 444.035 -365.74 437.937C-362.531 427.055 -348.349 423.454 -347.469 434.765C-346.675 444.958 -353.336 455.826 -367.915 459.297ZM160.038 447.591C140.373 494.05 81.7876 530.841 23.589 544.842C15.3293 546.886 -8.61855 551.185 -14.0631 551.447C-14.2465 551.456 -14.4011 551.349 -14.4763 551.181C-14.5727 550.967 -14.5028 550.721 -14.2976 550.606C-5.60829 545.736 21.2392 533.512 45.5991 507.511C66.1539 485.6 77.0986 459.639 76.9094 429.056C76.8438 420.07 78.6332 412.468 81.3024 406.231C87.3958 391.991 94.0417 400.305 99.6146 414.756C102.502 422.708 111.72 426.315 124.208 417.029C152.386 396.042 151.885 348.056 203.429 327.479C206.997 326.076 216.608 323.357 221.278 322.781C221.461 322.759 221.646 322.831 221.726 322.997C221.856 323.268 221.821 323.625 221.605 323.834C217.029 328.263 204.273 337.435 190.699 361.179C176.042 386.463 174.343 413.709 160.038 447.591ZM-63.2834 117.627C-61.5727 97.1351 -59.3501 65.8493 -34.4921 44.627C-18.5525 31.0952 1.42764 27.2155 23.8799 29.9275C37.035 31.5032 50.3543 35.5743 61.354 40.6152C61.5269 40.6945 61.596 40.8864 61.5389 41.0678C61.4772 41.2636 61.3129 41.4535 61.1079 41.4417C60.6108 41.4127 60.0756 41.3492 59.648 41.2543C30.1445 34.1181 -8.94245 48.3801 -10.4831 96.5912C-12.4225 160.839 -62.9721 241.569 -156.842 258.563C-157.163 258.615 -157.501 258.723 -157.848 258.836C-160.396 259.671 -160.798 256.732 -158.337 255.666C-132.931 243.911 -112.509 227.129 -96.3585 206.038C-73.7979 176.877 -65.8264 149.284 -63.2834 117.627ZM131.829 74.4573C116.071 109.225 176.697 139.039 159.793 221.811C155.414 243.067 146.589 265.169 142.933 271.932C142.843 272.1 142.643 272.157 142.47 272.077C142.355 272.024 142.276 271.922 142.267 271.796C141.969 267.707 146.191 254.402 136.557 230.805C131.488 218.213 125.559 205.872 119.678 193.424C104.488 161.104 88.2712 125.196 112.208 83.6936C125.829 60.0077 136.756 57.0079 145.644 52.2883C145.768 52.2232 145.894 52.1847 146.029 52.1598C146.482 52.0755 147.028 52.746 146.651 53.013C139.876 58.9679 135.533 66.4354 131.829 74.4573ZM95.7645 74.113C95.9856 74.009 96.2541 74.0603 96.4491 74.2077C96.6528 74.3616 96.6728 74.6428 96.5274 74.8527C76.98 103.063 63.3803 121.471 67.8585 150.028C71.627 173.829 77.5398 195.246 67.2179 230.188C58.0104 261.104 47.8908 279.789 24.7386 296.348C24.4006 296.526 24.0627 296.704 23.6934 296.95C23.5772 297.027 23.4186 297.041 23.3095 296.953C23.1202 296.802 23.0726 296.499 23.2105 296.3C39.9874 272.088 47.1675 260.507 43.2284 234.034C38.3914 202.862 30.3486 176.049 40.3524 140.181C49.8909 106.35 68.5913 86.9079 95.7645 74.113ZM-232.625 270.932C-234.17 271.382 -235.519 269.718 -234.862 268.249C-230.245 257.926 -220.451 237.018 -199.791 219.524C-180.23 202.993 -158.081 197 -134.567 184.5C-120.114 176.77 -111.581 164.749 -106.635 150.164C-105.012 145.365 -103.924 140.447 -102.427 135.591C-102.41 135.536 -102.401 135.497 -102.389 135.44C-102.215 134.615 -101.045 134.971 -100.857 135.794C-100.787 136.098 -100.732 136.396 -100.707 136.68C-99.7921 147.614 -101.214 158.117 -104.627 168.091C-114.323 197.482 -134.018 219.791 -159.805 237.859C-181.503 252.884 -205.924 263.797 -232.625 270.932ZM243.173 9.00556C243.414 8.93353 243.826 9.11376 243.902 9.35352C245.883 15.5622 246.432 40.2164 229.191 57.6494C218.324 68.5922 201.25 70.0512 183.969 77.7725C170.961 83.5877 165.029 93.6399 160.923 100.991C160.402 101.925 158.874 102.027 158.64 100.983C154.645 79.9327 158.713 61.4379 174.015 46.7034C185.35 35.717 200.088 33.828 218.768 27.9205C236.069 22.5242 240.881 12.0709 242.824 9.48289C242.973 9.28442 242.935 9.07658 243.173 9.00556ZM307.157 313.999C308.87 312.881 309.582 314.901 308.504 316.64C297.777 333.94 282.921 345.783 259.96 350.989C220.921 359.819 206.542 377.814 200.377 385.054C200.058 385.429 199.304 385.161 199.511 384.714C206.104 370.759 213.262 357.195 223.517 345.32C243.878 321.891 272.016 322.298 287.442 320.857C294.92 320.158 301.246 317.759 307.157 313.999Z"/>
</mask>
<path d="M43.3798 470.671C49.1247 457.173 44.0452 454.801 32.7416 464.151C18.7336 475.737 -4.10371 487.392 -41.2153 486.626C-53.9069 486.346 -66.5468 484.661 -78.2916 477.81C-108.194 460.238 -98.9057 425.597 -75.3403 411.693C-31.0165 385.446 68.116 395.798 100.629 345.409C124.247 308.678 121.569 246.263 98.8263 204.893C98.5746 204.435 97.6878 204.351 97.6656 204.873C97.6632 204.931 97.6626 204.959 97.6538 205.016C97.5837 205.471 97.5162 205.922 97.4924 206.277C95.9131 248.76 62.8342 312.643 12.7736 341.952C-33.8151 369.23 -85.5854 365.437 -104.481 355.024C-129.766 341.011 -121.679 317.365 -110.834 305.503C-98.9291 292.314 -77.155 289.393 -57.9507 279.445C-37.4657 268.661 -24.8657 252.03 -19.9553 230.42C-16.4975 215.474 -17.5826 194.062 -19.0116 185.999C-19.2321 184.755 -20.5167 184.666 -21.2253 185.712C-25.0249 192.003 -28.3331 198.521 -32.4519 204.535C-107.652 314.11 -297.153 249.568 -369.877 376.378C-395.936 421.831 -409.02 487.291 -394.191 542.023C-393.885 543.093 -393.539 544.077 -393.19 545.052C-393.115 545.261 -392.92 545.401 -392.702 545.434C-392.491 545.466 -392.294 545.343 -392.211 545.147C-391.89 544.386 -391.651 543.587 -391.413 542.787C-389.53 535.481 -386.222 528.963 -381.808 522.956C-364.768 499.94 -329.862 485.045 -260.193 506.577C-215.427 520.372 -198.115 536.153 -150.441 546.879C-46.3145 570.308 26.7272 510.605 43.3798 470.671ZM-367.915 459.297C-369.506 459.673 -370.733 458.087 -370.401 456.487C-369.098 450.204 -367.538 444.035 -365.74 437.937C-362.531 427.055 -348.349 423.454 -347.469 434.765C-346.675 444.958 -353.336 455.826 -367.915 459.297ZM160.038 447.591C140.373 494.05 81.7876 530.841 23.589 544.842C15.3293 546.886 -8.61855 551.185 -14.0631 551.447C-14.2465 551.456 -14.4011 551.349 -14.4763 551.181C-14.5727 550.967 -14.5028 550.721 -14.2976 550.606C-5.60829 545.736 21.2392 533.512 45.5991 507.511C66.1539 485.6 77.0986 459.639 76.9094 429.056C76.8438 420.07 78.6332 412.468 81.3024 406.231C87.3958 391.991 94.0417 400.305 99.6146 414.756C102.502 422.708 111.72 426.315 124.208 417.029C152.386 396.042 151.885 348.056 203.429 327.479C206.997 326.076 216.608 323.357 221.278 322.781C221.461 322.759 221.646 322.831 221.726 322.997C221.856 323.268 221.821 323.625 221.605 323.834C217.029 328.263 204.273 337.435 190.699 361.179C176.042 386.463 174.343 413.709 160.038 447.591ZM-63.2834 117.627C-61.5727 97.1351 -59.3501 65.8493 -34.4921 44.627C-18.5525 31.0952 1.42764 27.2155 23.8799 29.9275C37.035 31.5032 50.3543 35.5743 61.354 40.6152C61.5269 40.6945 61.596 40.8864 61.5389 41.0678C61.4772 41.2636 61.3129 41.4535 61.1079 41.4417C60.6108 41.4127 60.0756 41.3492 59.648 41.2543C30.1445 34.1181 -8.94245 48.3801 -10.4831 96.5912C-12.4225 160.839 -62.9721 241.569 -156.842 258.563C-157.163 258.615 -157.501 258.723 -157.848 258.836C-160.396 259.671 -160.798 256.732 -158.337 255.666C-132.931 243.911 -112.509 227.129 -96.3585 206.038C-73.7979 176.877 -65.8264 149.284 -63.2834 117.627ZM131.829 74.4573C116.071 109.225 176.697 139.039 159.793 221.811C155.414 243.067 146.589 265.169 142.933 271.932C142.843 272.1 142.643 272.157 142.47 272.077C142.355 272.024 142.276 271.922 142.267 271.796C141.969 267.707 146.191 254.402 136.557 230.805C131.488 218.213 125.559 205.872 119.678 193.424C104.488 161.104 88.2712 125.196 112.208 83.6936C125.829 60.0077 136.756 57.0079 145.644 52.2883C145.768 52.2232 145.894 52.1847 146.029 52.1598C146.482 52.0755 147.028 52.746 146.651 53.013C139.876 58.9679 135.533 66.4354 131.829 74.4573ZM95.7645 74.113C95.9856 74.009 96.2541 74.0603 96.4491 74.2077C96.6528 74.3616 96.6728 74.6428 96.5274 74.8527C76.98 103.063 63.3803 121.471 67.8585 150.028C71.627 173.829 77.5398 195.246 67.2179 230.188C58.0104 261.104 47.8908 279.789 24.7386 296.348C24.4006 296.526 24.0627 296.704 23.6934 296.95C23.5772 297.027 23.4186 297.041 23.3095 296.953C23.1202 296.802 23.0726 296.499 23.2105 296.3C39.9874 272.088 47.1675 260.507 43.2284 234.034C38.3914 202.862 30.3486 176.049 40.3524 140.181C49.8909 106.35 68.5913 86.9079 95.7645 74.113ZM-232.625 270.932C-234.17 271.382 -235.519 269.718 -234.862 268.249C-230.245 257.926 -220.451 237.018 -199.791 219.524C-180.23 202.993 -158.081 197 -134.567 184.5C-120.114 176.77 -111.581 164.749 -106.635 150.164C-105.012 145.365 -103.924 140.447 -102.427 135.591C-102.41 135.536 -102.401 135.497 -102.389 135.44C-102.215 134.615 -101.045 134.971 -100.857 135.794C-100.787 136.098 -100.732 136.396 -100.707 136.68C-99.7921 147.614 -101.214 158.117 -104.627 168.091C-114.323 197.482 -134.018 219.791 -159.805 237.859C-181.503 252.884 -205.924 263.797 -232.625 270.932ZM243.173 9.00556C243.414 8.93353 243.826 9.11376 243.902 9.35352C245.883 15.5622 246.432 40.2164 229.191 57.6494C218.324 68.5922 201.25 70.0512 183.969 77.7725C170.961 83.5877 165.029 93.6399 160.923 100.991C160.402 101.925 158.874 102.027 158.64 100.983C154.645 79.9327 158.713 61.4379 174.015 46.7034C185.35 35.717 200.088 33.828 218.768 27.9205C236.069 22.5242 240.881 12.0709 242.824 9.48289C242.973 9.28442 242.935 9.07658 243.173 9.00556ZM307.157 313.999C308.87 312.881 309.582 314.901 308.504 316.64C297.777 333.94 282.921 345.783 259.96 350.989C220.921 359.819 206.542 377.814 200.377 385.054C200.058 385.429 199.304 385.161 199.511 384.714C206.104 370.759 213.262 357.195 223.517 345.32C243.878 321.891 272.016 322.298 287.442 320.857C294.92 320.158 301.246 317.759 307.157 313.999Z" fill="url(#paint0_linear_320_2271)" fill-opacity="0.05" shape-rendering="crispEdges"/>
<path d="M-41.2153 486.626L-41.2816 489.626L-41.2771 489.626L-41.2153 486.626ZM-78.2916 477.81L-79.8116 480.396L-79.8032 480.401L-78.2916 477.81ZM-75.3403 411.693L-73.8159 414.277L-73.8117 414.275L-75.3403 411.693ZM100.629 345.409L103.15 347.036L103.152 347.032L100.629 345.409ZM97.4924 206.277L94.4991 206.076L94.4961 206.121L94.4944 206.165L97.4924 206.277ZM12.7736 341.952L11.2579 339.363L11.2578 339.363L12.7736 341.952ZM-104.481 355.024L-105.936 357.648L-105.929 357.651L-104.481 355.024ZM-110.834 305.503L-108.62 307.527L-108.613 307.52L-108.607 307.513L-110.834 305.503ZM-57.9507 279.445L-56.5708 282.109L-56.562 282.104L-56.5532 282.099L-57.9507 279.445ZM-19.9553 230.42L-22.8782 229.744L-22.8808 229.755L-19.9553 230.42ZM-32.4519 204.535L-29.9784 206.233L-29.9768 206.23L-32.4519 204.535ZM-369.877 376.378L-372.479 374.885L-372.479 374.886L-369.877 376.378ZM-394.191 542.023L-397.086 542.808L-397.081 542.828L-397.075 542.848L-394.191 542.023ZM-391.413 542.787L-388.538 543.645L-388.522 543.591L-388.508 543.536L-391.413 542.787ZM-381.808 522.956L-384.219 521.171L-384.225 521.18L-381.808 522.956ZM-260.193 506.577L-261.079 509.443L-261.076 509.444L-260.193 506.577ZM-150.441 546.879L-149.782 543.952L-149.782 543.952L-150.441 546.879ZM160.038 447.591L162.801 448.76L162.802 448.757L160.038 447.591ZM23.589 544.842L22.8873 541.925L22.8778 541.928L22.8684 541.93L23.589 544.842ZM45.5991 507.511L43.4111 505.459L43.4098 505.46L45.5991 507.511ZM76.9094 429.056L79.9093 429.038L79.9093 429.035L76.9094 429.056ZM124.208 417.029L125.998 419.436L126 419.435L124.208 417.029ZM203.429 327.479L202.332 324.687L202.325 324.69L202.317 324.693L203.429 327.479ZM190.699 361.179L193.295 362.684L193.299 362.676L193.304 362.668L190.699 361.179ZM-63.2834 117.627L-66.273 117.377L-66.2737 117.387L-63.2834 117.627ZM-34.4921 44.627L-36.4336 42.34L-36.44 42.3454L-34.4921 44.627ZM23.8799 29.9275L23.5202 32.9059L23.5231 32.9063L23.8799 29.9275ZM59.648 41.2543L58.9427 44.1703L58.9704 44.1769L58.9981 44.1831L59.648 41.2543ZM-10.4831 96.5912L-13.4816 96.4954L-13.4817 96.5007L-10.4831 96.5912ZM-156.842 258.563L-156.357 261.523L-156.332 261.519L-156.308 261.515L-156.842 258.563ZM-96.3585 206.038L-98.7313 204.202L-98.7358 204.208L-98.7404 204.214L-96.3585 206.038ZM131.829 74.4573L129.105 73.1995L129.101 73.2091L129.096 73.2189L131.829 74.4573ZM159.793 221.811L162.731 222.416L162.732 222.411L159.793 221.811ZM136.557 230.805L133.774 231.925L133.776 231.932L133.779 231.939L136.557 230.805ZM119.678 193.424L116.963 194.7L116.966 194.705L119.678 193.424ZM112.208 83.6936L114.806 85.1924L114.808 85.1892L112.208 83.6936ZM145.644 52.2883L144.247 49.6337L144.237 49.6387L145.644 52.2883ZM67.8585 150.028L64.8948 150.493L64.8954 150.497L67.8585 150.028ZM67.2179 230.188L70.0931 231.045L70.095 231.038L67.2179 230.188ZM24.7386 296.348L26.1361 299.003L26.3173 298.908L26.4839 298.788L24.7386 296.348ZM43.2284 234.034L46.1958 233.592L46.1944 233.583L46.1929 233.574L43.2284 234.034ZM40.3524 140.181L37.465 139.367L37.4627 139.375L40.3524 140.181ZM-199.791 219.524L-201.727 217.232L-201.729 217.234L-199.791 219.524ZM-134.567 184.5L-133.159 187.149L-133.152 187.145L-134.567 184.5ZM-106.635 150.164L-103.794 151.127L-103.793 151.125L-106.635 150.164ZM-100.707 136.68L-97.717 136.43L-97.7177 136.422L-97.7184 136.414L-100.707 136.68ZM-104.627 168.091L-107.465 167.119L-107.47 167.135L-107.476 167.151L-104.627 168.091ZM-159.805 237.859L-158.097 240.326L-158.09 240.321L-158.083 240.316L-159.805 237.859ZM229.191 57.6494L231.32 59.7634L231.324 59.7589L229.191 57.6494ZM183.969 77.7725L182.745 75.0334L182.744 75.0337L183.969 77.7725ZM174.015 46.7034L176.096 48.8645L176.103 48.8576L174.015 46.7034ZM218.768 27.9205L217.875 25.0566L217.863 25.0602L218.768 27.9205ZM259.96 350.989L260.621 353.915L260.623 353.915L259.96 350.989ZM223.517 345.32L221.253 343.352L221.246 343.359L223.517 345.32ZM287.442 320.857L287.162 317.87L287.442 320.857ZM308.504 316.64L305.954 315.059L308.504 316.64ZM242.824 9.48289L240.425 7.68152L242.824 9.48289ZM160.923 100.991L158.304 99.5281L160.923 100.991ZM-102.427 135.591L-99.5603 136.475L-102.427 135.591ZM-234.862 268.249L-232.123 269.474L-234.862 268.249ZM96.5274 74.8527L94.0615 73.1441L96.5274 74.8527ZM142.267 271.796L139.274 272.013L142.267 271.796ZM23.2105 296.3L25.6764 298.009L23.2105 296.3ZM200.377 385.054L198.093 383.109L200.377 385.054ZM61.1079 41.4417L60.9338 44.4366L61.1079 41.4417ZM23.6934 296.95L22.0323 294.452L23.6934 296.95ZM61.354 40.6152L60.1042 43.3425L61.354 40.6152ZM95.7645 74.113L97.0425 76.8272L95.7645 74.113ZM221.605 323.834L219.519 321.678L221.605 323.834ZM221.278 322.781L221.645 325.759L221.278 322.781ZM-157.848 258.836L-158.782 255.985L-157.848 258.836ZM-370.401 456.487L-367.464 457.096L-370.401 456.487ZM97.6538 205.016L100.619 205.472L97.6538 205.016ZM142.933 271.932L140.294 270.506L142.933 271.932ZM-14.2976 550.606L-12.831 553.223L-14.2976 550.606ZM-100.857 135.794L-103.781 136.463L-100.857 135.794ZM-14.0631 551.447L-14.2076 548.451L-14.0631 551.447ZM-393.19 545.052L-390.366 544.04L-393.19 545.052ZM146.029 52.1598L145.481 49.2102L146.029 52.1598ZM-19.0116 185.999L-16.0576 185.475L-19.0116 185.999ZM98.8263 204.893L101.455 203.448L98.8263 204.893ZM243.902 9.35352L246.76 8.44177L243.902 9.35352ZM81.3024 406.231L78.5443 405.05L81.3024 406.231ZM30.8295 461.839C17.3633 472.977 -4.77703 484.378 -41.1534 483.627L-41.2771 489.626C-3.43037 490.407 20.1039 478.497 34.6537 466.462L30.8295 461.839ZM-41.1489 483.627C-53.6441 483.351 -65.6824 481.692 -76.78 475.219L-79.8032 480.401C-67.4113 487.63 -54.1698 489.34 -41.2816 489.626L-41.1489 483.627ZM-76.7717 475.223C-90.7103 467.032 -95.2719 455.128 -93.8883 443.738C-92.4798 432.143 -84.861 420.794 -73.8159 414.277L-76.8648 409.11C-89.385 416.496 -98.193 429.419 -99.8445 443.014C-101.521 456.813 -95.7753 471.015 -79.8116 480.396L-76.7717 475.223ZM-73.8117 414.275C-63.1643 407.97 -49.0524 403.775 -33.077 400.28C-16.9666 396.755 0.187299 394.099 17.6711 390.544C34.9217 387.037 52.0091 382.735 66.8774 376.07C81.7631 369.398 94.6049 360.278 103.15 347.036L98.1079 343.783C90.3962 355.734 78.6542 364.216 64.4232 370.595C50.1749 376.982 33.6128 381.18 16.4757 384.664C-0.428244 388.101 -18.4002 390.927 -34.3593 394.418C-50.4533 397.939 -65.3544 402.293 -76.8689 409.112L-73.8117 414.275ZM103.152 347.032C115.381 328.014 120.681 302.582 120.112 276.824C119.543 251.043 113.09 224.611 101.455 203.448L96.1973 206.338C107.306 226.544 113.563 252.005 114.114 276.957C114.665 301.932 109.495 326.073 98.1054 343.786L103.152 347.032ZM94.6887 204.559C94.6235 204.983 94.5332 205.568 94.4991 206.076L100.486 206.477C100.499 206.275 100.544 205.96 100.619 205.472L94.6887 204.559ZM94.4944 206.165C93.7282 226.778 85.2774 252.886 70.73 277.53C56.1962 302.151 35.744 325.027 11.2579 339.363L14.2893 344.54C39.8638 329.568 60.9814 305.848 75.897 280.58C90.7991 255.335 99.6773 228.259 100.49 206.388L94.4944 206.165ZM11.2578 339.363C-11.57 352.729 -35.6836 358.489 -56.4031 359.626C-77.2293 360.77 -94.2643 357.229 -103.033 352.396L-105.929 357.651C-95.8025 363.232 -77.5043 366.794 -56.0742 365.617C-34.5374 364.435 -9.47149 358.453 14.2894 344.54L11.2578 339.363ZM-103.027 352.4C-114.779 345.887 -118.395 337.463 -118.207 329.528C-118.012 321.302 -113.704 313.088 -108.62 307.527L-113.048 303.479C-118.809 309.78 -123.967 319.32 -124.205 329.386C-124.451 339.742 -119.468 350.148 -105.936 357.648L-103.027 352.4ZM-108.607 307.513C-103.163 301.482 -95.3296 297.66 -86.044 294.055C-76.9589 290.529 -66.3632 287.181 -56.5708 282.109L-59.3305 276.781C-68.7425 281.656 -78.636 284.743 -88.2152 288.462C-97.594 292.102 -106.601 296.336 -113.061 303.493L-108.607 307.513ZM-56.5532 282.099C-35.2995 270.911 -22.1361 253.556 -17.0299 231.085L-22.8808 229.755C-27.5952 250.503 -39.632 266.411 -59.3482 276.79L-56.5532 282.099ZM-17.0325 231.096C-13.4595 215.653 -14.5795 193.815 -16.0576 185.475L-21.9656 186.522C-20.5856 194.308 -19.5354 215.296 -22.8781 229.744L-17.0325 231.096ZM-23.7932 184.161C-27.7638 190.735 -30.8526 196.891 -34.9271 202.84L-29.9768 206.23C-25.8135 200.151 -22.286 193.271 -18.6573 187.263L-23.7932 184.161ZM-34.9255 202.837C-53.2801 229.582 -78.6433 245.783 -107.75 256.98C-136.938 268.208 -169.655 274.326 -202.692 281.054C-268.406 294.435 -335.36 310.16 -372.479 374.885L-367.274 377.87C-331.67 315.786 -267.512 300.376 -201.495 286.933C-168.665 280.248 -135.362 274.03 -105.596 262.58C-75.7486 251.098 -49.224 234.275 -29.9784 206.233L-34.9255 202.837ZM-372.479 374.886C-398.861 420.902 -412.159 487.178 -397.086 542.808L-391.295 541.239C-405.881 487.404 -393.01 422.76 -367.274 377.87L-372.479 374.886ZM-397.075 542.848C-396.74 544.02 -396.366 545.083 -396.014 546.065L-390.366 544.04C-390.713 543.072 -391.03 542.166 -391.306 541.198L-397.075 542.848ZM-389.447 546.314C-389.051 545.376 -388.768 544.417 -388.538 543.645L-394.287 541.929C-394.534 542.756 -394.728 543.397 -394.975 543.981L-389.447 546.314ZM-388.508 543.536C-386.733 536.649 -383.609 530.475 -379.39 524.733L-384.225 521.18C-388.834 527.452 -392.327 534.314 -394.318 542.038L-388.508 543.536ZM-379.396 524.741C-371.317 513.828 -358.979 504.766 -340.148 501.003C-321.235 497.224 -295.623 498.767 -261.079 509.443L-259.307 503.711C-294.431 492.855 -321.107 491.08 -341.324 495.119C-361.624 499.175 -375.258 509.068 -384.219 521.171L-379.396 524.741ZM-261.076 509.444C-238.899 516.278 -223.563 523.586 -207.619 530.623C-191.65 537.671 -175.204 544.382 -151.099 549.806L-149.782 543.952C-173.351 538.649 -189.398 532.107 -205.196 525.134C-221.017 518.151 -236.72 510.671 -259.309 503.71L-261.076 509.444ZM-151.099 549.806C-45.5833 573.547 28.9231 513.134 46.1488 471.825L40.6109 469.516C24.5313 508.077 -47.0458 567.068 -149.782 543.952L-151.099 549.806ZM-367.464 457.096C-366.178 450.897 -364.638 444.808 -362.862 438.785L-368.617 437.088C-370.438 443.261 -372.018 449.511 -373.339 455.877L-367.464 457.096ZM-350.459 434.997C-349.791 443.595 -355.344 453.22 -368.61 456.379L-367.22 462.215C-351.328 458.431 -343.56 446.32 -344.478 434.532L-350.459 434.997ZM157.276 446.421C147.737 468.956 128.649 489.363 104.564 505.916C80.5046 522.452 51.6503 535.006 22.8873 541.925L24.2908 547.759C53.7263 540.678 83.264 527.836 107.963 510.861C132.637 493.902 152.674 472.684 162.801 448.76L157.276 446.421ZM22.8684 541.93C18.8436 542.926 10.8766 544.497 3.18437 545.859C-4.58198 547.234 -11.718 548.331 -14.2076 548.451L-13.9187 554.444C-10.9637 554.302 -3.40348 553.118 4.23018 551.767C11.9379 550.403 20.0747 548.802 24.3097 547.754L22.8684 541.93ZM-12.831 553.223C-4.32056 548.454 23.0343 535.983 47.7884 509.562L43.4098 505.46C19.444 531.04 -6.89604 543.019 -15.7643 547.989L-12.831 553.223ZM47.7871 509.564C68.8354 487.126 80.1036 460.436 79.9093 429.038L73.9094 429.075C74.0936 458.843 63.4724 484.073 43.4111 505.459L47.7871 509.564ZM79.9093 429.035C79.8468 420.469 81.5507 413.276 84.0605 407.411L78.5443 405.05C75.7158 411.66 73.8408 419.671 73.9095 429.078L79.9093 429.035ZM96.7948 415.78C98.5527 420.62 102.367 424.368 107.797 425.312C113.12 426.238 119.369 424.365 125.998 419.436L122.418 414.622C116.558 418.979 111.955 419.945 108.825 419.401C105.802 418.875 103.564 416.843 102.434 413.732L96.7948 415.78ZM126 419.435C133.488 413.858 138.978 406.554 143.789 398.634C146.195 394.674 148.456 390.516 150.71 386.316C152.973 382.097 155.226 377.844 157.66 373.591C167.338 356.681 179.662 340.197 204.542 330.265L202.317 324.693C175.652 335.338 162.454 353.136 152.452 370.61C149.966 374.954 147.664 379.302 145.423 383.479C143.171 387.676 140.976 391.709 138.661 395.519C134.031 403.142 129.017 409.707 122.416 414.623L126 419.435ZM204.527 330.271C207.921 328.937 217.282 326.296 221.645 325.759L220.911 319.804C215.933 320.417 206.074 323.216 202.332 324.687L204.527 330.271ZM219.519 321.678C215.098 325.957 201.934 335.481 188.095 359.691L193.304 362.668C206.611 339.388 218.96 330.569 223.692 325.989L219.519 321.678ZM188.104 359.675C180.571 372.668 176.4 386.119 172.351 400.339C168.287 414.613 164.339 429.69 157.275 446.424L162.802 448.757C170.042 431.609 174.096 416.122 178.122 401.982C182.163 387.789 186.17 374.975 193.295 362.684L188.104 359.675ZM-60.2938 117.877C-58.568 97.2034 -56.3326 67.2177 -32.5442 46.9087L-36.44 42.3454C-62.3676 64.4808 -64.5775 97.0668 -66.2729 117.377L-60.2938 117.877ZM-32.5505 46.9141C-17.4313 34.0786 1.62495 30.2611 23.5202 32.9059L24.2397 26.9492C1.23034 24.1699 -19.6738 28.1119 -36.4336 42.34L-32.5505 46.9141ZM23.5231 32.9063C36.3367 34.441 49.3559 38.4167 60.1042 43.3425L62.6039 37.888C51.3527 32.7318 37.7332 28.5654 24.2367 26.9488L23.5231 32.9063ZM61.2821 38.4467C60.888 38.4238 60.5216 38.3752 60.2979 38.3256L58.9981 44.1831C59.6296 44.3233 60.3337 44.4017 60.9338 44.4366L61.2821 38.4467ZM60.3533 38.3384C44.9274 34.6073 26.9209 36.4378 12.4842 45.6376C-2.0813 54.9194 -12.6827 71.4948 -13.4816 96.4954L-7.48466 96.687C-6.74292 73.4767 2.96954 58.8154 15.7086 50.6975C28.5763 42.4976 44.8651 40.7652 58.9427 44.1703L60.3533 38.3384ZM-13.4817 96.5007C-15.383 159.486 -65.0464 238.896 -157.377 255.611L-156.308 261.515C-60.8978 244.243 -9.46197 162.192 -7.4845 96.6817L-13.4817 96.5007ZM-157.328 255.602C-157.911 255.698 -158.461 255.88 -158.782 255.985L-156.914 261.687C-156.541 261.565 -156.415 261.533 -156.357 261.523L-157.328 255.602ZM-157.078 258.389C-131.219 246.424 -110.415 229.329 -93.9766 207.862L-98.7404 204.214C-114.603 224.928 -134.644 241.397 -159.597 252.944L-157.078 258.389ZM-93.9857 207.873C-70.9978 178.16 -62.8724 149.977 -60.293 117.867L-66.2737 117.387C-68.7804 148.591 -76.598 175.593 -98.7313 204.202L-93.9857 207.873ZM129.096 73.2189C124.724 82.8655 125.745 92.1089 129.102 101.518C132.387 110.722 138.15 120.661 143.558 131.474C154.478 153.313 165.118 180.744 156.854 221.21L162.732 222.411C171.372 180.105 160.151 151.244 148.924 128.791C143.258 117.459 137.876 108.252 134.753 99.5009C131.703 90.9544 131.054 83.433 134.561 75.6956L129.096 73.2189ZM156.855 221.205C152.528 242.206 143.796 264.027 140.294 270.506L145.572 273.359C149.382 266.311 158.3 243.928 162.731 222.416L156.855 221.205ZM145.259 271.578C145.24 271.324 145.253 270.876 145.32 270.082C145.389 269.277 145.481 268.441 145.591 267.262C145.8 265.008 146.009 262.093 145.912 258.534C145.716 251.395 144.291 241.812 139.334 229.671L133.779 231.939C138.456 243.394 139.738 252.263 139.914 258.698C140.002 261.925 139.814 264.578 139.616 266.707C139.523 267.718 139.409 268.777 139.342 269.574C139.273 270.383 139.219 271.245 139.274 272.013L145.259 271.578ZM139.34 229.685C134.231 216.992 128.256 204.558 122.391 192.142L116.966 194.705C122.861 207.186 128.746 219.434 133.774 231.925L139.34 229.685ZM122.393 192.147C107.158 159.732 91.7263 125.21 114.806 85.1924L109.609 82.1948C84.816 125.182 101.818 162.476 116.963 194.7L122.393 192.147ZM114.808 85.1892C121.468 73.608 127.365 67.2617 132.539 63.2492C137.813 59.1593 142.291 57.4656 147.051 54.9379L144.237 49.6387C140.109 51.8305 134.68 53.9966 128.862 58.5079C122.945 63.0967 116.568 70.0932 109.607 82.198L114.808 85.1892ZM147.042 54.9429C146.838 55.0501 146.663 55.0933 146.576 55.1094L145.481 49.2102C145.125 49.2762 144.698 49.3963 144.247 49.6337L147.042 54.9429ZM144.671 50.7596C137.433 57.1216 132.877 65.0318 129.105 73.1995L134.552 75.715C138.189 67.8389 142.32 60.8142 148.632 55.2663L144.671 50.7596ZM94.0615 73.1441C74.6813 101.113 60.198 120.542 64.8948 150.493L70.8223 149.563C66.5626 122.399 79.2786 105.012 98.9932 76.5614L94.0615 73.1441ZM64.8954 150.497C68.6884 174.453 74.4359 195.164 64.3408 229.339L70.095 231.038C80.6437 195.328 74.5656 173.205 70.8216 149.559L64.8954 150.497ZM64.3427 229.332C55.24 259.895 45.4019 277.88 22.9934 293.908L26.4839 298.788C50.3797 281.697 60.7808 262.312 70.0931 231.045L64.3427 229.332ZM23.3411 293.694C23.0104 293.868 22.5454 294.11 22.0323 294.452L25.3546 299.448C25.5799 299.298 25.7908 299.185 26.1361 299.003L23.3411 293.694ZM25.6764 298.009C34.021 285.966 40.2482 276.704 43.8031 267.052C47.416 257.242 48.2206 247.201 46.1958 233.592L40.2611 234.475C42.1753 247.34 41.3593 256.326 38.1728 264.978C34.9282 273.788 29.1769 282.422 20.7446 294.591L25.6764 298.009ZM46.1929 233.574C41.2959 202.015 33.4601 176.059 43.2421 140.987L37.4627 139.375C27.237 176.038 35.4869 203.708 40.2639 234.494L46.1929 233.574ZM43.2399 140.995C52.529 108.048 70.61 89.2733 97.0425 76.8272L94.4865 71.3989C66.5726 84.5425 47.2527 104.652 37.465 139.367L43.2399 140.995ZM-232.123 269.474C-227.55 259.249 -217.979 238.857 -197.852 221.813L-201.729 217.234C-222.922 235.18 -232.94 256.603 -237.601 267.025L-232.123 269.474ZM-197.854 221.815C-188.368 213.798 -178.214 208.299 -167.386 203.216C-156.665 198.183 -144.991 193.439 -133.159 187.149L-135.976 181.851C-147.657 188.061 -158.814 192.563 -169.936 197.784C-180.952 202.956 -191.652 208.718 -201.727 217.232L-197.854 221.815ZM-133.152 187.145C-117.895 178.985 -108.932 166.277 -103.794 151.127L-109.476 149.2C-114.231 163.221 -122.334 174.555 -135.982 181.855L-133.152 187.145ZM-103.793 151.125C-102.95 148.632 -102.252 146.126 -101.589 143.686C-100.919 141.22 -100.29 138.841 -99.5603 136.475L-105.294 134.708C-106.061 137.197 -106.724 139.705 -107.379 142.112C-108.039 144.544 -108.697 146.896 -109.477 149.202L-103.793 151.125ZM-103.781 136.463C-103.727 136.7 -103.703 136.851 -103.695 136.946L-97.7184 136.414C-97.7605 135.941 -97.8474 135.497 -97.9324 135.125L-103.781 136.463ZM-103.696 136.93C-102.817 147.436 -104.182 157.524 -107.465 167.119L-101.788 169.062C-98.2459 158.71 -96.7668 147.791 -97.717 136.43L-103.696 136.93ZM-107.476 167.151C-116.916 195.765 -136.109 217.593 -161.526 235.402L-158.083 240.316C-131.927 221.989 -111.731 199.199 -101.778 169.03L-107.476 167.151ZM-161.513 235.393C-182.899 250.202 -206.997 260.979 -233.399 268.034L-231.85 273.83C-204.85 266.616 -180.107 255.567 -158.097 240.326L-161.513 235.393ZM241.044 10.2653C241.834 12.742 242.519 19.9164 240.81 28.7206C239.121 37.4176 235.161 47.3471 227.058 55.5399L231.324 59.7589C240.463 50.5188 244.848 39.4046 246.7 29.864C248.531 20.4307 247.951 12.1737 246.76 8.44177L241.044 10.2653ZM227.063 55.5354C222.133 60.4994 215.696 63.4192 208.003 66.0843C200.487 68.6881 191.537 71.1053 182.745 75.0334L185.193 80.5116C193.682 76.7184 201.909 74.5453 209.967 71.7537C217.849 69.0233 225.382 65.7422 231.32 59.7634L227.063 55.5354ZM182.744 75.0337C168.786 81.2741 162.453 92.0999 158.304 99.5281L163.542 102.454C167.605 95.18 173.136 85.9013 185.193 80.5113L182.744 75.0337ZM161.587 100.424C157.739 80.1479 161.672 62.754 176.096 48.8645L171.934 44.5424C155.755 60.1219 151.55 79.7177 155.692 101.543L161.587 100.424ZM176.103 48.8576C181.338 43.7843 187.406 40.7487 194.622 38.2412C198.245 36.9823 202.112 35.8709 206.302 34.6901C210.47 33.5156 214.947 32.2754 219.673 30.7809L217.863 25.0602C213.249 26.5194 208.878 27.7306 204.675 28.9151C200.494 30.0933 196.466 31.2485 192.653 32.5736C184.996 35.234 178.028 38.6361 171.927 44.5492L176.103 48.8576ZM219.661 30.7845C228.791 27.9367 234.737 23.7122 238.677 19.7691C242.46 15.9837 244.614 12.0953 245.223 11.2843L240.425 7.68152C239.091 9.4585 237.868 12.0908 234.433 15.5281C231.156 18.8077 226.046 22.508 217.875 25.0566L219.661 30.7845ZM305.954 315.059C295.627 331.714 281.431 343.044 259.296 348.063L260.623 353.915C284.411 348.521 299.927 336.165 311.053 318.221L305.954 315.059ZM259.298 348.063C239.414 352.56 225.694 359.421 216.114 366.165C206.531 372.91 201.185 379.478 198.093 383.109L202.661 386.999C205.733 383.391 210.659 377.341 219.567 371.071C228.477 364.8 241.467 358.248 260.621 353.915L259.298 348.063ZM202.223 385.995C208.791 372.095 215.809 358.835 225.788 347.281L221.246 343.359C210.716 355.554 203.417 369.423 196.798 383.432L202.223 385.995ZM225.781 347.288C245.191 324.954 271.878 325.324 287.721 323.844L287.162 317.87C272.155 319.272 242.565 318.829 221.253 343.352L225.781 347.288ZM287.721 323.844C295.72 323.096 302.497 320.519 308.767 316.531L305.547 311.468C299.996 314.998 294.121 317.219 287.162 317.87L287.721 323.844ZM308.797 316.512C308.849 316.478 308.405 316.79 307.643 316.635C306.782 316.46 306.307 315.855 306.133 315.46C306.052 315.278 306.028 315.135 306.019 315.057C306.011 314.976 306.017 314.931 306.018 314.922C306.02 314.908 306.013 314.965 305.954 315.059L311.053 318.221C311.939 316.793 312.397 314.792 311.622 313.036C311.19 312.059 310.283 311.05 308.841 310.756C307.497 310.482 306.322 310.962 305.517 311.487L308.797 316.512ZM245.223 11.2843C245.451 10.9804 245.586 10.7007 245.659 10.5322C245.692 10.4571 245.72 10.3862 245.723 10.3764C245.735 10.3486 245.72 10.3866 245.697 10.4365C245.65 10.5408 245.497 10.8641 245.172 11.1918C244.818 11.5503 244.408 11.7678 244.032 11.88L242.315 6.13102C241.82 6.27881 241.325 6.5489 240.906 6.97256C240.518 7.36544 240.32 7.7664 240.234 7.95636C240.192 8.04907 240.159 8.13192 240.152 8.15036C240.137 8.18681 240.146 8.1636 240.158 8.13696C240.189 8.06548 240.272 7.8862 240.425 7.68152L245.223 11.2843ZM158.304 99.5281C158.622 98.9581 159.149 98.7406 159.6 98.7294C159.858 98.7231 160.263 98.7785 160.683 99.0579C161.149 99.3679 161.458 99.8416 161.567 100.326L155.713 101.641C156.225 103.923 158.25 104.765 159.748 104.728C161.151 104.693 162.702 103.958 163.542 102.454L158.304 99.5281ZM-99.5603 136.475C-99.5055 136.297 -99.4749 136.159 -99.454 136.061L-105.324 134.82C-105.328 134.838 -105.325 134.822 -105.318 134.795C-105.315 134.78 -105.31 134.764 -105.306 134.748C-105.301 134.731 -105.297 134.718 -105.294 134.708L-99.5603 136.475ZM-233.464 268.052C-232.929 267.896 -232.46 268.153 -232.255 268.401C-232.063 268.634 -231.934 269.051 -232.123 269.474L-237.601 267.025C-239.195 270.591 -236.031 275.049 -231.785 273.812L-233.464 268.052ZM94.6407 76.6014C93.3319 75.6126 93.4631 74.0077 94.0615 73.1441L98.9932 76.5614C99.8825 75.278 99.9737 73.1105 98.2574 71.814L94.6407 76.6014ZM143.728 269.353C144.474 269.698 145.179 270.48 145.259 271.578L139.274 272.013C139.373 273.364 140.236 274.35 141.212 274.8L143.728 269.353ZM25.1807 294.609C25.7514 295.064 26.0224 295.667 26.1027 296.19C26.1831 296.715 26.1062 297.388 25.6764 298.009L20.7446 294.591C19.6878 296.117 20.0431 298.185 21.4383 299.298L25.1807 294.609ZM198.093 383.109C198.969 382.08 200.166 382.145 200.803 382.384C201.17 382.522 201.736 382.845 202.124 383.528C202.58 384.333 202.565 385.255 202.234 385.971L196.787 383.456C196.353 384.396 196.355 385.519 196.905 386.488C197.385 387.336 198.121 387.786 198.691 388C199.732 388.392 201.466 388.403 202.661 386.999L198.093 383.109ZM58.6775 40.1664C58.7803 39.8402 58.9734 39.4772 59.3142 39.1545C59.6681 38.8193 60.3474 38.3923 61.2821 38.4467L60.9338 44.4366C62.0735 44.5028 62.9373 43.9869 63.4401 43.5107C63.9297 43.0471 64.2358 42.4911 64.4003 41.9692L58.6775 40.1664ZM-393.15 548.4C-391.458 548.656 -390.012 547.653 -389.447 546.314L-394.975 543.981C-394.575 543.034 -393.525 542.275 -392.253 542.468L-393.15 548.4ZM22.0323 294.452C22.676 294.024 23.9949 293.662 25.1807 294.609L21.4383 299.298C22.8423 300.419 24.4785 300.03 25.3546 299.448L22.0323 294.452ZM60.1042 43.3425C58.7009 42.6994 58.3498 41.2067 58.6775 40.1664L64.4003 41.9692C64.8423 40.5661 64.3529 38.6896 62.6039 37.888L60.1042 43.3425ZM98.2574 71.814C97.3614 71.137 95.9131 70.7271 94.4865 71.3989L97.0425 76.8272C96.0581 77.2907 95.1467 76.9836 94.6407 76.6014L98.2574 71.814ZM219.024 324.301C218.827 323.894 218.767 323.46 218.821 323.051C218.875 322.636 219.066 322.117 219.519 321.678L223.692 325.989C224.997 324.726 225.018 322.916 224.428 321.693L219.024 324.301ZM221.645 325.759C220.922 325.848 219.649 325.596 219.024 324.301L224.428 321.693C223.642 320.066 222.001 319.67 220.911 319.804L221.645 325.759ZM-362.862 438.785C-361.556 434.356 -358.044 431.576 -355.118 430.965C-353.691 430.668 -352.652 430.921 -351.997 431.393C-351.382 431.835 -350.629 432.813 -350.459 434.997L-344.478 434.532C-344.748 431.061 -346.098 428.247 -348.49 426.524C-350.842 424.83 -353.714 424.543 -356.344 425.092C-361.531 426.175 -366.714 430.636 -368.617 437.088L-362.862 438.785ZM-158.782 255.985C-158.936 256.036 -158.583 255.876 -158.028 256.148C-157.409 256.45 -157.075 257.031 -157.002 257.531C-156.87 258.435 -157.462 258.557 -157.144 258.419L-159.53 252.914C-161.673 253.842 -163.294 255.966 -162.939 258.397C-162.755 259.661 -161.996 260.886 -160.663 261.538C-159.392 262.159 -158.034 262.054 -156.914 261.687L-158.782 255.985ZM-368.605 456.377C-368.439 456.338 -368.219 456.341 -368 456.421C-367.795 456.495 -367.662 456.609 -367.587 456.697C-367.456 456.853 -367.443 456.995 -367.464 457.096L-373.339 455.877C-373.692 457.579 -373.231 459.314 -372.171 460.569C-371.067 461.876 -369.249 462.694 -367.226 462.217L-368.605 456.377ZM94.6683 204.746C94.668 204.754 94.6675 204.765 94.6674 204.768C94.6672 204.774 94.6671 204.774 94.6672 204.773C94.6673 204.772 94.6681 204.753 94.67 204.727C94.672 204.699 94.6749 204.668 94.6787 204.635C94.6823 204.603 94.686 204.577 94.6887 204.559L100.619 205.472C100.634 205.372 100.646 205.271 100.654 205.162C100.658 205.115 100.66 205.075 100.661 205.05C100.662 205.032 100.663 205.002 100.663 205.001L94.6683 204.746ZM140.294 270.506C141.027 269.151 142.601 268.833 143.728 269.353L141.212 274.8C142.685 275.481 144.659 275.049 145.572 273.359L140.294 270.506ZM-11.7395 549.953C-11.256 551.03 -11.5638 552.513 -12.831 553.223L-15.7643 547.989C-17.4419 548.929 -17.8894 550.904 -17.2132 552.41L-11.7395 549.953ZM-99.454 136.061C-99.5728 136.622 -99.9683 137.312 -100.742 137.705C-101.423 138.052 -102.046 137.991 -102.39 137.901C-103.014 137.737 -103.6 137.255 -103.781 136.463L-97.9324 135.125C-98.3018 133.51 -99.5673 132.439 -100.866 132.098C-101.548 131.919 -102.508 131.872 -103.463 132.358C-104.511 132.891 -105.118 133.846 -105.324 134.82L-99.454 136.061ZM-14.2076 548.451C-13.0115 548.393 -12.1066 549.135 -11.7395 549.953L-17.2132 552.41C-16.6956 553.563 -15.4817 554.519 -13.9187 554.444L-14.2076 548.451ZM-396.014 546.065C-395.512 547.464 -394.289 548.228 -393.15 548.4L-392.253 542.468C-391.551 542.574 -390.718 543.057 -390.366 544.04L-396.014 546.065ZM146.576 55.1094C145.877 55.2392 145.323 55.0521 145.016 54.897C144.703 54.7386 144.457 54.5235 144.271 54.2802C144.105 54.0641 143.818 53.603 143.781 52.9149C143.736 52.0647 144.109 51.1382 144.916 50.5657L148.387 55.4602C149.382 54.7542 149.828 53.6438 149.773 52.5954C149.725 51.7091 149.344 51.0356 149.032 50.629C148.513 49.9526 147.247 48.8821 145.481 49.2102L146.576 55.1094ZM-16.0576 185.475C-16.3579 183.781 -17.6211 182.228 -19.6154 182.014C-21.4045 181.822 -22.8867 182.816 -23.7092 184.03L-18.7413 187.395C-18.8553 187.563 -19.3409 188.078 -20.2554 187.98C-20.719 187.93 -21.1666 187.718 -21.5005 187.375C-21.8254 187.041 -21.9343 186.699 -21.9656 186.522L-16.0576 185.475ZM101.455 203.448C100.693 202.062 99.2922 201.569 98.3117 201.52C97.7679 201.492 96.9651 201.572 96.191 202.073C95.2921 202.655 94.7156 203.635 94.6683 204.746L100.663 205.001C100.627 205.851 100.169 206.645 99.4509 207.11C98.8571 207.495 98.296 207.527 98.0081 207.512C97.5394 207.488 96.7074 207.266 96.1973 206.338L101.455 203.448ZM246.76 8.44177C246.352 7.16134 245.337 6.56121 244.861 6.34059C244.35 6.10411 243.397 5.80777 242.315 6.13102L244.032 11.88C243.564 12.0198 243.176 11.9974 242.954 11.9657C242.715 11.9315 242.51 11.8643 242.338 11.7846C242.169 11.7061 241.958 11.5816 241.744 11.382C241.54 11.1922 241.224 10.8305 241.044 10.2653L246.76 8.44177ZM84.0605 407.411C85.5222 403.995 86.7828 402.549 87.5614 402.054C87.8755 401.854 88.0441 401.85 88.1299 401.855C88.2481 401.862 88.5211 401.914 88.9758 402.221C89.9645 402.888 91.231 404.359 92.6642 406.83C94.0577 409.232 95.4532 412.303 96.8155 415.835L102.414 413.676C100.99 409.984 99.4646 406.595 97.8541 403.819C96.2834 401.112 94.4627 398.685 92.3316 397.247C91.2264 396.501 89.9314 395.95 88.4798 395.865C86.9958 395.778 85.5929 396.195 84.34 396.992C81.9845 398.491 80.1294 401.346 78.5443 405.05L84.0605 407.411ZM46.1402 471.845C47.6277 468.351 48.5294 465.325 48.7216 462.878C48.9011 460.592 48.5046 457.688 45.9311 456.232C43.6124 454.92 40.8775 455.642 38.7582 456.587C36.4324 457.625 33.7572 459.417 30.8295 461.839L34.6537 466.462C37.3778 464.209 39.5765 462.792 41.2027 462.067C43.0354 461.249 43.3307 461.654 42.9768 461.454C42.3679 461.11 42.8707 460.744 42.74 462.408C42.6221 463.91 42.0044 466.242 40.6195 469.496L46.1402 471.845Z" fill="url(#paint1_linear_320_2271)" mask="url(#path-1-outside-1_320_2271)"/>
</g>
<defs>
<filter id="filter0_d_320_2271" x="-412.914" y="0.48877" width="734.43" height="568.176" filterUnits="userSpaceOnUse" color-interpolation-filters="sRGB">
<feFlood flood-opacity="0" result="BackgroundImageFix"/>
<feColorMatrix in="SourceAlpha" type="matrix" values="0 0 0 0 0 0 0 0 0 0 0 0 0 0 0 0 0 0 127 0" result="hardAlpha"/>
<feOffset dy="4"/>
<feGaussianBlur stdDeviation="4.75"/>
<feComposite in2="hardAlpha" operator="out"/>
<feColorMatrix type="matrix" values="0 0 0 0 0 0 0 0 0 0 0 0 0 0 0 0 0 0 0.37 0"/>
<feBlend mode="normal" in2="BackgroundImageFix" result="effect1_dropShadow_320_2271"/>
<feBlend mode="normal" in="SourceGraphic" in2="effect1_dropShadow_320_2271" result="shape"/>
</filter>
<linearGradient id="paint0_linear_320_2271" x1="136.393" y1="690.238" x2="469.126" y2="68.0672" gradientUnits="userSpaceOnUse">
<stop stop-color="#FF2020"/>
<stop offset="0.446" stop-color="#FF7B7D"/>
<stop offset="1" stop-color="#8F0C11"/>
</linearGradient>
<linearGradient id="paint1_linear_320_2271" x1="237.132" y1="13.1061" x2="-201.219" y2="306.433" gradientUnits="userSpaceOnUse">
<stop offset="0.025" stop-color="#FFC363"/>
<stop offset="0.5" stop-color="#FFE8C2"/>
<stop offset="0.995" stop-color="#955E07"/>
</linearGradient>
</defs>
</svg>
