<svg width="183" height="769" viewBox="0 0 183 769" fill="none" xmlns="http://www.w3.org/2000/svg">
<g opacity="0.52" filter="url(#filter0_d_320_2360)">
<path d="M-327.378 341.793C-315.258 332.103 -310.522 335.65 -315.709 348.684C-322.122 364.797 -324.776 388.568 -307.804 420.375C-301.984 431.237 -294.673 441.568 -282.181 449.336C-250.236 469.069 -216.927 449.043 -212.182 423.875C-203.152 376.504 -257.409 294.486 -217.218 248.948C-187.883 215.821 -119.418 196.503 -64.9274 201.811C-64.3278 201.869 -63.86 202.603 -64.4135 202.804C-64.4755 202.827 -64.506 202.837 -64.5647 202.865C-65.0249 203.083 -65.4802 203.297 -65.8525 203.441C-110.968 219.527 -165.462 270.23 -175.297 323.616C-184.453 373.301 -157.857 416.692 -138.416 429.401C-112.317 446.38 -90.3389 431.202 -82.265 417.726C-73.2211 402.875 -79.537 383.06 -77.1607 363.029C-74.4397 341.602 -61.9868 324.958 -40.8235 313.229C-26.2034 305.058 -2.62322 298.571 6.67736 297.017C8.11599 296.776 8.75338 297.853 7.92908 298.832C2.79848 304.293 -2.79057 309.409 -7.48354 315.05C-92.9271 417.961 59.039 559.237 -46.0629 665.982C-83.7386 704.237 -219.664 746.598 -285.119 752.76C-286.48 752.873 -224.166 745.414 -218.586 744.644C-218.333 744.609 -218.273 744.456 -218.402 744.28C-218.529 744.108 -218.481 743.892 -218.302 743.75C-217.622 743.211 -216.867 742.729 -216.111 742.248C-209.053 738.09 -203.464 732.975 -198.906 727.081C-181.5 704.391 -180.616 669.086 -234.117 616.385C-268.451 582.508 -292.991 573.027 -325.28 535.576C-395.807 453.777 -363.193 370.013 -327.378 341.793ZM-136.313 693.023C-136.025 694.535 -133.774 695.033 -132.171 694.18C-126.008 690.9 -120.076 687.439 -114.322 683.801C-103.935 677.232 -106.013 663.725 -118.628 666.834C-130.022 669.643 -138.918 679.18 -136.313 693.023ZM-353.21 233.055C-394.75 266.138 -408.947 329.478 -398.741 384.587C-397.353 392.431 -391.573 414.615 -389.491 419.396C-389.422 419.555 -389.243 419.648 -389.033 419.655C-388.757 419.664 -388.519 419.516 -388.484 419.296C-387.011 410.099 -385.5 382.684 -368.062 352.644C-353.374 327.301 -330.143 308.853 -297.089 298.418C-287.372 295.361 -279.954 291.181 -274.39 286.714C-261.611 276.457 -273.569 273.66 -291.542 273.855C-301.37 274.117 -309.267 267.408 -304.684 253.406C-294.308 221.8 -242.355 205.604 -242.578 153.961C-242.617 150.393 -243.863 141.146 -245.274 136.916C-245.329 136.753 -245.484 136.621 -245.695 136.609C-246.046 136.589 -246.42 136.748 -246.554 137.01C-249.339 142.503 -253.687 156.693 -273.377 176.633C-294.264 198.053 -322.9 208.961 -353.21 233.055ZM99.6175 311.557C120.967 302.978 153.731 290.217 165.804 261.396C173.464 242.943 168.961 224.344 156.276 205.896C148.857 195.08 138.675 184.987 128.457 177.234C128.299 177.115 128.065 177.123 127.896 177.235C127.711 177.356 127.576 177.565 127.677 177.736C127.925 178.156 128.226 178.597 128.515 178.933C149.035 201.938 150.651 240.634 99.3429 258.671C30.9187 282.611 -34.1434 354.239 -11.656 441.189C-11.5709 441.493 -11.5401 441.833 -11.5112 442.183C-11.3059 444.661 -7.96293 443.963 -7.88327 441.477C-6.2542 415.464 2.96097 392.012 18.6785 370.757C40.3097 341.169 66.5929 324.723 99.6175 311.557ZM61.3387 128.108C30.7046 153.765 -27.7944 111.743 -109.684 155.024C-130.692 166.169 -150.68 181.445 -156.388 186.949C-156.532 187.088 -156.507 187.282 -156.345 187.404C-156.239 187.484 -156.094 187.517 -155.953 187.481C-151.414 186.32 -138.905 178.065 -109.279 178.207C-93.4999 178.22 -77.6169 179.064 -61.6399 179.828C-20.1916 181.745 25.5718 183.306 59.9107 148.253C79.5254 128.282 78.0093 117.807 79.2336 108.496C79.2505 108.363 79.2359 108.237 79.2025 108.109C79.0936 107.691 78.1388 107.459 78.0145 107.877C74.5397 115.791 68.3769 122.13 61.3387 128.108ZM77.3881 159.131C77.4043 158.904 77.2343 158.692 76.9928 158.576C76.7362 158.452 76.4189 158.535 76.2523 158.738C54.3402 185.389 40.4058 203.509 7.67347 209.538C-19.625 214.532 -45.2858 216.848 -78.4709 237.87C-107.799 256.535 -123.544 271.749 -131.333 297.481C-131.378 297.834 -131.422 298.187 -131.526 298.591C-131.559 298.719 -131.506 298.86 -131.365 298.924C-131.12 299.035 -130.768 298.968 -130.611 298.777C-111.804 275.903 -102.439 265.691 -72.1874 259.919C-36.4773 253.294 -4.07322 250.947 30.2479 229.878C62.576 209.917 75.407 187.031 77.3881 159.131ZM7.95352 510.918C8.14072 512.416 10.5318 512.986 11.8481 511.895C20.9808 504.321 39.2351 488.626 49.104 464.748C58.4229 442.128 55.2552 420.925 58.5094 396.288C60.5601 381.128 69.8108 369.594 83.3855 360.268C87.8529 357.204 92.6806 354.56 97.2648 351.586C97.3185 351.551 97.3577 351.529 97.415 351.498C98.233 351.058 97.3471 350.175 96.3776 350.297C96.0149 350.343 95.6656 350.399 95.345 350.476C83.1598 353.475 72.4534 358.343 63.1847 364.746C35.7123 383.305 20.2223 408.043 11.9529 436.573C5.18672 460.517 4.0377 485.387 7.95352 510.918ZM83.4985 9.27146C83.4686 9.04074 83.1016 8.74961 82.8122 8.76639C75.2646 9.20415 48.4356 17.2726 37.1331 38.2068C30.06 51.3837 35.9092 66.6328 35.0975 84.232C34.4835 97.4683 26.2387 106.071 20.1001 112.163C19.3095 112.948 19.8477 114.309 21.0847 114.148C45.5165 110.303 63.6877 100.381 72.921 82.0605C79.8381 68.4648 75.4678 55.0839 73.716 36.9054C72.0142 20.1106 81.1739 12.3315 83.1307 9.74939C83.2832 9.54812 83.5286 9.504 83.4985 9.27146ZM-273.139 59.7169C-272.676 57.8428 -275.176 57.9461 -276.593 59.4921C-290.565 74.7442 -296.867 91.6709 -292.5 113.292C-285.049 150.062 -298.197 168.715 -303.323 176.548C-303.592 176.958 -302.977 177.517 -302.581 177.18C-290.402 166.65 -278.89 155.768 -270.545 142.798C-254.138 117.096 -266.809 92.938 -271.961 79.1182C-274.459 72.4177 -274.622 66.1235 -273.139 59.7169Z" fill="url(#paint0_linear_320_2360)" fill-opacity="0.05" shape-rendering="crispEdges"/>
<path d="M-63.7454 204.009L-63.742 204.007L-63.7454 204.009ZM-63.7454 204.009C-63.7421 204.007 -63.7382 204.006 -63.7349 204.004L-63.7454 204.009ZM-246.798 137.506C-247.155 138.245 -247.541 139.116 -247.982 140.112C-251.018 146.955 -256.683 159.727 -273.377 176.633L-246.798 137.506ZM-246.798 137.506C-246.823 137.427 -246.849 137.35 -246.874 137.274C-246.856 137.328 -246.824 137.393 -246.776 137.461C-246.738 137.381 -246.699 137.303 -246.662 137.226C-246.625 137.153 -246.589 137.081 -246.554 137.01C-246.42 136.748 -246.046 136.589 -245.695 136.609C-245.484 136.621 -245.329 136.753 -245.274 136.916C-245.215 137.093 -245.157 137.278 -245.098 137.471C-245.088 137.506 -245.078 137.54 -245.067 137.575C-245.051 137.55 -245.035 137.524 -245.021 137.496C-245.036 137.525 -245.05 137.554 -245.065 137.583C-243.742 142.052 -242.615 150.57 -242.578 153.961C-242.442 185.326 -261.553 203.616 -278.906 220.224L-246.798 137.506ZM100.34 312.743L100.344 312.741C100.73 312.586 101.119 312.43 101.512 312.272C122.807 303.723 155.271 290.691 167.373 261.804L167.375 261.8C175.223 242.891 170.559 223.905 157.729 205.245C157.729 205.245 157.729 205.244 157.729 205.244L156.276 205.896L100.34 312.743ZM100.34 312.743C67.5434 325.818 41.5367 342.1 20.1043 371.416L20.1 371.422C4.52136 392.489 -4.61117 415.725 -6.22887 441.512C-6.29092 443.191 -7.49586 444.621 -9.26609 444.977C-10.1785 445.161 -11.19 445.024 -11.9768 444.465C-12.7362 443.925 -13.0931 443.133 -13.1632 442.287L-11.5112 442.183L-13.1632 442.287C-13.1935 441.921 -13.219 441.683 -13.2715 441.496L-13.2745 441.485L-13.2773 441.475C-35.9393 353.849 29.6157 281.627 98.695 257.458C123.887 248.601 135.903 234.766 139.237 220.438C142.587 206.041 137.207 190.973 127.164 179.714L127.155 179.704M100.34 312.743L127.155 179.704M127.155 179.704L127.146 179.694C126.793 179.282 126.45 178.775 126.178 178.315L127.677 177.736L127.155 179.704ZM-213.819 423.694L-213.818 423.692C-211.603 412.07 -213.26 398.237 -216.444 383.2C-218.23 374.762 -220.467 366.061 -222.746 357.201C-224.543 350.21 -226.366 343.12 -228.014 335.981C-231.725 319.898 -234.485 303.78 -233.771 288.797C-233.058 273.805 -228.863 259.859 -218.566 248.192L-218.564 248.19C-203.643 231.34 -178.87 218.094 -151.071 209.725C-123.258 201.353 -92.2498 197.811 -64.7066 200.494C-63.6888 200.593 -63.0166 201.187 -62.7298 201.691C-62.5742 201.965 -62.4396 202.365 -62.553 202.817C-62.6828 203.335 -63.1091 203.779 -63.7445 204.011L-63.7616 204.017C-64.2008 204.225 -64.7093 204.464 -65.1504 204.635L-65.1729 204.643L-65.1958 204.651C-87.4309 212.579 -112.125 229.106 -132.497 250.341C-152.86 271.566 -168.793 297.379 -173.659 323.793C-178.193 348.398 -173.876 371.454 -166.013 389.932C-158.131 408.454 -146.756 422.227 -137.359 428.369C-124.735 436.581 -113.36 436.909 -104.217 433.766C-94.9263 430.573 -87.6706 423.699 -83.7558 417.165L-83.7511 417.157C-79.4152 410.037 -78.7168 401.648 -78.8679 392.354C-78.9081 389.884 -79.009 387.346 -79.1118 384.76C-79.3917 377.718 -79.686 370.314 -78.8088 362.92L-78.8077 362.911C-76.038 341.101 -63.3287 324.099 -41.7564 312.143C-34.2959 307.974 -24.6135 304.265 -15.674 301.41C-6.73338 298.555 1.5839 296.516 6.35948 295.718C7.66962 295.499 8.98865 295.872 9.62081 296.84C10.2006 297.727 9.96852 298.767 9.29809 299.564L9.2736 299.593L9.24718 299.621C7.33438 301.657 5.39449 303.611 3.47518 305.544C0.134148 308.909 -3.14448 312.211 -6.10959 315.775C-27.2245 341.208 -33.7084 369.04 -33.1228 398.249C-32.5867 424.987 -26.1339 452.785 -19.6079 480.897C-18.9953 483.536 -18.3821 486.178 -17.7731 488.821C-3.61658 550.274 8.31165 612.886 -44.7682 666.795L-44.7683 666.795C-54.3677 676.542 -70.1222 686.461 -89.2476 695.939C-108.4 705.43 -131.046 714.534 -154.537 722.623C-172.564 728.832 -191.116 734.452 -208.997 739.197C-210.908 740.648 -212.943 742.016 -215.116 743.298C-215.684 743.66 -216.206 743.994 -216.683 744.338C-216.668 744.532 -216.697 744.746 -216.803 744.971C-217.114 745.627 -217.834 745.883 -218.325 745.951L-218.586 744.644L-218.325 745.951C-221.138 746.339 -238.14 748.4 -254.229 750.345C-256.717 750.645 -259.184 750.943 -261.575 751.232C-264.758 751.617 -267.807 751.985 -270.589 752.322C-275.664 753.066 -280.468 753.656 -284.947 754.077L-284.959 754.078L-284.97 754.079C-284.983 754.08 -285.002 754.082 -285.026 754.083L-285.027 754.083C-285.037 754.084 -285.105 754.088 -285.187 754.087C-285.254 754.085 -285.5 754.059 -285.676 754.022C-286.433 753.604 -286.642 752.216 -286.062 751.668C-285.909 751.594 -285.688 751.515 -285.625 751.498C-285.593 751.49 -285.541 751.478 -285.52 751.474C-285.442 751.458 -285.353 751.446 -285.329 751.442L-285.325 751.442C-285.234 751.429 -285.087 751.41 -284.896 751.386C-284.508 751.337 -283.903 751.262 -283.11 751.164C-281.524 750.969 -279.178 750.684 -276.309 750.336C-274.716 750.143 -272.962 749.931 -271.086 749.704C-253.551 747.129 -232.679 742.673 -210.722 736.871C-206.724 733.762 -203.297 730.255 -200.312 726.395C-191.828 715.335 -187.334 701.175 -191.548 683.249C-195.772 665.284 -208.759 643.479 -235.407 617.23L-235.408 617.229C-250.226 602.608 -263.199 592.561 -275.829 582.78C-277.768 581.278 -279.7 579.782 -281.629 578.277C-296.128 566.962 -310.417 555.163 -326.646 536.339C-397.604 454.04 -364.953 369.558 -328.537 340.858C-325.456 338.396 -322.739 336.685 -320.436 335.764C-318.209 334.873 -315.819 334.526 -314.014 335.674C-312.334 336.743 -311.886 338.694 -311.986 340.78C-312.09 342.963 -312.814 345.758 -314.133 349.072C-320.425 364.884 -323.095 388.327 -306.282 419.838C-300.504 430.62 -293.329 440.713 -281.159 448.282C-265.687 457.84 -250.08 457.705 -237.764 452.283C-225.349 446.817 -216.12 435.9 -213.819 423.694ZM-63.7893 203.929L-63.7876 203.932L-63.7893 203.929ZM-63.7885 203.931L-63.7902 203.928L-63.7885 203.931ZM-284.832 754.06C-284.832 754.06 -284.83 754.06 -284.826 754.059C-284.831 754.06 -284.833 754.06 -284.832 754.06ZM-354.369 232.121L-354.368 232.12C-340.869 221.389 -327.694 213.255 -315.462 205.703C-313.879 204.726 -312.313 203.759 -310.763 202.797C-297.211 194.384 -284.979 186.39 -274.677 175.825L-274.67 175.818C-258.162 159.1 -252.582 146.53 -249.541 139.679C-248.989 138.436 -248.521 137.382 -248.086 136.525C-247.636 135.636 -246.506 135.232 -245.557 135.286C-244.467 135.347 -243.857 136.011 -243.674 136.558C-242.22 140.92 -240.962 150.281 -240.922 153.932L-240.922 153.939C-240.809 180.188 -253.99 197.44 -268.362 212.011C-271.439 215.131 -274.578 218.134 -277.644 221.069C-278.148 221.551 -278.65 222.032 -279.15 222.511C-282.696 225.911 -286.117 229.229 -289.25 232.582C-295.517 239.289 -300.567 246.065 -303.083 253.727C-305.306 260.518 -304.418 265.286 -302.107 268.27C-299.825 271.216 -295.982 272.647 -291.576 272.53L-291.559 272.529L-291.543 272.529C-287.003 272.48 -282.793 272.618 -279.227 273.027C-275.705 273.43 -272.628 274.116 -270.499 275.261C-269.414 275.845 -268.514 276.58 -267.965 277.504C-267.409 278.442 -267.269 279.481 -267.524 280.577C-268.015 282.69 -269.969 285.031 -273.225 287.645C-278.951 292.241 -286.565 296.525 -296.501 299.652C-329.129 309.952 -352.045 328.142 -366.562 353.19L-366.562 353.19C-381.633 379.153 -384.707 403.112 -386.232 414.997C-386.458 416.756 -386.65 418.25 -386.841 419.448C-386.997 420.417 -388.057 421.015 -389.121 420.981C-389.918 420.955 -390.739 420.574 -391.055 419.847C-392.138 417.36 -394.125 410.525 -395.996 403.43C-397.875 396.306 -399.676 388.766 -400.379 384.795C-405.509 357.091 -404.508 327.316 -396.996 300.289C-389.486 273.275 -375.441 248.902 -354.369 232.121ZM-110.586 153.922L-110.583 153.92C-69.1985 132.047 -33.6709 131.735 -4.79502 133.635C-0.63865 133.909 3.3546 134.225 7.19431 134.529C16.7536 135.287 25.3613 135.969 33.1655 135.726C43.9851 135.389 52.8967 133.271 60.1462 127.201C67.1072 121.287 73.0726 115.125 76.4352 107.493C76.6336 106.961 77.1312 106.589 77.7075 106.427C78.2299 106.28 78.7242 106.325 79.0652 106.399C79.658 106.527 80.5952 106.945 80.8233 107.822C80.8818 108.047 80.9189 108.312 80.8807 108.613L80.88 108.618C80.737 109.705 80.6315 110.833 80.5216 112.008C80.1768 115.694 79.7879 119.851 78.0607 124.724C75.7632 131.205 71.1199 138.971 61.208 149.064C26.2735 184.724 -20.3755 183.066 -61.7567 181.152L-61.7599 181.152C-63.2385 181.081 -64.7156 181.01 -66.1912 180.939C-80.6814 180.239 -95.0359 179.545 -109.302 179.533L-109.311 179.533C-123.919 179.463 -134.254 181.462 -141.467 183.598C-145.079 184.668 -147.928 185.778 -150.171 186.7C-150.647 186.896 -151.111 187.09 -151.552 187.274C-152.125 187.513 -152.66 187.736 -153.13 187.926C-153.969 188.264 -154.763 188.564 -155.468 188.744C-156.253 188.945 -157.006 188.739 -157.489 188.375C-158.222 187.822 -158.413 186.84 -157.656 186.109C-151.831 180.493 -131.716 165.131 -110.586 153.922ZM-79.4904 236.836L-79.4874 236.834C-49.9975 218.153 -26.2874 214.069 -2.49349 209.971C0.771845 209.409 4.03877 208.846 7.32244 208.246C38.3144 202.538 52.0292 185.836 72.8922 160.43C73.5453 159.634 74.2054 158.831 74.8733 158.018C75.4424 157.326 76.7106 156.884 77.8592 157.437C78.5091 157.75 79.0986 158.379 79.041 159.189C77.0341 187.452 63.9871 210.71 31.2479 230.925L31.2441 230.927C2.37212 248.651 -25.2556 253.288 -54.1754 258.142C-59.9997 259.119 -65.8767 260.106 -71.8266 261.21C-86.7478 264.057 -96.3749 267.967 -104.59 273.914C-112.876 279.912 -119.805 288.031 -129.232 299.497L-130.611 298.777L-129.232 299.497C-129.882 300.287 -131.207 300.529 -132.196 300.08C-133.117 299.661 -133.282 298.861 -133.148 298.339C-133.063 298.01 -133.025 297.72 -132.98 297.363L-132.968 297.273L-132.941 297.184C-125.032 271.054 -108.981 255.604 -79.4904 236.836ZM50.6755 465.149L50.675 465.151C40.6832 489.325 22.2073 505.2 13.0316 512.81C10.8375 514.63 6.66447 513.8 6.30831 511.083C2.37407 485.422 3.52671 460.401 10.3384 436.296L10.3405 436.289C18.6659 407.566 34.2991 382.538 62.12 363.742C71.5578 357.223 82.4663 352.263 94.8776 349.209L94.8861 349.206C95.3092 349.104 95.7414 349.037 96.1414 348.987C97.2967 348.841 98.3408 349.281 98.9025 349.89C99.1943 350.206 99.447 350.668 99.3826 351.215C99.3125 351.81 98.8933 352.291 98.3258 352.596L97.415 351.498L98.3257 352.596L98.3013 352.61L98.2982 352.611L98.2966 352.612C96.3094 353.902 94.2762 355.13 92.2727 356.34C91.937 356.543 91.6022 356.746 91.2685 356.948C88.9326 358.362 86.6448 359.767 84.4537 361.27C71.1352 370.42 62.1513 381.659 60.1553 396.414C59.0707 404.627 58.7056 412.416 58.3474 420.056C58.1701 423.84 57.9944 427.587 57.734 431.331C56.9511 442.585 55.4023 453.676 50.6755 465.149ZM35.6136 37.6962L35.615 37.6936C41.4306 26.9221 51.2287 19.4827 60.4955 14.689C69.711 9.92173 78.5752 7.68358 82.714 7.44354C83.5293 7.39628 84.1246 7.74993 84.3971 7.95595C84.6872 8.17526 85.0748 8.575 85.1452 9.11751C85.1789 9.377 85.1399 9.65227 84.9982 9.92002C84.8661 10.1697 84.6828 10.3385 84.5818 10.4245C84.544 10.4567 84.5077 10.4853 84.4837 10.5041C84.1902 10.8827 83.8143 11.3093 83.3807 11.8011C82.0748 13.2828 80.2459 15.358 78.5732 18.504C76.3545 22.677 74.5376 28.6043 75.3661 36.7811L75.3666 36.7863C75.7576 40.8437 76.2798 44.6607 76.7798 48.316C76.8367 48.7318 76.8933 49.1455 76.9494 49.5573C77.4971 53.5785 77.9968 57.4166 78.223 61.1195C78.6761 68.5385 78.0389 75.4992 74.453 82.5473C64.9621 101.375 46.2439 111.537 21.3836 115.45L21.3562 115.454L21.3287 115.458C19.728 115.665 18.6577 114.818 18.2757 113.979C17.9115 113.178 18.0099 112.139 18.8172 111.338C24.9226 105.279 32.8506 96.9725 33.4431 84.2002C33.7242 78.1055 33.2006 72.3439 32.6941 66.7705C32.4754 64.3639 32.2599 61.9923 32.1138 59.6442C31.6344 51.9422 31.919 44.5789 35.6136 37.6962ZM-294.134 113.521L-294.134 113.521C-298.575 91.5315 -292.149 74.2452 -277.923 58.7164C-276.996 57.705 -275.546 56.9665 -274.097 56.9961C-273.315 57.0121 -272.451 57.2709 -271.903 57.9273C-271.389 58.5451 -271.351 59.2824 -271.512 59.9457C-272.951 66.1641 -272.79 72.2431 -270.374 78.7236C-269.852 80.1238 -269.247 81.6411 -268.599 83.2651C-262.936 97.4598 -254.02 119.809 -269.073 143.389L-269.076 143.393C-277.529 156.533 -289.171 167.525 -301.373 178.074L-301.383 178.083C-301.831 178.464 -302.469 178.666 -303.136 178.596C-303.727 178.535 -304.161 178.281 -304.43 178.045C-304.929 177.608 -305.332 176.776 -304.788 175.944C-304.649 175.732 -304.505 175.513 -304.355 175.286C-301.748 171.32 -297.591 164.998 -294.807 155.484C-291.863 145.424 -290.442 131.744 -294.134 113.521ZM-63.7828 204.024C-63.7893 204.027 -63.7866 204.026 -63.78 204.023L-63.7828 204.024ZM-134.676 692.808C-134.636 693.016 -134.49 693.153 -134.208 693.226C-133.889 693.308 -133.453 693.279 -133.075 693.078C-126.952 689.819 -121.057 686.381 -115.338 682.764C-110.605 679.771 -108.789 675.234 -109.482 671.924C-109.825 670.285 -110.753 669.053 -112.081 668.368C-113.385 667.695 -115.35 667.409 -118.159 668.101C-128.687 670.696 -137.169 679.557 -134.676 692.808Z" stroke="url(#paint1_linear_320_2360)" stroke-width="3" shape-rendering="crispEdges"/>
</g>
<defs>
<filter id="filter0_d_320_2360" x="-414.727" y="0.612793" width="597.094" height="768.301" filterUnits="userSpaceOnUse" color-interpolation-filters="sRGB">
<feFlood flood-opacity="0" result="BackgroundImageFix"/>
<feColorMatrix in="SourceAlpha" type="matrix" values="0 0 0 0 0 0 0 0 0 0 0 0 0 0 0 0 0 0 127 0" result="hardAlpha"/>
<feOffset dy="4"/>
<feGaussianBlur stdDeviation="4.75"/>
<feComposite in2="hardAlpha" operator="out"/>
<feColorMatrix type="matrix" values="0 0 0 0 0 0 0 0 0 0 0 0 0 0 0 0 0 0 0.37 0"/>
<feBlend mode="normal" in2="BackgroundImageFix" result="effect1_dropShadow_320_2360"/>
<feBlend mode="normal" in="SourceGraphic" in2="effect1_dropShadow_320_2360" result="shape"/>
</filter>
<linearGradient id="paint0_linear_320_2360" x1="-604.532" y1="337.562" x2="-208.662" y2="-252.733" gradientUnits="userSpaceOnUse">
<stop stop-color="#FF2020"/>
<stop offset="0.446" stop-color="#FF7B7D"/>
<stop offset="1" stop-color="#8F0C11"/>
</linearGradient>
<linearGradient id="paint1_linear_320_2360" x1="81.7074" y1="15.9131" x2="-0.658614" y2="503.417" gradientUnits="userSpaceOnUse">
<stop offset="0.025" stop-color="#FFC363"/>
<stop offset="0.5" stop-color="#FFE8C2"/>
<stop offset="0.995" stop-color="#955E07"/>
</linearGradient>
</defs>
</svg>
