<svg width="437" height="330" viewBox="0 0 437 330" fill="none" xmlns="http://www.w3.org/2000/svg">
<g opacity="0.52" filter="url(#filter0_f_320_2275)">
<mask id="path-1-outside-1_320_2275" maskUnits="userSpaceOnUse" x="-125.221" y="-547.449" width="1075.11" height="1086.8" fill="black">
<rect fill="white" x="-125.221" y="-547.449" width="1075.11" height="1086.8"/>
<path d="M402.715 -200.27C392.097 -187.64 396.838 -183.376 412.174 -189.462C431.051 -196.952 459.621 -201.408 499.967 -187.411C513.728 -182.614 526.998 -176.331 537.688 -164.825C564.865 -135.394 543.988 -101.546 513.963 -94.9881C457.46 -82.5484 352.504 -128.762 301.402 -86.2573C264.231 -55.2374 247.797 12.6504 259.799 65.063C259.93 65.6336 260.858 66.0154 261.05 65.4622C261.072 65.3984 261.081 65.3667 261.11 65.3055C261.327 64.8436 261.539 64.3868 261.675 64.0155C276.574 19.029 332.479 -37.7417 396.191 -51.4304C455.485 -64.1724 510.796 -41.7676 528.185 -23.9105C551.428 0.0681421 535.27 22.5545 519.758 31.4299C502.678 41.3526 478.014 36.7721 453.975 40.6345C428.278 44.9396 409.372 58.3065 397.313 79.7347C388.887 94.5632 383.426 117.97 382.501 127.08C382.357 128.495 383.719 128.999 384.833 128.115C390.93 122.716 396.561 116.9 402.921 111.912C518.956 21.0759 705.709 157.396 824.387 47.2045C866.917 7.7053 901.494 -57.8388 902.288 -121.769C902.286 -123.026 902.214 -124.205 902.135 -125.376C902.118 -125.625 901.953 -125.838 901.73 -125.949C901.505 -126.06 901.24 -125.992 901.08 -125.799C900.5 -125.103 899.997 -124.338 899.494 -123.572C895.173 -116.407 889.542 -110.591 882.863 -105.714C857.133 -87.0747 814.426 -83.4708 745.086 -131.233C700.519 -161.88 686.524 -184.93 637.832 -213.316C531.483 -275.318 433.27 -237.185 402.715 -200.27ZM847.962 -42.387C849.841 -42.2239 850.647 -40.0624 849.753 -38.4009C846.449 -32.2566 842.91 -26.3159 839.142 -20.5308C832.188 -9.85306 815.619 -10.4378 817.972 -22.9612C820.108 -34.3333 830.793 -43.8452 847.962 -42.387ZM268.268 -216.849C304.134 -259.691 379.468 -278.383 447.312 -272.778C456.969 -272.043 484.48 -268.161 490.463 -266.517C490.655 -266.464 490.781 -266.305 490.81 -266.107C490.849 -265.837 490.687 -265.586 490.418 -265.533C479.407 -263.39 446.341 -259.787 411.719 -240.553C382.495 -224.342 362.502 -200.387 353.224 -167.533C350.509 -157.876 346.199 -150.36 341.352 -144.618C330.096 -131.283 325.606 -142.867 324.015 -160.244C323.33 -169.792 314.392 -176.924 297.886 -171.392C260.631 -158.874 246.296 -107.251 183.673 -103.449C179.34 -103.209 167.993 -103.698 162.725 -104.738C162.527 -104.777 162.358 -104.912 162.322 -105.11C162.26 -105.453 162.425 -105.839 162.737 -105.993C169.125 -109.122 185.872 -114.45 208.014 -135.07C231.849 -156.984 242.152 -185.592 268.268 -216.849ZM409.609 216.006C401.387 237.369 389.259 270.123 355.555 284.07C333.966 292.931 310.962 290.013 287.305 279.153C273.432 272.8 260.155 263.711 249.713 254.406C249.559 254.268 249.548 254.046 249.665 253.875C249.795 253.687 250.034 253.536 250.248 253.619C250.783 253.826 251.351 254.085 251.79 254.34C281.769 272.441 328.841 270.996 345.473 219.855C367.514 151.663 447.707 83.0188 555.402 98.0513C555.899 98.1291 556.464 98.1099 557.033 98.1162C559.804 98.1467 559.213 101.221 556.475 101.644C556.357 101.662 556.243 101.676 556.135 101.686C524.768 105.29 497.28 116.048 473.117 132.938C439.457 156.21 422.201 182.968 409.609 216.006ZM183.329 193.175C211.305 161.482 154.4 108.044 198.515 25.2937C209.877 4.07214 226.345 -16.4828 232.442 -22.4558C232.6 -22.6112 232.842 -22.6059 233.008 -22.4578C233.115 -22.3612 233.169 -22.2233 233.139 -22.0818C232.191 -17.5888 223.465 -4.81915 226.658 23.8819C228.283 39.1772 230.926 54.5084 233.481 69.9367C240.033 109.967 246.591 154.208 207.603 190.223C185.394 210.792 172.541 210.137 161.379 212.048C161.212 212.077 161.051 212.07 160.883 212.045C160.371 211.967 160.01 211.068 160.505 210.915C169.744 206.931 176.799 200.463 183.329 193.175ZM222.568 206.319C222.295 206.353 222.026 206.208 221.864 205.987C221.685 205.744 221.758 205.42 221.996 205.235C252.059 181.928 272.596 167.009 276.565 134.816C279.835 107.965 280.025 82.9092 302.124 49.1041C321.758 19.2219 338.595 2.77441 368.992 -6.77805C369.416 -6.84897 369.839 -6.91988 370.317 -7.05188C370.47 -7.09403 370.646 -7.0541 370.737 -6.92451C370.898 -6.69427 370.846 -6.34134 370.624 -6.16898C344.824 13.8351 333.403 23.7098 329.492 53.4794C325.103 88.6119 325.563 120.207 303.524 155.116C282.623 188.009 256.188 202.228 222.568 206.319ZM641.926 111.634C643.781 111.7 644.676 113.997 643.455 115.394C635.185 124.857 618.034 143.717 590.156 155.118C563.686 165.912 537.661 164.491 508.128 169.563C489.961 172.73 476.922 182.595 467.001 196.48C463.744 201.048 461.032 205.932 457.895 210.606C457.857 210.664 457.833 210.705 457.8 210.766C457.342 211.601 456.191 210.823 456.239 209.873C456.257 209.51 456.289 209.159 456.351 208.836C458.744 196.79 463.553 186.033 470.37 176.549C490.065 148.474 518.473 131.533 552.213 121.297C580.548 112.874 610.579 109.825 641.926 111.634ZM41.5246 223.904C41.2475 223.888 40.8618 223.566 40.8525 223.288C40.6068 215.951 47.6468 189.298 71.8813 176.707C87.133 168.825 106.215 173.308 127.466 171.152C143.42 169.529 153.001 160.895 159.759 154.473C160.652 153.624 162.371 154.009 162.301 155.24C160.132 179.223 149.957 197.61 128.691 207.986C112.915 215.75 96.2493 212.554 74.0346 212.271C53.539 211.929 45.037 221.379 42.0919 223.499C41.8553 223.67 41.8158 223.921 41.5246 223.904ZM66.313 -125.74C64.0733 -125.142 63.9829 -127.601 65.7386 -129.114C82.7908 -143.817 102.654 -151.226 129.282 -148.678C174.609 -144.317 195.88 -158.51 204.854 -164.09C205.333 -164.388 206.075 -163.842 205.699 -163.421C194.177 -150.796 182.159 -138.79 167.288 -129.691C137.806 -111.786 107.229 -122.189 89.9513 -126.108C81.5741 -128.008 73.9276 -127.677 66.313 -125.74Z"/>
</mask>
<path d="M402.715 -200.27C392.097 -187.64 396.838 -183.376 412.174 -189.462C431.051 -196.952 459.621 -201.408 499.967 -187.411C513.728 -182.614 526.998 -176.331 537.688 -164.825C564.865 -135.394 543.988 -101.546 513.963 -94.9881C457.46 -82.5484 352.504 -128.762 301.402 -86.2573C264.231 -55.2374 247.797 12.6504 259.799 65.063C259.93 65.6336 260.858 66.0154 261.05 65.4622C261.072 65.3984 261.081 65.3667 261.11 65.3055C261.327 64.8436 261.539 64.3868 261.675 64.0155C276.574 19.029 332.479 -37.7417 396.191 -51.4304C455.485 -64.1724 510.796 -41.7676 528.185 -23.9105C551.428 0.0681421 535.27 22.5545 519.758 31.4299C502.678 41.3526 478.014 36.7721 453.975 40.6345C428.278 44.9396 409.372 58.3065 397.313 79.7347C388.887 94.5632 383.426 117.97 382.501 127.08C382.357 128.495 383.719 128.999 384.833 128.115C390.93 122.716 396.561 116.9 402.921 111.912C518.956 21.0759 705.709 157.396 824.387 47.2045C866.917 7.7053 901.494 -57.8388 902.288 -121.769C902.286 -123.026 902.214 -124.205 902.135 -125.376C902.118 -125.625 901.953 -125.838 901.73 -125.949C901.505 -126.06 901.24 -125.992 901.08 -125.799C900.5 -125.103 899.997 -124.338 899.494 -123.572C895.173 -116.407 889.542 -110.591 882.863 -105.714C857.133 -87.0747 814.426 -83.4708 745.086 -131.233C700.519 -161.88 686.524 -184.93 637.832 -213.316C531.483 -275.318 433.27 -237.185 402.715 -200.27ZM847.962 -42.387C849.841 -42.2239 850.647 -40.0624 849.753 -38.4009C846.449 -32.2566 842.91 -26.3159 839.142 -20.5308C832.188 -9.85306 815.619 -10.4378 817.972 -22.9612C820.108 -34.3333 830.793 -43.8452 847.962 -42.387ZM268.268 -216.849C304.134 -259.691 379.468 -278.383 447.312 -272.778C456.969 -272.043 484.48 -268.161 490.463 -266.517C490.655 -266.464 490.781 -266.305 490.81 -266.107C490.849 -265.837 490.687 -265.586 490.418 -265.533C479.407 -263.39 446.341 -259.787 411.719 -240.553C382.495 -224.342 362.502 -200.387 353.224 -167.533C350.509 -157.876 346.199 -150.36 341.352 -144.618C330.096 -131.283 325.606 -142.867 324.015 -160.244C323.33 -169.792 314.392 -176.924 297.886 -171.392C260.631 -158.874 246.296 -107.251 183.673 -103.449C179.34 -103.209 167.993 -103.698 162.725 -104.738C162.527 -104.777 162.358 -104.912 162.322 -105.11C162.26 -105.453 162.425 -105.839 162.737 -105.993C169.125 -109.122 185.872 -114.45 208.014 -135.07C231.849 -156.984 242.152 -185.592 268.268 -216.849ZM409.609 216.006C401.387 237.369 389.259 270.123 355.555 284.07C333.966 292.931 310.962 290.013 287.305 279.153C273.432 272.8 260.155 263.711 249.713 254.406C249.559 254.268 249.548 254.046 249.665 253.875C249.795 253.687 250.034 253.536 250.248 253.619C250.783 253.826 251.351 254.085 251.79 254.34C281.769 272.441 328.841 270.996 345.473 219.855C367.514 151.663 447.707 83.0188 555.402 98.0513C555.899 98.1291 556.464 98.1099 557.033 98.1162C559.804 98.1467 559.213 101.221 556.475 101.644C556.357 101.662 556.243 101.676 556.135 101.686C524.768 105.29 497.28 116.048 473.117 132.938C439.457 156.21 422.201 182.968 409.609 216.006ZM183.329 193.175C211.305 161.482 154.4 108.044 198.515 25.2937C209.877 4.07214 226.345 -16.4828 232.442 -22.4558C232.6 -22.6112 232.842 -22.6059 233.008 -22.4578C233.115 -22.3612 233.169 -22.2233 233.139 -22.0818C232.191 -17.5888 223.465 -4.81915 226.658 23.8819C228.283 39.1772 230.926 54.5084 233.481 69.9367C240.033 109.967 246.591 154.208 207.603 190.223C185.394 210.792 172.541 210.137 161.379 212.048C161.212 212.077 161.051 212.07 160.883 212.045C160.371 211.967 160.01 211.068 160.505 210.915C169.744 206.931 176.799 200.463 183.329 193.175ZM222.568 206.319C222.295 206.353 222.026 206.208 221.864 205.987C221.685 205.744 221.758 205.42 221.996 205.235C252.059 181.928 272.596 167.009 276.565 134.816C279.835 107.965 280.025 82.9092 302.124 49.1041C321.758 19.2219 338.595 2.77441 368.992 -6.77805C369.416 -6.84897 369.839 -6.91988 370.317 -7.05188C370.47 -7.09403 370.646 -7.0541 370.737 -6.92451C370.898 -6.69427 370.846 -6.34134 370.624 -6.16898C344.824 13.8351 333.403 23.7098 329.492 53.4794C325.103 88.6119 325.563 120.207 303.524 155.116C282.623 188.009 256.188 202.228 222.568 206.319ZM641.926 111.634C643.781 111.7 644.676 113.997 643.455 115.394C635.185 124.857 618.034 143.717 590.156 155.118C563.686 165.912 537.661 164.491 508.128 169.563C489.961 172.73 476.922 182.595 467.001 196.48C463.744 201.048 461.032 205.932 457.895 210.606C457.857 210.664 457.833 210.705 457.8 210.766C457.342 211.601 456.191 210.823 456.239 209.873C456.257 209.51 456.289 209.159 456.351 208.836C458.744 196.79 463.553 186.033 470.37 176.549C490.065 148.474 518.473 131.533 552.213 121.297C580.548 112.874 610.579 109.825 641.926 111.634ZM41.5246 223.904C41.2475 223.888 40.8618 223.566 40.8525 223.288C40.6068 215.951 47.6468 189.298 71.8813 176.707C87.133 168.825 106.215 173.308 127.466 171.152C143.42 169.529 153.001 160.895 159.759 154.473C160.652 153.624 162.371 154.009 162.301 155.24C160.132 179.223 149.957 197.61 128.691 207.986C112.915 215.75 96.2493 212.554 74.0346 212.271C53.539 211.929 45.037 221.379 42.0919 223.499C41.8553 223.67 41.8158 223.921 41.5246 223.904ZM66.313 -125.74C64.0733 -125.142 63.9829 -127.601 65.7386 -129.114C82.7908 -143.817 102.654 -151.226 129.282 -148.678C174.609 -144.317 195.88 -158.51 204.854 -164.09C205.333 -164.388 206.075 -163.842 205.699 -163.421C194.177 -150.796 182.159 -138.79 167.288 -129.691C137.806 -111.786 107.229 -122.189 89.9513 -126.108C81.5741 -128.008 73.9276 -127.677 66.313 -125.74Z" fill="#FFDB66" fill-opacity="0.18"/>
<path d="M499.967 -187.411L500.955 -190.243L500.95 -190.245L499.967 -187.411ZM537.688 -164.825L539.892 -166.861L539.886 -166.867L537.688 -164.825ZM513.963 -94.9881L513.323 -97.919L513.318 -97.9179L513.963 -94.9881ZM301.402 -86.2573L299.484 -88.5638L299.48 -88.5606L301.402 -86.2573ZM261.675 64.0155L264.493 65.0455L264.509 65.0023L264.523 64.9587L261.675 64.0155ZM396.191 -51.4304L396.821 -48.4973L396.821 -48.4974L396.191 -51.4304ZM528.185 -23.9105L530.339 -25.9985L530.334 -26.0034L528.185 -23.9105ZM519.758 31.4299L518.269 28.826L518.26 28.8309L518.251 28.8359L519.758 31.4299ZM453.975 40.6345L453.499 37.6725L453.489 37.674L453.479 37.6757L453.975 40.6345ZM397.313 79.7347L399.921 81.2167L399.927 81.206L397.313 79.7347ZM402.921 111.912L401.071 109.55L401.069 109.552L402.921 111.912ZM824.387 47.2045L826.428 49.403L826.428 49.4027L824.387 47.2045ZM902.288 -121.769L905.288 -121.732L905.288 -121.753L905.288 -121.775L902.288 -121.769ZM899.494 -123.572L896.987 -125.221L896.955 -125.172L896.924 -125.121L899.494 -123.572ZM882.863 -105.714L884.623 -103.285L884.632 -103.291L882.863 -105.714ZM745.086 -131.233L746.788 -133.704L746.786 -133.705L745.086 -131.233ZM637.832 -213.316L636.321 -210.725L636.321 -210.725L637.832 -213.316ZM268.268 -216.849L265.968 -218.775L265.966 -218.773L268.268 -216.849ZM447.312 -272.778L447.065 -269.788L447.075 -269.788L447.084 -269.787L447.312 -272.778ZM411.719 -240.553L413.174 -237.929L413.176 -237.93L411.719 -240.553ZM353.224 -167.533L350.337 -168.348L350.336 -168.345L353.224 -167.533ZM297.886 -171.392L296.932 -174.237L296.93 -174.236L297.886 -171.392ZM183.673 -103.449L183.839 -100.453L183.847 -100.454L183.855 -100.454L183.673 -103.449ZM208.014 -135.07L205.984 -137.278L205.977 -137.272L205.97 -137.265L208.014 -135.07ZM409.609 216.006L412.409 217.084L412.412 217.075L409.609 216.006ZM355.555 284.07L356.694 286.845L356.702 286.842L355.555 284.07ZM287.305 279.153L288.556 276.426L288.554 276.425L287.305 279.153ZM251.79 254.34L253.34 251.771L253.317 251.757L253.293 251.744L251.79 254.34ZM345.473 219.855L348.326 220.783L348.328 220.778L345.473 219.855ZM555.402 98.0513L555.865 95.0873L555.841 95.0835L555.816 95.0801L555.402 98.0513ZM556.135 101.686L555.866 98.6983L555.829 98.7016L555.792 98.7058L556.135 101.686ZM473.117 132.938L474.823 135.406L474.829 135.401L474.835 135.397L473.117 132.938ZM183.329 193.175L185.563 195.177L185.571 195.169L185.578 195.161L183.329 193.175ZM198.515 25.2937L195.87 23.8777L195.867 23.8824L198.515 25.2937ZM226.658 23.8819L229.641 23.565L229.641 23.5576L229.64 23.5502L226.658 23.8819ZM233.481 69.9367L236.442 69.4522L236.441 69.4465L233.481 69.9367ZM207.603 190.223L205.567 188.02L205.564 188.022L207.603 190.223ZM161.379 212.048L161.875 215.007L161.885 215.005L161.379 212.048ZM276.565 134.816L279.543 135.183L279.543 135.179L276.565 134.816ZM302.124 49.1041L299.617 47.4567L299.613 47.4626L302.124 49.1041ZM368.992 -6.77805L368.497 -9.73682L368.291 -9.70244L368.093 -9.64007L368.992 -6.77805ZM329.492 53.4794L326.518 53.0886L326.516 53.0981L326.515 53.1075L329.492 53.4794ZM303.524 155.116L306.056 156.725L306.061 156.718L303.524 155.116ZM590.156 155.118L591.289 157.896L591.292 157.895L590.156 155.118ZM508.128 169.563L507.62 166.606L507.613 166.607L508.128 169.563ZM467.001 196.48L464.56 194.736L464.559 194.738L467.001 196.48ZM456.351 208.836L453.409 208.251L453.407 208.259L453.406 208.267L456.351 208.836ZM470.37 176.549L472.806 178.301L472.816 178.287L472.826 178.272L470.37 176.549ZM552.213 121.297L551.359 118.421L551.35 118.423L551.342 118.426L552.213 121.297ZM71.8813 176.707L70.504 174.042L70.4982 174.045L71.8813 176.707ZM127.466 171.152L127.768 174.136L127.769 174.136L127.466 171.152ZM128.691 207.986L127.375 205.29L127.366 205.295L128.691 207.986ZM74.0346 212.271L73.9846 215.27L73.9964 215.271L74.0346 212.271ZM129.282 -148.678L129.57 -151.664L129.568 -151.664L129.282 -148.678ZM167.288 -129.691L168.845 -127.127L168.853 -127.132L167.288 -129.691ZM89.9513 -126.108L90.6148 -129.034L89.9513 -126.108ZM65.7386 -129.114L67.6976 -126.842L65.7386 -129.114ZM42.0919 223.499L43.8448 225.934L42.0919 223.499ZM159.759 154.473L157.692 152.299L159.759 154.473ZM457.895 210.606L460.386 212.278L457.895 210.606ZM643.455 115.394L645.714 117.368L643.455 115.394ZM221.996 205.235L220.158 202.864L221.996 205.235ZM233.139 -22.0818L236.075 -21.4623L233.139 -22.0818ZM370.624 -6.16898L372.462 -3.79815L370.624 -6.16898ZM204.854 -164.09L206.438 -161.543L204.854 -164.09ZM250.248 253.619L249.164 256.416L250.248 253.619ZM901.08 -125.799L903.387 -123.882L901.08 -125.799ZM370.317 -7.05188L371.115 -4.16009L370.317 -7.05188ZM249.713 254.406L251.71 252.166L249.713 254.406ZM222.568 206.319L222.205 203.341L222.568 206.319ZM162.737 -105.993L161.418 -108.687L162.737 -105.993ZM162.725 -104.738L163.306 -107.681L162.725 -104.738ZM817.972 -22.9612L820.92 -22.4073L817.972 -22.9612ZM557.033 98.1162L557.066 95.1164L557.033 98.1162ZM556.475 101.644L556.933 104.609L556.475 101.644ZM849.753 -38.4009L852.395 -36.98L849.753 -38.4009ZM261.11 65.3055L258.395 64.03L261.11 65.3055ZM232.442 -22.4558L234.541 -20.3128L232.442 -22.4558ZM490.418 -265.533L490.992 -262.589L490.418 -265.533ZM456.239 209.873L459.235 210.023L456.239 209.873ZM490.463 -266.517L491.258 -269.41L490.463 -266.517ZM902.135 -125.376L899.142 -125.174L902.135 -125.376ZM160.883 212.045L160.434 215.011L160.883 212.045ZM382.501 127.08L385.486 127.383L382.501 127.08ZM259.799 65.063L262.723 64.3934L259.799 65.063ZM40.8525 223.288L43.8508 223.188L40.8525 223.288ZM341.352 -144.618L343.645 -142.683L341.352 -144.618ZM412.174 -189.462L411.068 -192.25L412.174 -189.462ZM413.281 -186.673C431.484 -193.896 459.313 -198.34 498.984 -184.576L500.95 -190.245C459.93 -204.477 430.618 -200.007 411.068 -192.25L413.281 -186.673ZM498.98 -184.578C512.558 -179.845 525.288 -173.763 535.49 -162.783L539.886 -166.867C528.707 -178.898 514.899 -185.383 500.955 -190.243L498.98 -184.578ZM535.484 -162.79C548.322 -148.887 549.597 -134.317 544.52 -122.515C539.363 -110.525 527.48 -101.011 513.323 -97.919L514.603 -92.0572C530.47 -95.523 544.039 -106.212 550.032 -120.144C556.106 -134.264 554.231 -151.333 539.892 -166.861L535.484 -162.79ZM513.318 -97.9179C499.687 -94.917 482.936 -95.4239 464.407 -97.3372C445.748 -99.2641 426.143 -102.499 406.009 -104.876C386.109 -107.225 366.168 -108.662 347.921 -106.788C329.66 -104.913 312.873 -99.7004 299.483 -88.5637L303.32 -83.9509C315.482 -94.0665 330.978 -99.0166 348.534 -100.819C366.105 -102.624 385.516 -101.254 405.305 -98.9177C424.861 -96.6092 445.283 -93.2802 463.791 -91.369C482.43 -89.4442 499.987 -88.8393 514.608 -92.0582L513.318 -97.9179ZM299.48 -88.5606C280.271 -72.5307 266.618 -47.1746 259.261 -19.3872C251.896 8.42808 250.753 38.999 256.875 65.7326L262.723 64.3934C256.843 38.7144 257.916 9.13512 265.061 -17.8516C272.213 -44.8662 285.362 -68.964 303.324 -83.954L299.48 -88.5606ZM263.825 66.5811C264.029 66.1486 264.303 65.5657 264.493 65.0455L258.858 62.9856C258.776 63.2079 258.626 63.5385 258.395 64.03L263.825 66.5811ZM264.523 64.9587C271.767 43.0848 289.109 18.0624 312.64 -3.21912C336.15 -24.4811 365.595 -41.7883 396.821 -48.4973L395.56 -54.3635C363.075 -47.3838 332.711 -29.4614 308.616 -7.66913C284.542 14.1034 266.482 39.9597 258.827 63.0724L264.523 64.9587ZM396.821 -48.4974C425.934 -54.7536 454.1 -52.3847 477.129 -46.2463C500.255 -40.0825 517.858 -30.2146 526.035 -21.8176L530.334 -26.0034C521.122 -35.4635 502.376 -45.7266 478.675 -52.0439C454.878 -58.3867 425.741 -60.8492 395.56 -54.3634L396.821 -48.4974ZM526.03 -21.8225C536.987 -10.519 538.343 -0.0238347 535.644 8.5198C532.859 17.3356 525.571 24.6478 518.269 28.826L521.248 34.0338C529.458 29.3366 538.004 20.968 541.365 10.327C544.812 -0.586016 542.625 -13.3234 530.339 -25.9985L526.03 -21.8225ZM518.251 28.8359C510.384 33.4065 500.589 34.7328 489.323 35.3087C478.283 35.8731 465.731 35.7071 453.499 37.6725L454.45 43.5965C466.258 41.6994 478.058 41.8925 489.629 41.3009C500.976 40.7208 512.053 39.376 521.265 34.0239L518.251 28.8359ZM453.479 37.6757C426.911 42.1269 407.214 56.0245 394.698 78.2633L399.927 81.206C411.531 60.5885 429.646 47.7523 454.47 43.5932L453.479 37.6757ZM394.704 78.2526C390.324 85.962 386.774 95.7768 384.21 104.725C381.646 113.675 380.002 121.988 379.516 126.777L385.486 127.383C385.924 123.062 387.474 115.117 389.978 106.378C392.482 97.6386 395.876 88.3359 399.921 81.2167L394.704 78.2526ZM386.822 130.361C393.177 124.734 398.477 119.21 404.772 114.273L401.069 109.552C394.645 114.59 388.683 120.699 382.845 125.869L386.822 130.361ZM404.77 114.274C433.135 92.0692 465.892 83.6691 501.182 81.9722C536.554 80.2714 574.193 85.3077 612.312 89.7958C688.147 98.7247 765.94 105.565 826.428 49.403L822.345 45.006C764.155 99.035 689.233 92.8112 613.013 83.837C575.105 79.3737 536.881 74.2487 500.894 75.9791C464.824 77.7135 430.724 86.3369 401.071 109.55L404.77 114.274ZM826.428 49.4027C869.462 9.43611 904.482 -56.8552 905.288 -121.732L899.288 -121.807C898.506 -58.8225 864.372 5.97449 822.345 45.0063L826.428 49.4027ZM905.288 -121.775C905.286 -123.138 905.208 -124.401 905.128 -125.579L899.142 -125.174C899.22 -124.01 899.286 -122.915 899.288 -121.764L905.288 -121.775ZM898.773 -127.717C898.068 -126.87 897.474 -125.962 896.987 -125.221L902 -121.924C902.519 -122.713 902.933 -123.336 903.387 -123.882L898.773 -127.717ZM896.924 -125.121C892.837 -118.342 887.496 -112.812 881.094 -108.137L884.632 -103.291C891.588 -108.37 897.509 -114.471 902.063 -122.023L896.924 -125.121ZM881.103 -108.144C868.865 -99.2782 852.517 -93.9008 830.69 -96.5511C808.775 -99.2121 781.222 -109.985 746.788 -133.704L743.385 -128.762C778.291 -104.719 806.761 -93.4125 829.967 -90.5948C853.261 -87.7664 871.131 -93.5107 884.623 -103.285L881.103 -108.144ZM746.786 -133.705C724.673 -148.911 710.176 -162.205 694.971 -175.389C679.747 -188.589 663.917 -201.582 639.343 -215.908L636.321 -210.725C660.439 -196.664 675.952 -183.939 691.041 -170.856C706.148 -157.756 720.933 -144.201 743.387 -128.761L746.786 -133.705ZM639.343 -215.908C531.833 -278.587 431.972 -240.322 400.404 -202.183L405.026 -198.357C434.567 -234.047 531.133 -272.05 636.321 -210.725L639.343 -215.908ZM847.111 -39.8218C843.848 -33.7544 840.352 -27.8858 836.628 -22.168L841.656 -18.8937C845.467 -24.746 849.05 -30.7588 852.395 -36.98L847.111 -39.8218ZM820.92 -22.4073C822.741 -32.1005 831.899 -40.7404 847.708 -39.3978L848.216 -45.3762C829.686 -46.95 817.475 -36.5661 815.023 -23.5152L820.92 -22.4073ZM270.568 -214.923C287.996 -235.74 315.193 -250.877 346.643 -260.103C378.061 -269.319 413.483 -272.563 447.065 -269.788L447.559 -275.768C413.296 -278.598 377.13 -275.299 344.954 -265.86C312.809 -256.431 284.406 -240.8 265.968 -218.775L270.568 -214.923ZM447.084 -269.787C451.806 -269.427 461.013 -268.286 469.839 -267.019C478.738 -265.742 486.899 -264.385 489.668 -263.624L491.258 -269.41C488.044 -270.293 479.458 -271.7 470.691 -272.958C461.851 -274.227 452.475 -275.394 447.54 -275.769L447.084 -269.787ZM489.845 -268.478C479.041 -266.375 445.401 -262.696 410.262 -243.175L413.176 -237.93C447.281 -256.877 479.772 -260.405 490.992 -262.589L489.845 -268.478ZM410.264 -243.176C380.382 -226.6 359.845 -202.016 350.337 -168.348L356.111 -166.717C365.16 -198.759 384.609 -222.084 413.174 -237.929L410.264 -243.176ZM350.336 -168.345C347.738 -159.105 343.633 -151.971 339.06 -146.553L343.645 -142.683C348.765 -148.748 353.28 -156.646 356.112 -166.721L350.336 -168.345ZM327.007 -160.459C326.599 -166.148 323.682 -171.312 318.27 -174.133C312.93 -176.917 305.665 -177.164 296.932 -174.237L298.839 -168.548C306.612 -171.153 312.07 -170.599 315.496 -168.813C318.852 -167.064 320.746 -163.888 321.023 -160.029L327.007 -160.459ZM296.93 -174.236C287.077 -170.925 278.846 -165.062 271.147 -158.281C267.297 -154.891 263.544 -151.238 259.783 -147.534C256.006 -143.813 252.227 -140.048 248.249 -136.349C232.437 -121.641 213.828 -108.285 183.491 -106.443L183.855 -100.454C216.141 -102.415 236.011 -116.771 252.336 -131.956C256.393 -135.729 260.251 -139.573 263.994 -143.259C267.752 -146.96 271.401 -150.509 275.112 -153.779C282.536 -160.316 290.067 -165.601 298.841 -168.549L296.93 -174.236ZM183.507 -106.444C179.362 -106.215 168.273 -106.701 163.306 -107.681L162.144 -101.795C167.712 -100.696 179.319 -100.203 183.839 -100.453L183.507 -106.444ZM164.057 -103.299C170.248 -106.331 187.509 -111.875 210.059 -132.874L205.97 -137.265C184.235 -117.025 168.003 -111.913 161.418 -108.687L164.057 -103.299ZM210.045 -132.861C222.274 -144.105 230.986 -157.03 239.813 -170.84C248.672 -184.7 257.663 -199.477 270.57 -214.926L265.966 -218.773C252.757 -202.964 243.538 -187.808 234.758 -174.071C225.946 -160.285 217.589 -147.948 205.984 -137.278L210.045 -132.861ZM406.809 214.929C398.517 236.474 386.757 267.912 354.407 281.298L356.702 286.842C391.762 272.335 404.257 238.265 412.409 217.084L406.809 214.929ZM354.415 281.295C333.839 289.74 311.735 287.067 288.556 276.426L286.053 281.879C310.188 292.959 334.093 296.122 356.694 286.845L354.415 281.295ZM288.554 276.425C274.983 270.211 261.953 261.296 251.71 252.166L247.717 256.645C258.356 266.127 271.881 275.39 286.056 281.88L288.554 276.425ZM249.164 256.416C249.605 256.587 250.022 256.782 250.286 256.936L253.293 251.744C252.68 251.388 251.961 251.065 251.332 250.822L249.164 256.416ZM250.239 256.908C265.791 266.298 285.873 270.694 304.378 265.97C323.056 261.203 339.72 247.244 348.326 220.783L342.62 218.928C334.593 243.608 319.406 255.942 302.894 260.157C286.211 264.415 267.768 260.483 253.34 251.771L250.239 256.908ZM348.328 220.778C369.956 153.865 448.843 86.2064 554.987 101.023L555.816 95.0801C446.571 79.8311 365.073 149.461 342.619 218.933L348.328 220.778ZM554.938 101.015C555.718 101.137 556.644 101.112 557 101.116L557.066 95.1164C556.284 95.1078 556.08 95.1209 555.865 95.0873L554.938 101.015ZM556.016 98.6792C555.952 98.6891 555.902 98.695 555.866 98.6983L556.404 104.674C556.584 104.658 556.762 104.635 556.933 104.609L556.016 98.6792ZM555.792 98.7058C523.926 102.367 495.966 113.306 471.398 130.479L474.835 135.397C498.594 118.789 525.609 108.213 556.477 104.667L555.792 98.7058ZM471.411 130.47C437.15 154.157 419.566 181.46 406.806 214.938L412.412 217.075C424.837 184.476 441.763 158.262 474.823 135.406L471.411 130.47ZM185.578 195.161C193.296 186.417 195.035 176.217 194.294 165.012C193.567 154.013 190.372 141.375 187.818 127.825C182.664 100.482 179.56 67.2255 201.162 26.705L195.867 23.8824C173.354 66.1125 176.646 100.95 181.922 128.937C184.583 143.052 187.611 154.888 188.307 165.408C188.989 175.722 187.35 184.087 181.08 191.19L185.578 195.161ZM201.16 26.7097C212.393 5.7276 228.684 -14.575 234.541 -20.3128L230.342 -24.5988C224.005 -18.3906 207.36 2.41666 195.87 23.8777L201.16 26.7097ZM230.204 -22.7011C230.14 -22.3974 229.98 -21.9033 229.66 -21.0764C229.334 -20.2359 228.971 -19.3656 228.488 -18.1447C227.563 -15.8067 226.435 -12.7661 225.441 -8.92994C223.45 -1.23861 222.039 9.49626 223.676 24.2137L229.64 23.5502C228.084 9.5665 229.439 -0.433966 231.25 -7.42596C232.157 -10.9315 233.189 -13.7195 234.067 -15.9363C234.485 -16.9929 234.934 -18.0816 235.255 -18.9115C235.582 -19.755 235.902 -20.6428 236.075 -21.4623L230.204 -22.7011ZM223.675 24.1989C225.311 39.6016 227.972 55.034 230.522 70.4269L236.441 69.4465C233.879 53.9826 231.255 38.7527 229.641 23.565L223.675 24.1989ZM230.521 70.4212C237.097 110.602 243.247 153.213 205.567 188.02L209.638 192.427C249.935 155.203 242.969 109.332 236.442 69.4522L230.521 70.4212ZM205.564 188.022C194.692 198.091 186.265 202.825 179.336 205.308C172.281 207.836 166.813 208.074 160.873 209.092L161.885 215.005C167.107 214.111 173.646 213.721 181.36 210.956C189.2 208.147 198.304 202.924 209.641 192.424L205.564 188.022ZM160.883 209.09C161.113 209.051 161.285 209.071 161.332 209.079L160.434 215.011C160.817 215.069 161.31 215.102 161.875 215.007L160.883 209.09ZM161.693 213.67C171.519 209.432 178.92 202.592 185.563 195.177L181.095 191.173C174.678 198.335 167.97 204.429 159.317 208.16L161.693 213.67ZM223.834 207.606C253.661 184.482 275.394 168.828 279.543 135.183L273.588 134.449C269.797 165.191 250.458 179.373 220.158 202.864L223.834 207.606ZM279.543 135.179C282.833 108.16 282.989 83.8577 304.635 50.7456L299.613 47.4626C277.061 81.9607 276.836 107.77 273.587 134.453L279.543 135.179ZM304.631 50.7515C324.053 21.1932 340.395 5.35319 369.892 -3.91605L368.093 -9.64007C336.794 0.195602 319.464 17.2506 299.617 47.4567L304.631 50.7515ZM369.488 -3.8193C369.903 -3.88874 370.469 -3.98152 371.115 -4.16009L369.518 -9.94364C369.209 -9.85825 368.929 -9.8092 368.497 -9.73682L369.488 -3.8193ZM368.786 -8.53983C355.95 1.41291 346.308 9.12001 339.457 18.1841C332.5 27.3877 328.523 37.8273 326.518 53.0886L332.467 53.8702C334.373 39.362 338.062 29.9793 344.243 21.8022C350.53 13.4855 359.499 6.25318 372.462 -3.79815L368.786 -8.53983ZM326.515 53.1075C322.075 88.6461 322.571 119.326 300.987 153.515L306.061 156.718C328.555 121.087 328.13 88.5778 332.469 53.8514L326.515 53.1075ZM300.992 153.508C280.61 185.584 255.004 199.35 222.205 203.341L222.93 209.298C257.371 205.107 284.637 190.434 306.056 156.725L300.992 153.508ZM641.196 113.42C633.004 122.793 616.232 141.213 589.021 152.341L591.292 157.895C619.837 146.221 637.366 126.92 645.714 117.368L641.196 113.42ZM589.024 152.34C576.153 157.588 563.336 159.892 549.932 161.508C536.646 163.109 522.471 164.056 507.62 166.606L508.636 172.52C523.318 169.998 536.922 169.119 550.65 167.465C564.258 165.824 577.69 163.441 591.289 157.896L589.024 152.34ZM507.613 166.607C488.526 169.935 474.847 180.339 464.56 194.736L469.442 198.224C478.997 184.852 491.395 175.526 508.643 172.518L507.613 166.607ZM464.559 194.738C462.87 197.106 461.335 199.539 459.855 201.919C458.361 204.322 456.936 206.653 455.404 208.934L460.386 212.278C461.992 209.885 463.49 207.437 464.951 205.087C466.425 202.715 467.875 200.422 469.444 198.222L464.559 194.738ZM459.235 210.023C459.25 209.727 459.272 209.532 459.297 209.404L453.406 208.267C453.305 208.786 453.264 209.292 453.242 209.723L459.235 210.023ZM459.294 209.42C461.601 197.806 466.233 187.445 472.806 178.301L467.934 174.798C460.873 184.621 455.887 195.774 453.409 208.251L459.294 209.42ZM472.826 178.272C492.029 150.898 519.782 134.271 553.084 124.167L551.342 118.426C517.164 128.795 488.101 146.05 467.914 174.827L472.826 178.272ZM553.068 124.172C581.033 115.86 610.712 112.838 641.753 114.629L642.099 108.639C610.446 106.812 580.064 109.889 551.359 118.421L553.068 124.172ZM43.8508 223.188C43.7503 220.188 45.2454 212.207 49.8487 203.352C54.4005 194.595 61.8275 185.311 73.2645 179.369L70.4982 174.045C57.7006 180.694 49.4904 191.032 44.525 200.584C39.6111 210.037 37.7089 219.051 37.8541 223.389L43.8508 223.188ZM73.2587 179.372C80.2342 175.767 88.2247 174.914 97.4667 174.782C106.513 174.652 116.978 175.231 127.768 174.136L127.163 168.167C116.702 169.229 107.001 168.644 97.3807 168.782C87.9563 168.918 78.7802 169.764 70.504 174.042L73.2587 179.372ZM127.769 174.136C144.781 172.406 154.989 163.144 161.825 156.648L157.692 152.299C151.014 158.645 142.06 166.652 127.162 168.167L127.769 174.136ZM159.313 154.97C157.216 178.155 147.494 195.474 127.375 205.29L130.006 210.682C152.42 199.746 163.047 180.291 165.289 155.51L159.313 154.97ZM127.366 205.295C120.033 208.903 112.419 210.014 103.732 210.147C99.3744 210.213 94.7983 210.034 89.8606 209.816C84.9459 209.598 79.6846 209.343 74.0729 209.271L73.9964 215.271C79.492 215.341 84.6444 215.591 89.5955 215.81C94.5236 216.028 99.2651 216.215 103.823 216.146C112.966 216.006 121.573 214.833 130.015 210.678L127.366 205.295ZM74.0847 209.271C63.3382 209.092 55.6033 211.485 50.1161 214.291C44.8147 217.001 41.3359 220.347 40.3391 221.065L43.8448 225.934C45.793 224.531 48.0378 222.092 52.8476 219.633C57.4715 217.269 64.2355 215.108 73.9846 215.27L74.0847 209.271ZM67.6976 -126.842C84.1458 -141.024 103.203 -148.16 128.997 -145.692L129.568 -151.664C102.105 -154.292 81.4359 -146.61 63.7796 -131.386L67.6976 -126.842ZM128.995 -145.692C152.025 -143.476 169.072 -145.964 181.577 -149.787C194.087 -153.612 201.935 -158.743 206.438 -161.543L203.27 -166.638C198.799 -163.858 191.523 -159.102 179.823 -155.525C168.118 -151.947 151.866 -149.519 129.57 -151.664L128.995 -145.692ZM203.483 -165.444C192.004 -152.865 180.219 -141.119 165.722 -132.25L168.853 -127.132C184.1 -136.46 196.35 -148.727 207.915 -161.399L203.483 -165.444ZM165.731 -132.256C137.506 -115.114 108.331 -125.016 90.6148 -129.034L89.2877 -123.182C106.127 -119.363 138.105 -108.458 168.845 -127.127L165.731 -132.256ZM90.6148 -129.034C81.7384 -131.047 73.6099 -130.691 65.5736 -128.648L67.0523 -122.833C74.2453 -124.662 81.4098 -124.969 89.2877 -123.182L90.6148 -129.034ZM65.5384 -128.638C65.4287 -128.609 65.8952 -128.766 66.5257 -128.403C67.2295 -127.999 67.4666 -127.34 67.5083 -126.975C67.5442 -126.659 67.4598 -126.529 67.4892 -126.591C67.5069 -126.629 67.5672 -126.73 67.6976 -126.842L63.7796 -131.386C62.3878 -130.186 61.3199 -128.286 61.5468 -126.295C61.6716 -125.201 62.2415 -123.945 63.5372 -123.201C64.7596 -122.498 66.0774 -122.572 67.0875 -122.842L65.5384 -128.638ZM40.3391 221.065C40.0261 221.29 39.811 221.52 39.6916 221.656C39.639 221.716 39.5881 221.777 39.5828 221.783C39.5644 221.805 39.5891 221.775 39.6271 221.734C39.7047 221.65 39.9559 221.388 40.3764 221.181C40.8381 220.953 41.3052 220.886 41.6979 220.909L41.3514 226.899C41.8896 226.93 42.4708 226.838 43.0292 226.563C43.5464 226.308 43.8769 225.975 44.0303 225.81C44.1063 225.728 44.1681 225.653 44.1876 225.63C44.2203 225.591 44.2084 225.605 44.1972 225.618C44.1609 225.659 44.0394 225.794 43.8448 225.934L40.3391 221.065ZM161.825 156.648C161.425 157.029 160.963 157.069 160.608 156.973C160.399 156.916 160.064 156.77 159.766 156.416C159.433 156.022 159.28 155.522 159.306 155.071L165.296 155.409C165.432 153.007 163.682 151.588 162.174 151.181C160.754 150.797 158.986 151.069 157.692 152.299L161.825 156.648ZM455.404 208.934C455.291 209.103 455.217 209.237 455.169 209.324L460.43 212.208C460.434 212.202 460.436 212.199 460.437 212.196C460.439 212.193 460.439 212.192 460.439 212.192C460.439 212.193 460.435 212.2 460.429 212.21C460.423 212.221 460.415 212.233 460.407 212.246C460.399 212.259 460.392 212.27 460.386 212.278L455.404 208.934ZM641.82 114.632C641.651 114.626 641.463 114.562 641.31 114.446C641.17 114.34 641.096 114.222 641.059 114.129C640.991 113.961 640.983 113.664 641.196 113.42L645.714 117.368C648.426 114.265 646.67 108.8 642.032 108.636L641.82 114.632ZM224.281 204.21C225.227 205.497 224.655 206.969 223.834 207.606L220.158 202.864C218.861 203.87 218.143 205.991 219.447 207.764L224.281 204.21ZM231.006 -20.2234C230.42 -20.7485 229.985 -21.6617 230.204 -22.7011L236.075 -21.4623C236.354 -22.7849 235.811 -23.9739 235.01 -24.6921L231.006 -20.2234ZM368.281 -5.2012C367.862 -5.79796 367.78 -6.45005 367.857 -6.96497C367.933 -7.48023 368.202 -8.08726 368.786 -8.53983L372.462 -3.79815C373.961 -4.96018 374.266 -7.11813 373.192 -8.6478L368.281 -5.2012ZM206.438 -161.543C205.335 -160.857 204.272 -161.261 203.773 -161.644C203.48 -161.868 203.04 -162.324 202.868 -163.078C202.664 -163.972 202.945 -164.843 203.464 -165.423L207.933 -161.42C208.641 -162.21 208.97 -163.307 208.718 -164.412C208.498 -165.378 207.912 -166.031 207.422 -166.407C206.525 -167.093 204.852 -167.622 203.27 -166.638L206.438 -161.543ZM252.137 255.575C251.949 255.848 251.667 256.13 251.256 256.334C250.831 256.545 250.049 256.759 249.164 256.416L251.332 250.822C250.233 250.396 249.225 250.644 248.593 250.957C247.977 251.262 247.511 251.714 247.193 252.176L252.137 255.575ZM903.06 -128.638C901.484 -129.418 899.742 -128.884 898.773 -127.717L903.387 -123.882C902.738 -123.101 901.527 -122.703 900.4 -123.26L903.06 -128.638ZM371.115 -4.16009C370.397 -3.9618 369.108 -4.02237 368.281 -5.2012L373.192 -8.6478C372.183 -10.0858 370.542 -10.2263 369.518 -9.94364L371.115 -4.16009ZM251.71 252.166C252.843 253.176 252.749 254.685 252.137 255.575L247.193 252.176C246.346 253.407 246.275 255.359 247.717 256.645L251.71 252.166ZM219.447 207.764C220.113 208.67 221.37 209.487 222.93 209.298L222.205 203.341C223.221 203.218 223.94 203.746 224.281 204.21L219.447 207.764ZM165.274 -105.644C165.358 -105.18 165.285 -104.742 165.117 -104.374C164.947 -104.002 164.615 -103.572 164.057 -103.299L161.418 -108.687C159.729 -107.86 159.105 -106.042 159.37 -104.577L165.274 -105.644ZM163.306 -107.681C163.974 -107.549 165.034 -106.972 165.274 -105.644L159.37 -104.577C159.682 -102.851 161.08 -102.005 162.144 -101.795L163.306 -107.681ZM836.628 -22.168C833.731 -17.7194 828.89 -15.7497 825.306 -16.036C823.549 -16.1764 822.334 -16.8252 821.644 -17.6809C820.988 -18.4932 820.454 -19.9256 820.92 -22.4073L815.023 -23.5152C814.313 -19.7351 814.968 -16.3982 816.975 -13.9123C818.946 -11.4698 821.867 -10.2916 824.828 -10.0551C830.678 -9.58769 837.599 -12.6645 841.656 -18.8937L836.628 -22.168ZM557 101.116C557.168 101.118 556.782 101.156 556.351 100.714C555.882 100.233 555.794 99.6221 555.864 99.2181C555.987 98.5141 556.397 98.6203 556.016 98.6792L556.933 104.609C559.29 104.244 561.365 102.602 561.775 100.247C561.989 99.0182 561.7 97.6063 560.648 96.527C559.635 95.4873 558.284 95.1298 557.066 95.1164L557 101.116ZM847.703 -39.3982C847.602 -39.407 847.458 -39.4532 847.327 -39.5543C847.207 -39.6469 847.154 -39.7418 847.134 -39.7886C847.104 -39.8586 847.129 -39.8545 847.111 -39.8218L852.395 -36.98C853.271 -38.6089 853.34 -40.5162 852.661 -42.1231C851.957 -43.7902 850.399 -45.1868 848.221 -45.3758L847.703 -39.3982ZM263.885 66.4438C263.889 66.4316 263.893 66.4208 263.895 66.4134C263.898 66.4047 263.899 66.4019 263.9 66.3993C263.901 66.3947 263.897 66.4083 263.889 66.4288C263.881 66.452 263.87 66.4798 263.857 66.5101C263.845 66.5397 263.834 66.5639 263.825 66.5811L258.395 64.03C258.346 64.1338 258.304 64.2336 258.266 64.337C258.249 64.381 258.236 64.4183 258.229 64.4395C258.225 64.4499 258.222 64.4605 258.22 64.466C258.218 64.4728 258.216 64.4769 258.215 64.4806L263.885 66.4438ZM234.541 -20.3128C233.468 -19.2615 231.908 -19.4147 231.006 -20.2234L235.01 -24.6921C233.776 -25.7971 231.732 -25.9608 230.342 -24.5988L234.541 -20.3128ZM487.841 -265.674C487.67 -266.848 488.405 -268.198 489.845 -268.478L490.992 -262.589C492.968 -262.973 494.028 -264.825 493.778 -266.54L487.841 -265.674ZM455.169 209.324C455.436 208.838 456.004 208.302 456.846 208.156C457.579 208.03 458.131 208.267 458.404 208.435C458.89 208.735 459.272 209.286 459.235 210.023L453.242 209.723C453.158 211.41 454.091 212.825 455.256 213.543C455.867 213.92 456.79 214.255 457.866 214.069C459.052 213.864 459.935 213.112 460.43 212.208L455.169 209.324ZM489.668 -263.624C488.571 -263.926 487.962 -264.845 487.841 -265.674L493.778 -266.54C493.599 -267.765 492.74 -269.002 491.258 -269.41L489.668 -263.624ZM905.128 -125.579C905.028 -127.059 904.082 -128.132 903.06 -128.638L900.4 -123.26C899.824 -123.545 899.208 -124.191 899.142 -125.174L905.128 -125.579ZM161.332 209.079C162 209.18 162.435 209.512 162.654 209.73C162.881 209.956 163.037 210.211 163.135 210.481C163.221 210.717 163.36 211.233 163.187 211.897C162.972 212.729 162.327 213.491 161.392 213.781L159.618 208.049C158.435 208.415 157.65 209.347 157.379 210.393C157.152 211.272 157.32 212.046 157.498 212.535C157.799 213.362 158.684 214.746 160.434 215.011L161.332 209.079ZM379.516 126.777C379.334 128.574 380.161 130.445 382.042 131.229C383.733 131.933 385.493 131.421 386.698 130.465L382.969 125.765C383.06 125.693 383.581 125.37 384.349 125.69C384.74 125.853 385.082 126.154 385.291 126.543C385.494 126.922 385.5 127.243 385.486 127.383L379.516 126.777ZM256.875 65.7326C257.23 67.284 258.446 68.1701 259.389 68.5082C259.911 68.695 260.715 68.8548 261.614 68.5985C262.66 68.3003 263.513 67.5178 263.885 66.4438L258.215 64.4806C258.491 63.6833 259.155 63.0604 259.969 62.8284C260.636 62.6382 261.165 62.7707 261.414 62.8599C261.812 63.0027 262.499 63.4126 262.723 64.3934L256.875 65.7326ZM37.8541 223.389C37.8994 224.741 38.7217 225.605 39.0979 225.939C39.5162 226.31 40.2977 226.838 41.3514 226.899L41.6979 220.909C42.137 220.934 42.4545 221.063 42.6217 221.145C42.806 221.235 42.9555 221.34 43.0784 221.449C43.1984 221.556 43.3516 221.717 43.493 221.952C43.6258 222.173 43.831 222.598 43.8508 223.188L37.8541 223.389ZM339.06 -146.553C336.351 -143.344 334.469 -142.176 333.377 -141.897C332.918 -141.78 332.646 -141.83 332.445 -141.909C332.208 -142.003 331.848 -142.232 331.399 -142.791C330.448 -143.977 329.513 -146.124 328.725 -149.316C327.954 -152.435 327.393 -156.253 327.002 -160.517L321.027 -159.971C321.432 -155.546 322.029 -151.4 322.9 -147.877C323.752 -144.426 324.941 -141.253 326.719 -139.037C327.635 -137.895 328.79 -136.904 330.235 -136.331C331.715 -135.745 333.29 -135.683 334.86 -136.083C337.826 -136.84 340.726 -139.225 343.645 -142.683L339.06 -146.553ZM400.418 -202.2C397.679 -198.942 395.744 -196.013 394.761 -193.484C393.828 -191.086 393.409 -188.039 395.528 -185.79C397.446 -183.755 400.444 -183.547 403.05 -183.824C405.866 -184.123 409.323 -185.103 413.281 -186.673L411.068 -192.25C407.357 -190.778 404.47 -190.009 402.416 -189.79C400.151 -189.55 399.752 -190.057 399.895 -189.905C400.239 -189.54 399.667 -189.547 400.353 -191.31C400.988 -192.943 402.442 -195.283 405.011 -198.339L400.418 -202.2Z" fill="url(#paint0_linear_320_2275)" mask="url(#path-1-outside-1_320_2275)"/>
</g>
<defs>
<filter id="filter0_f_320_2275" x="0.84375" y="-313.748" width="941.445" height="643.044" filterUnits="userSpaceOnUse" color-interpolation-filters="sRGB">
<feFlood flood-opacity="0" result="BackgroundImageFix"/>
<feBlend mode="normal" in="SourceGraphic" in2="BackgroundImageFix" result="shape"/>
<feGaussianBlur stdDeviation="18.5" result="effect1_foregroundBlur_320_2275"/>
</filter>
<linearGradient id="paint0_linear_320_2275" x1="49.4026" y1="221.648" x2="611.849" y2="41.1971" gradientUnits="userSpaceOnUse">
<stop offset="0.025" stop-color="#FFC363"/>
<stop offset="0.5" stop-color="#FFE8C2"/>
<stop offset="0.995" stop-color="#955E07"/>
</linearGradient>
</defs>
</svg>
