<svg width="380" height="300" viewBox="0 0 380 300" fill="none" xmlns="http://www.w3.org/2000/svg">
<g opacity="0.52" filter="url(#filter0_d_320_2274)">
<mask id="path-1-outside-1_320_2274" maskUnits="userSpaceOnUse" x="-131.98" y="-461.475" width="952.231" height="965.194" fill="black">
<rect fill="white" x="-131.98" y="-461.475" width="952.231" height="965.194"/>
<path d="M339.019 -152.588C329.585 -141.355 333.751 -137.604 347.291 -143.247C364.071 -150.241 389.315 -154.723 424.588 -143.16C436.645 -139.187 448.243 -133.887 457.477 -123.906C480.949 -98.3719 461.955 -67.9499 435.357 -61.5297C385.303 -49.3608 293.508 -88.1949 247.704 -49.489C214.394 -21.2504 198.739 39.2292 208.418 85.4351C208.525 85.9464 209.348 86.2855 209.522 85.7928C209.541 85.7385 209.55 85.712 209.575 85.6601C209.775 85.2447 209.971 84.8339 210.097 84.501C224.007 44.3281 274.29 -7.11901 330.725 -20.5409C383.247 -33.0343 431.656 -14.2966 446.69 1.17801C466.784 21.9596 452.148 42.2162 438.313 50.3964C423.077 59.5365 401.399 55.9761 380.127 59.8859C357.387 64.2217 340.481 76.4514 329.478 95.6871C321.808 108.973 316.597 129.77 315.611 137.899C315.458 139.153 316.661 139.613 317.644 138.819C323.114 133.911 328.181 128.642 333.876 124.092C437.782 41.236 600.195 158.275 706.763 58.211C744.953 22.3422 776.573 -36.449 778.363 -93.1264C778.383 -94.2389 778.34 -95.2811 778.29 -96.3158C778.279 -96.5367 778.134 -96.7276 777.935 -96.823C777.743 -96.9148 777.518 -96.8554 777.382 -96.6921C776.852 -96.0577 776.391 -95.3627 775.929 -94.6677C771.996 -88.2295 766.93 -82.9609 760.954 -78.5035C737.94 -61.4626 700.206 -57.404 639.854 -98.3317C601.063 -124.591 589.111 -144.738 546.643 -168.911C453.888 -221.71 366.602 -185.924 339.019 -152.588ZM729.087 -21.6705C730.719 -21.5656 731.43 -19.6911 730.645 -18.2571C727.565 -12.6283 724.272 -7.18267 720.773 -1.87535C714.527 7.59585 699.912 6.90133 702.371 -4.17373C704.587 -14.1543 714.13 -22.6052 729.087 -21.6705ZM220.703 -164.561C253.072 -203.258 319.845 -221.349 379.596 -217.755C388.092 -217.299 412.252 -214.421 417.536 -213.083C417.714 -213.038 417.831 -212.89 417.854 -212.708C417.883 -212.475 417.745 -212.26 417.515 -212.21C407.783 -210.088 378.536 -206.231 347.649 -188.473C321.594 -173.514 303.549 -151.878 294.804 -122.572C292.244 -113.958 288.314 -107.209 283.94 -102.022C273.956 -90.1806 270.026 -100.072 268.913 -115.521C268.472 -123.969 260.709 -130.11 246.055 -124.873C212.978 -113.024 199.452 -66.9804 144.146 -62.3427C140.324 -62.0425 130.339 -62.246 125.704 -63.0589C125.522 -63.0908 125.366 -63.2137 125.338 -63.3959C125.292 -63.693 125.43 -64.024 125.698 -64.161C131.368 -67.0615 146.245 -72.1109 166.158 -90.8606C187.556 -110.766 197.133 -136.329 220.703 -164.561ZM338 216.215C330.383 235.315 319.126 264.59 289.157 277.633C269.962 285.924 249.719 283.804 229.036 274.657C216.913 269.31 205.362 261.529 196.313 253.497C196.17 253.371 196.16 253.167 196.268 253.01C196.384 252.841 196.597 252.707 196.789 252.779C197.256 252.951 197.75 253.168 198.131 253.384C224.267 268.82 265.815 266.587 281.359 220.925C301.965 160.04 373.876 97.5777 468.619 108.721C468.94 108.764 469.295 108.76 469.66 108.753C472.341 108.698 471.867 111.626 469.203 111.928C441.472 115.756 417.041 125.848 395.438 141.307C365.349 162.613 349.672 186.678 338 216.215ZM138.783 200.56C164.002 171.905 114.717 125.695 155.043 51.4605C165.435 32.4079 180.326 13.8435 185.797 8.44172C185.932 8.30781 186.14 8.31204 186.282 8.43896C186.376 8.52312 186.423 8.6439 186.395 8.76715C185.486 12.7647 177.564 24.2582 179.892 49.6396C181.065 63.1628 183.135 76.6972 185.126 90.3195C190.222 125.665 195.253 164.743 160.246 197.452C140.304 216.132 128.978 215.812 119.099 217.732C118.962 217.758 118.83 217.758 118.694 217.742C118.235 217.691 117.909 216.89 118.347 216.745C126.566 213.026 132.899 207.152 138.783 200.56ZM173.177 211.415C172.935 211.45 172.693 211.322 172.55 211.125C172.4 210.918 172.463 210.643 172.663 210.485C199.593 189.208 217.973 175.571 222.024 146.95C225.366 123.085 225.962 100.875 246.032 70.4663C263.862 43.5844 278.994 28.6663 305.971 19.5847C306.347 19.5132 306.722 19.4417 307.147 19.3146C307.28 19.2746 307.436 19.308 307.515 19.4231C307.652 19.6228 307.609 19.9268 307.419 20.0769C284.306 38.3385 274.059 47.3193 270.1 73.7901C265.628 105.017 265.495 133.009 245.459 164.396C226.462 193.97 202.901 207.108 173.177 211.415ZM544.712 119.008C546.321 119.028 547.125 121.014 546.069 122.227C538.64 130.753 523.17 147.892 498.303 158.595C474.769 168.697 451.836 167.965 425.698 173.058C409.618 176.233 397.948 185.24 388.96 197.747C386.007 201.863 383.531 206.249 380.683 210.457C380.65 210.505 380.63 210.54 380.602 210.59C380.194 211.329 379.18 210.646 379.24 209.805C379.262 209.493 379.296 209.192 379.355 208.913C381.671 198.189 386.096 188.558 392.271 180.015C410.124 154.733 435.472 139.143 465.41 129.388C490.548 121.349 517.091 118.039 544.712 119.008ZM13.1839 230.665C12.9322 230.664 12.5914 230.372 12.5883 230.12C12.5059 223.603 19.1762 199.862 40.7541 188.22C54.3424 180.926 71.0981 184.513 89.8808 182.172C104.02 180.406 112.627 172.523 118.7 166.69C119.471 165.949 120.962 166.298 120.881 167.364C118.559 188.664 109.27 205.166 90.3332 214.793C76.2851 221.993 61.6382 219.498 42.047 219.697C23.9244 219.809 16.2709 228.403 13.6569 230.311C13.4564 230.457 13.432 230.667 13.1839 230.665ZM41.0009 -79.7236C39.0352 -79.1537 38.9441 -81.2938 40.4834 -82.6427C55.7921 -96.0581 73.4577 -103.05 96.9387 -101.328C136.855 -98.3797 155.86 -111.395 163.869 -116.52C164.284 -116.786 164.927 -116.309 164.599 -115.942C154.219 -104.519 143.414 -93.6345 130.14 -85.2696C103.828 -68.8033 77.0333 -77.4048 61.859 -80.5281C54.5018 -82.0425 47.751 -81.594 41.0009 -79.7236Z"/>
</mask>
<path d="M339.019 -152.588C329.585 -141.355 333.751 -137.604 347.291 -143.247C364.071 -150.241 389.315 -154.723 424.588 -143.16C436.645 -139.187 448.243 -133.887 457.477 -123.906C480.949 -98.3719 461.955 -67.9499 435.357 -61.5297C385.303 -49.3608 293.508 -88.1949 247.704 -49.489C214.394 -21.2504 198.739 39.2292 208.418 85.4351C208.525 85.9464 209.348 86.2855 209.522 85.7928C209.541 85.7385 209.55 85.712 209.575 85.6601C209.775 85.2447 209.971 84.8339 210.097 84.501C224.007 44.3281 274.29 -7.11901 330.725 -20.5409C383.247 -33.0343 431.656 -14.2966 446.69 1.17801C466.784 21.9596 452.148 42.2162 438.313 50.3964C423.077 59.5365 401.399 55.9761 380.127 59.8859C357.387 64.2217 340.481 76.4514 329.478 95.6871C321.808 108.973 316.597 129.77 315.611 137.899C315.458 139.153 316.661 139.613 317.644 138.819C323.114 133.911 328.181 128.642 333.876 124.092C437.782 41.236 600.195 158.275 706.763 58.211C744.953 22.3422 776.573 -36.449 778.363 -93.1264C778.383 -94.2389 778.34 -95.2811 778.29 -96.3158C778.279 -96.5367 778.134 -96.7276 777.935 -96.823C777.743 -96.9148 777.518 -96.8554 777.382 -96.6921C776.852 -96.0577 776.391 -95.3627 775.929 -94.6677C771.996 -88.2295 766.93 -82.9609 760.954 -78.5035C737.94 -61.4626 700.206 -57.404 639.854 -98.3317C601.063 -124.591 589.111 -144.738 546.643 -168.911C453.888 -221.71 366.602 -185.924 339.019 -152.588ZM729.087 -21.6705C730.719 -21.5656 731.43 -19.6911 730.645 -18.2571C727.565 -12.6283 724.272 -7.18267 720.773 -1.87535C714.527 7.59585 699.912 6.90133 702.371 -4.17373C704.587 -14.1543 714.13 -22.6052 729.087 -21.6705ZM220.703 -164.561C253.072 -203.258 319.845 -221.349 379.596 -217.755C388.092 -217.299 412.252 -214.421 417.536 -213.083C417.714 -213.038 417.831 -212.89 417.854 -212.708C417.883 -212.475 417.745 -212.26 417.515 -212.21C407.783 -210.088 378.536 -206.231 347.649 -188.473C321.594 -173.514 303.549 -151.878 294.804 -122.572C292.244 -113.958 288.314 -107.209 283.94 -102.022C273.956 -90.1806 270.026 -100.072 268.913 -115.521C268.472 -123.969 260.709 -130.11 246.055 -124.873C212.978 -113.024 199.452 -66.9804 144.146 -62.3427C140.324 -62.0425 130.339 -62.246 125.704 -63.0589C125.522 -63.0908 125.366 -63.2137 125.338 -63.3959C125.292 -63.693 125.43 -64.024 125.698 -64.161C131.368 -67.0615 146.245 -72.1109 166.158 -90.8606C187.556 -110.766 197.133 -136.329 220.703 -164.561ZM338 216.215C330.383 235.315 319.126 264.59 289.157 277.633C269.962 285.924 249.719 283.804 229.036 274.657C216.913 269.31 205.362 261.529 196.313 253.497C196.17 253.371 196.16 253.167 196.268 253.01C196.384 252.841 196.597 252.707 196.789 252.779C197.256 252.951 197.75 253.168 198.131 253.384C224.267 268.82 265.815 266.587 281.359 220.925C301.965 160.04 373.876 97.5777 468.619 108.721C468.94 108.764 469.295 108.76 469.66 108.753C472.341 108.698 471.867 111.626 469.203 111.928C441.472 115.756 417.041 125.848 395.438 141.307C365.349 162.613 349.672 186.678 338 216.215ZM138.783 200.56C164.002 171.905 114.717 125.695 155.043 51.4605C165.435 32.4079 180.326 13.8435 185.797 8.44172C185.932 8.30781 186.14 8.31204 186.282 8.43896C186.376 8.52312 186.423 8.6439 186.395 8.76715C185.486 12.7647 177.564 24.2582 179.892 49.6396C181.065 63.1628 183.135 76.6972 185.126 90.3195C190.222 125.665 195.253 164.743 160.246 197.452C140.304 216.132 128.978 215.812 119.099 217.732C118.962 217.758 118.83 217.758 118.694 217.742C118.235 217.691 117.909 216.89 118.347 216.745C126.566 213.026 132.899 207.152 138.783 200.56ZM173.177 211.415C172.935 211.45 172.693 211.322 172.55 211.125C172.4 210.918 172.463 210.643 172.663 210.485C199.593 189.208 217.973 175.571 222.024 146.95C225.366 123.085 225.962 100.875 246.032 70.4663C263.862 43.5844 278.994 28.6663 305.971 19.5847C306.347 19.5132 306.722 19.4417 307.147 19.3146C307.28 19.2746 307.436 19.308 307.515 19.4231C307.652 19.6228 307.609 19.9268 307.419 20.0769C284.306 38.3385 274.059 47.3193 270.1 73.7901C265.628 105.017 265.495 133.009 245.459 164.396C226.462 193.97 202.901 207.108 173.177 211.415ZM544.712 119.008C546.321 119.028 547.125 121.014 546.069 122.227C538.64 130.753 523.17 147.892 498.303 158.595C474.769 168.697 451.836 167.965 425.698 173.058C409.618 176.233 397.948 185.24 388.96 197.747C386.007 201.863 383.531 206.249 380.683 210.457C380.65 210.505 380.63 210.54 380.602 210.59C380.194 211.329 379.18 210.646 379.24 209.805C379.262 209.493 379.296 209.192 379.355 208.913C381.671 198.189 386.096 188.558 392.271 180.015C410.124 154.733 435.472 139.143 465.41 129.388C490.548 121.349 517.091 118.039 544.712 119.008ZM13.1839 230.665C12.9322 230.664 12.5914 230.372 12.5883 230.12C12.5059 223.603 19.1762 199.862 40.7541 188.22C54.3424 180.926 71.0981 184.513 89.8808 182.172C104.02 180.406 112.627 172.523 118.7 166.69C119.471 165.949 120.962 166.298 120.881 167.364C118.559 188.664 109.27 205.166 90.3332 214.793C76.2851 221.993 61.6382 219.498 42.047 219.697C23.9244 219.809 16.2709 228.403 13.6569 230.311C13.4564 230.457 13.432 230.667 13.1839 230.665ZM41.0009 -79.7236C39.0352 -79.1537 38.9441 -81.2938 40.4834 -82.6427C55.7921 -96.0581 73.4577 -103.05 96.9387 -101.328C136.855 -98.3797 155.86 -111.395 163.869 -116.52C164.284 -116.786 164.927 -116.309 164.599 -115.942C154.219 -104.519 143.414 -93.6345 130.14 -85.2696C103.828 -68.8033 77.0333 -77.4048 61.859 -80.5281C54.5018 -82.0425 47.751 -81.594 41.0009 -79.7236Z" fill="url(#paint0_linear_320_2274)" fill-opacity="0.05" shape-rendering="crispEdges"/>
<path d="M424.588 -143.16L425.527 -146.009L425.522 -146.011L424.588 -143.16ZM457.477 -123.906L459.685 -125.936L459.679 -125.943L457.477 -123.906ZM435.357 -61.5297L434.653 -64.4459L434.649 -64.4448L435.357 -61.5297ZM247.704 -49.489L245.768 -51.7804L245.764 -51.7774L247.704 -49.489ZM210.097 84.501L212.902 85.5664L212.917 85.5247L212.932 85.4825L210.097 84.501ZM330.725 -20.5409L331.419 -17.6223L331.419 -17.6223L330.725 -20.5409ZM446.69 1.17801L448.847 -0.90734L448.842 -0.912462L446.69 1.17801ZM438.313 50.3964L436.786 47.814L436.778 47.8189L436.77 47.8238L438.313 50.3964ZM380.127 59.8859L379.585 56.9353L379.575 56.9371L379.565 56.939L380.127 59.8859ZM329.478 95.6871L332.076 97.187L332.082 97.1767L329.478 95.6871ZM333.876 124.092L332.005 121.747L332.003 121.748L333.876 124.092ZM706.763 58.211L708.817 60.398L708.817 60.3977L706.763 58.211ZM778.363 -93.1264L781.362 -93.0316L781.363 -93.0526L781.363 -93.0737L778.363 -93.1264ZM775.929 -94.6677L773.43 -96.3272L773.399 -96.2801L773.369 -96.2317L775.929 -94.6677ZM760.954 -78.5035L762.74 -76.0924L762.748 -76.0989L760.954 -78.5035ZM639.854 -98.3317L641.538 -100.815L641.536 -100.816L639.854 -98.3317ZM546.643 -168.911L545.159 -166.303L545.159 -166.303L546.643 -168.911ZM220.703 -164.561L218.402 -166.486L218.401 -166.484L220.703 -164.561ZM379.596 -217.755L379.416 -214.76L379.425 -214.759L379.435 -214.759L379.596 -217.755ZM347.649 -188.473L349.142 -185.871L349.144 -185.872L347.649 -188.473ZM294.804 -122.572L291.929 -123.43L291.928 -123.426L294.804 -122.572ZM246.055 -124.873L245.045 -127.698L245.043 -127.697L246.055 -124.873ZM144.146 -62.3427L144.381 -59.3519L144.389 -59.3525L144.397 -59.3531L144.146 -62.3427ZM166.158 -90.8606L164.114 -93.0572L164.108 -93.051L164.101 -93.0447L166.158 -90.8606ZM338 216.215L340.787 217.326L340.79 217.317L338 216.215ZM289.157 277.633L290.346 280.388L290.354 280.384L289.157 277.633ZM229.036 274.657L230.249 271.913L230.246 271.912L229.036 274.657ZM198.131 253.384L199.656 250.801L199.632 250.786L199.607 250.772L198.131 253.384ZM281.359 220.925L284.199 221.891L284.201 221.886L281.359 220.925ZM468.619 108.721L469.018 105.748L468.994 105.744L468.969 105.742L468.619 108.721ZM395.438 141.307L397.172 143.755L397.178 143.751L397.184 143.746L395.438 141.307ZM138.783 200.56L141.021 202.558L141.028 202.55L141.035 202.542L138.783 200.56ZM155.043 51.4605L152.409 50.024L152.406 50.0285L155.043 51.4605ZM179.892 49.6396L182.881 49.3805L182.881 49.373L182.88 49.3656L179.892 49.6396ZM185.126 90.3195L188.095 89.8914L188.094 89.8856L185.126 90.3195ZM160.246 197.452L158.198 195.26L158.195 195.263L160.246 197.452ZM119.099 217.732L119.661 220.679L119.671 220.677L119.099 217.732ZM222.024 146.95L224.995 147.37L224.995 147.366L222.024 146.95ZM246.032 70.4663L243.532 68.8081L243.529 68.8137L246.032 70.4663ZM305.971 19.5847L305.41 16.6378L305.208 16.6762L305.014 16.7415L305.971 19.5847ZM270.1 73.7901L267.133 73.3464L267.131 73.3556L267.13 73.3649L270.1 73.7901ZM245.459 164.396L247.983 166.017L247.987 166.01L245.459 164.396ZM498.303 158.595L499.487 161.352L499.489 161.351L498.303 158.595ZM425.698 173.058L425.124 170.113L425.117 170.115L425.698 173.058ZM388.96 197.747L386.524 195.997L386.522 195.999L388.96 197.747ZM379.355 208.913L376.422 208.28L376.421 208.288L376.419 208.296L379.355 208.913ZM392.271 180.015L394.703 181.772L394.712 181.759L394.722 181.745L392.271 180.015ZM465.41 129.388L464.496 126.53L464.488 126.533L464.48 126.535L465.41 129.388ZM40.7541 188.22L39.3351 185.577L39.3296 185.58L40.7541 188.22ZM89.8808 182.172L90.2519 185.149L90.2526 185.149L89.8808 182.172ZM90.3332 214.793L88.9736 212.119L88.9649 212.123L90.3332 214.793ZM42.047 219.697L42.0655 222.697L42.0774 222.697L42.047 219.697ZM96.9387 -101.328L97.1597 -104.32L97.1581 -104.32L96.9387 -101.328ZM130.14 -85.2696L131.732 -82.7265L131.74 -82.7315L130.14 -85.2696ZM61.859 -80.5281L61.2541 -77.5897L61.859 -80.5281ZM40.4834 -82.6427L42.4606 -80.3865L40.4834 -82.6427ZM13.6569 230.311L15.4257 232.734L13.6569 230.311ZM118.7 166.69L120.778 168.854L118.7 166.69ZM380.683 210.457L378.198 208.775L380.683 210.457ZM546.069 122.227L543.807 120.256L546.069 122.227ZM172.663 210.485L174.523 212.839L172.663 210.485ZM186.395 8.76715L189.32 9.43203L186.395 8.76715ZM307.419 20.0769L305.559 17.723L307.419 20.0769ZM163.869 -116.52L165.487 -113.994L163.869 -116.52ZM196.789 252.779L197.83 249.965L196.789 252.779ZM307.147 19.3146L308.006 22.1888L307.147 19.3146ZM196.313 253.497L198.304 251.254L196.313 253.497ZM173.177 211.415L172.747 208.446L173.177 211.415ZM125.698 -64.161L127.064 -61.4901L125.698 -64.161ZM125.704 -63.0589L126.222 -66.0138L125.704 -63.0589ZM469.66 108.753L469.722 111.752L469.66 108.753ZM730.645 -18.2571L728.013 -19.6973L730.645 -18.2571ZM209.575 85.6601L206.872 84.3583L209.575 85.6601ZM185.797 8.44172L187.905 10.5764L185.797 8.44172ZM417.515 -212.21L416.876 -215.141L417.515 -212.21ZM379.24 209.805L382.232 210.019L379.24 209.805ZM417.536 -213.083L416.8 -210.175L417.536 -213.083ZM778.29 -96.3158L775.293 -96.1715L778.29 -96.3158ZM118.694 217.742L118.357 220.723L118.694 217.742ZM315.611 137.899L312.632 137.537L315.611 137.899ZM208.418 85.4351L205.481 86.0502L208.418 85.4351ZM12.5883 230.12L9.58851 230.158L12.5883 230.12ZM283.94 -102.022L286.234 -100.088L283.94 -102.022ZM348.445 -140.478C364.576 -147.202 389.08 -151.644 423.653 -140.309L425.522 -146.011C389.551 -157.803 363.566 -153.281 346.137 -146.017L348.445 -140.478ZM423.649 -140.311C435.519 -136.399 446.55 -131.3 455.275 -121.869L459.679 -125.943C449.936 -136.474 437.77 -141.975 425.527 -146.009L423.649 -140.311ZM455.268 -121.876C466.209 -109.973 467.098 -97.2557 462.45 -86.7654C457.719 -76.0868 447.12 -67.4551 434.653 -64.4459L436.061 -58.6134C450.192 -62.0245 462.389 -71.8139 467.936 -84.335C473.567 -97.0443 472.216 -112.305 459.685 -125.936L455.268 -121.876ZM434.649 -64.4448C422.625 -61.5216 407.903 -61.628 391.603 -62.9478C375.165 -64.2787 357.983 -66.7442 340.223 -68.447C322.7 -70.1271 305.101 -70.9996 288.935 -68.9647C272.75 -66.9274 257.805 -61.9527 245.768 -51.7804L249.64 -47.1976C260.505 -56.3783 274.211 -61.064 289.684 -63.0116C305.176 -64.9617 322.242 -64.1435 339.65 -62.4744C356.821 -60.8281 374.836 -58.2858 391.119 -56.9674C407.54 -55.6378 423.063 -55.4533 436.066 -58.6146L434.649 -64.4448ZM245.764 -51.7774C228.517 -37.1565 216.025 -14.3787 209.052 10.4233C202.072 35.2486 200.53 62.4127 205.481 86.0502L211.354 84.8201C206.626 62.2517 208.073 36.073 214.828 12.0473C221.59 -12.0015 233.581 -33.5829 249.644 -47.2006L245.764 -51.7774ZM212.278 86.9619C212.464 86.5756 212.721 86.0429 212.902 85.5664L207.293 83.4355C207.221 83.6249 207.086 83.9138 206.872 84.3583L212.278 86.9619ZM212.932 85.4825C219.681 65.9909 235.383 43.4865 256.49 24.161C277.577 4.85353 303.815 -11.0572 331.419 -17.6223L330.031 -23.4595C301.2 -16.6026 274.079 -0.0789344 252.438 19.7358C230.817 39.5325 214.423 62.8381 207.262 83.5194L212.932 85.4825ZM331.419 -17.6223C357.154 -23.7439 381.899 -22.2156 402.048 -17.2564C422.302 -12.2716 437.561 -3.91291 444.538 3.26848L448.842 -0.912462C440.785 -9.20572 424.323 -17.9532 403.482 -23.0825C382.538 -28.2374 356.818 -29.8313 330.031 -23.4594L331.419 -17.6223ZM444.533 3.26336C453.873 12.9223 454.873 22.0346 452.377 29.5694C449.79 37.38 443.272 43.9792 436.786 47.814L439.84 52.9787C447.189 48.6333 454.907 41.0141 458.073 31.4561C461.33 21.6221 459.602 10.2153 448.847 -0.90734L444.533 3.26336ZM436.77 47.8238C429.802 52.0039 421.195 53.3733 411.262 54.1107C401.543 54.8323 390.431 54.9417 379.585 56.9353L380.669 62.8365C391.095 60.9203 401.458 60.855 411.706 60.0943C421.739 59.3494 431.589 57.929 439.857 52.9689L436.77 47.8238ZM379.565 56.939C355.971 61.4375 338.316 74.1944 326.874 94.1975L332.082 97.1767C342.646 78.7083 358.802 67.0059 380.689 62.8328L379.565 56.939ZM326.88 94.1873C318.955 107.915 313.653 129.129 312.632 137.537L318.589 138.26C319.541 130.41 324.662 110.03 332.076 97.1869L326.88 94.1873ZM319.648 141.052C325.364 135.923 330.115 130.937 335.748 126.436L332.003 121.748C326.247 126.347 320.865 131.899 315.641 136.586L319.648 141.052ZM335.746 126.438C361.107 106.215 390.094 98.1218 421.202 95.9072C452.396 93.6865 485.474 97.3835 519.036 100.591C585.794 106.971 654.423 111.472 708.817 60.398L704.709 56.024C652.535 105.014 586.674 101.028 519.607 94.6181C486.256 91.4308 452.588 87.6576 420.776 89.9224C388.877 92.1933 358.597 100.542 332.005 121.747L335.746 126.438ZM708.817 60.3977C747.481 24.0843 779.542 -35.4244 781.362 -93.0316L775.365 -93.2211C773.604 -37.4736 742.426 20.6001 704.709 56.0243L708.817 60.3977ZM781.363 -93.0737C781.384 -94.2918 781.337 -95.4181 781.286 -96.4601L775.293 -96.1715C775.343 -95.144 775.382 -94.1859 775.364 -93.1791L781.363 -93.0737ZM775.078 -98.6143C774.426 -97.8326 773.876 -96.9983 773.43 -96.3272L778.428 -93.0083C778.906 -93.7272 779.278 -94.2829 779.685 -94.7699L775.078 -98.6143ZM773.369 -96.2317C769.662 -90.1628 764.872 -85.1687 759.161 -80.9081L762.748 -76.0989C768.987 -80.753 774.33 -86.2963 778.489 -93.1037L773.369 -96.2317ZM759.169 -80.9145C748.257 -72.8347 733.811 -67.7675 714.702 -69.6647C695.509 -71.5702 671.463 -80.5209 641.538 -100.815L638.17 -95.8488C668.597 -75.2148 693.593 -65.7309 714.109 -63.694C734.709 -61.6488 750.637 -67.1314 762.74 -76.0924L759.169 -80.9145ZM641.536 -100.816C622.319 -113.825 609.783 -125.291 596.587 -136.675C583.371 -148.077 569.6 -159.296 548.127 -171.518L545.159 -166.303C566.154 -154.353 579.593 -143.412 592.668 -132.132C605.762 -120.835 618.599 -109.098 638.172 -95.8474L641.536 -100.816ZM548.127 -171.518C454.134 -225.022 365.24 -188.984 336.708 -154.501L341.33 -150.676C367.964 -182.865 453.642 -218.398 545.159 -166.303L548.127 -171.518ZM728.013 -19.6973C724.974 -14.1437 721.724 -8.76853 718.268 -3.5268L723.277 -0.223893C726.82 -5.59681 730.155 -11.1128 733.277 -16.817L728.013 -19.6973ZM705.3 -3.52339C707.169 -11.9417 715.29 -19.5268 728.9 -18.6764L729.274 -24.6647C712.97 -25.6835 702.006 -16.3669 699.442 -4.82408L705.3 -3.52339ZM223.005 -162.636C238.705 -181.406 262.918 -195.353 290.785 -204.156C318.623 -212.95 349.885 -216.536 379.416 -214.76L379.776 -220.749C349.555 -222.567 317.555 -218.905 288.978 -209.878C260.428 -200.859 235.07 -186.412 218.402 -166.486L223.005 -162.636ZM379.435 -214.759C383.575 -214.537 391.654 -213.714 399.409 -212.772C407.238 -211.82 414.384 -210.787 416.8 -210.175L418.273 -215.991C415.405 -216.718 407.828 -217.792 400.133 -218.728C392.362 -219.672 384.113 -220.517 379.756 -220.75L379.435 -214.759ZM416.876 -215.141C407.344 -213.063 377.541 -209.119 346.153 -191.074L349.144 -185.872C379.532 -203.343 408.221 -207.114 418.154 -209.279L416.876 -215.141ZM346.155 -191.075C319.474 -175.757 300.907 -153.517 291.929 -123.43L297.679 -121.714C306.19 -150.239 323.713 -171.272 349.142 -185.871L346.155 -191.075ZM291.928 -123.426C289.488 -115.216 285.759 -108.833 281.647 -103.956L286.234 -100.088C290.868 -105.585 295 -112.699 297.68 -121.717L291.928 -123.426ZM271.909 -115.677C271.641 -120.82 269.086 -125.517 264.168 -128.006C259.347 -130.445 252.823 -130.477 245.045 -127.698L247.064 -122.048C253.94 -124.505 258.625 -124.086 261.46 -122.652C264.197 -121.267 265.745 -118.67 265.918 -115.364L271.909 -115.677ZM245.043 -127.697C236.253 -124.548 228.87 -119.165 221.957 -112.994C218.5 -109.908 215.124 -106.591 211.743 -103.232C208.346 -99.8571 204.95 -96.4459 201.381 -93.0887C187.189 -79.7399 170.591 -67.5707 143.895 -65.3322L144.397 -59.3531C173.008 -61.7523 190.826 -74.9237 205.492 -88.7182C209.137 -92.1468 212.609 -95.6341 215.972 -98.9753C219.35 -102.332 222.626 -105.549 225.952 -108.518C232.606 -114.457 239.318 -119.272 247.066 -122.048L245.043 -127.697ZM143.911 -65.3334C140.276 -65.0479 130.551 -65.2545 126.222 -66.0138L125.185 -60.104C130.126 -59.2375 140.373 -59.0371 144.381 -59.3519L143.911 -65.3334ZM127.064 -61.4901C132.541 -64.2921 147.912 -69.5595 168.214 -88.6765L164.101 -93.0447C144.579 -74.6622 130.194 -69.831 124.331 -66.8318L127.064 -61.4901ZM168.201 -88.664C179.198 -98.8931 187.113 -110.541 195.136 -122.96C203.189 -135.427 211.365 -148.695 223.006 -162.638L218.401 -166.484C206.471 -152.195 198.074 -138.565 190.096 -126.216C182.089 -113.82 174.516 -102.733 164.114 -93.0572L168.201 -88.664ZM335.213 215.103C327.529 234.373 316.639 262.401 287.959 274.883L290.354 280.384C321.613 266.78 333.237 236.258 340.787 217.326L335.213 215.103ZM287.967 274.879C269.76 282.743 250.419 280.833 230.249 271.913L227.822 277.4C249.019 286.774 270.163 289.105 290.346 280.388L287.967 274.879ZM230.246 271.912C218.439 266.704 207.147 259.102 198.304 251.254L194.321 255.741C203.578 263.956 215.388 271.916 227.825 277.402L230.246 271.912ZM195.748 255.592C196.119 255.729 196.455 255.883 196.654 255.995L199.607 250.772C199.044 250.454 198.394 250.173 197.83 249.965L195.748 255.592ZM196.605 255.967C210.271 264.038 228.027 267.542 244.521 262.957C261.161 258.33 276.138 245.57 284.199 221.891L278.519 219.958C271.036 241.941 257.467 253.129 242.913 257.176C228.213 261.263 212.127 258.166 199.656 250.801L196.605 255.967ZM284.201 221.886C304.402 162.198 375.079 100.74 468.268 111.7L468.969 105.742C372.672 94.4154 299.528 157.882 278.517 219.963L284.201 221.886ZM468.219 111.694C468.804 111.773 469.384 111.759 469.722 111.752L469.599 105.754C469.206 105.762 469.076 105.756 469.018 105.748L468.219 111.694ZM468.793 108.956C440.568 112.853 415.68 123.132 393.692 138.867L397.184 143.746C418.402 128.563 442.377 118.66 469.614 114.9L468.793 108.956ZM393.705 138.858C363.046 160.569 347.049 185.153 335.21 215.112L340.79 217.317C352.295 188.203 367.653 164.658 397.172 143.755L393.705 138.858ZM141.035 202.542C148.032 194.591 149.754 185.453 149.289 175.474C148.834 165.711 146.222 154.523 144.206 142.602C140.135 118.527 137.964 89.1848 157.679 52.8925L152.406 50.0285C131.795 87.9706 134.104 118.851 138.29 143.603C140.402 156.095 142.863 166.472 143.295 175.753C143.718 184.818 142.143 192.201 136.531 198.578L141.035 202.542ZM157.676 52.8971C167.943 34.0736 182.664 15.7511 187.905 10.5764L183.689 6.30707C177.989 11.9359 162.926 30.7422 152.409 50.024L157.676 52.8971ZM183.469 8.10227C183.413 8.3504 183.27 8.77535 182.974 9.51448C182.673 10.2648 182.341 11.0373 181.892 12.1336C181.034 14.2278 179.983 16.9546 179.037 20.3878C177.141 27.2728 175.707 36.854 176.905 49.9137L182.88 49.3656C181.75 37.0438 183.112 28.1876 184.822 21.9811C185.679 18.8685 186.634 16.3861 187.444 14.4078C187.829 13.4678 188.246 12.4882 188.544 11.7457C188.846 10.992 189.149 10.1833 189.32 9.43203L183.469 8.10227ZM176.904 49.8988C178.086 63.5302 180.171 77.1667 182.157 90.7534L188.094 89.8856C186.098 76.2277 184.044 62.7953 182.881 49.3805L176.904 49.8988ZM182.156 90.7476C187.268 126.199 191.952 163.721 158.198 195.26L162.294 199.644C198.554 165.765 193.176 125.132 188.095 89.8914L182.156 90.7476ZM158.195 195.263C148.445 204.396 140.952 208.745 134.832 211.073C128.595 213.445 123.818 213.759 118.527 214.787L119.671 220.677C124.259 219.785 130.085 219.298 136.965 216.681C143.964 214.019 152.106 209.188 162.297 199.642L158.195 195.263ZM118.537 214.785C118.763 214.742 118.944 214.752 119.031 214.761L118.357 220.723C118.716 220.764 119.16 220.774 119.661 220.679L118.537 214.785ZM119.584 219.478C128.364 215.505 135.03 209.269 141.021 202.558L136.545 198.562C130.768 205.034 124.767 210.547 117.111 214.011L119.584 219.478ZM174.523 212.839C201.222 191.744 220.745 177.388 224.995 147.37L219.054 146.529C215.2 173.754 197.963 186.672 170.803 208.131L174.523 212.839ZM224.995 147.366C228.359 123.346 228.906 101.859 248.536 72.1189L243.529 68.8137C223.017 99.8904 222.374 122.824 219.053 146.533L224.995 147.366ZM248.532 72.1245C266.159 45.5486 280.818 31.2179 306.929 22.428L305.014 16.7415C277.171 26.1148 261.565 41.6203 243.532 68.8081L248.532 72.1245ZM306.533 22.5316C306.9 22.4617 307.416 22.3653 308.006 22.1888L306.287 16.4404C306.028 16.518 305.793 16.5647 305.41 16.6378L306.533 22.5316ZM305.559 17.723C294.063 26.8061 285.404 33.8474 279.187 42.0417C272.868 50.3699 269.168 59.7393 267.133 73.3464L273.067 74.2339C274.99 61.3701 278.394 53.0136 283.966 45.6683C289.641 38.1892 297.662 31.6093 309.279 22.4309L305.559 17.723ZM267.13 73.3649C262.603 104.979 262.522 132.091 242.93 162.782L247.987 166.01C268.468 133.928 268.653 105.054 273.069 74.2153L267.13 73.3649ZM242.935 162.775C224.434 191.576 201.661 204.256 172.747 208.446L173.607 214.384C204.142 209.959 228.489 196.364 247.983 166.017L242.935 162.775ZM543.807 120.256C536.449 128.701 521.343 145.412 497.117 155.839L499.489 161.351C524.997 150.372 540.831 132.805 548.33 124.197L543.807 120.256ZM497.12 155.838C485.707 160.738 474.389 163.034 462.55 164.736C450.827 166.42 438.276 167.551 425.124 170.113L426.271 176.003C439.257 173.472 451.242 172.422 463.404 170.675C475.449 168.943 487.366 166.555 499.487 161.352L497.12 155.838ZM425.117 170.115C408.142 173.467 395.86 183.006 386.524 195.997L391.396 199.498C400.036 187.475 411.094 179 426.279 176.001L425.117 170.115ZM386.522 195.999C384.988 198.137 383.589 200.33 382.243 202.47C380.883 204.633 379.586 206.725 378.198 208.775L383.167 212.139C384.627 209.982 385.993 207.777 387.321 205.665C388.663 203.532 389.979 201.474 391.398 199.496L386.522 195.999ZM382.232 210.019C382.249 209.776 382.271 209.624 382.29 209.531L376.419 208.296C376.321 208.761 376.274 209.211 376.247 209.591L382.232 210.019ZM382.287 209.547C384.513 199.242 388.762 189.991 394.703 181.772L389.84 178.257C383.431 187.124 378.829 197.136 376.422 208.28L382.287 209.547ZM394.722 181.745C412.103 157.131 436.83 141.856 466.339 132.24L464.48 126.535C434.114 136.43 408.145 152.334 389.821 178.284L394.722 181.745ZM466.323 132.245C491.101 124.323 517.295 121.048 544.607 122.006L544.817 116.01C516.886 115.03 489.996 118.376 464.496 126.53L466.323 132.245ZM15.588 230.082C15.5552 227.482 16.9942 220.421 21.1985 212.499C25.3516 204.673 32.0378 196.332 42.1786 190.86L39.3296 185.58C27.8924 191.751 20.4545 201.101 15.8986 209.686C11.3939 218.174 9.53897 226.241 9.58851 230.158L15.588 230.082ZM42.173 190.863C48.3371 187.554 55.346 186.64 63.4815 186.336C71.4301 186.04 80.6964 186.34 90.2519 185.149L89.5097 179.195C80.2825 180.345 71.7795 180.022 63.2575 180.341C54.9225 180.652 46.7594 181.591 39.3351 185.577L42.173 190.863ZM90.2526 185.149C105.425 183.254 114.641 174.748 120.778 168.854L116.622 164.526C110.612 170.298 102.614 177.558 89.5091 179.195L90.2526 185.149ZM117.899 167.039C115.662 187.555 106.824 203.044 88.9736 212.119L91.6927 217.467C111.715 207.288 121.455 189.773 123.864 167.689L117.899 167.039ZM88.9649 212.123C82.4777 215.448 75.7878 216.581 68.154 216.873C64.3215 217.019 60.2981 216.954 55.9457 216.86C51.6163 216.767 46.9728 216.647 42.0166 216.697L42.0774 222.697C46.9168 222.648 51.4508 222.765 55.8168 222.859C60.1597 222.952 64.3494 223.023 68.3835 222.868C76.4829 222.558 84.1405 221.338 91.7015 217.463L88.9649 212.123ZM42.0285 216.697C32.4648 216.756 25.5447 219.061 20.6254 221.683C15.9028 224.199 12.7073 227.29 11.8881 227.888L15.4257 232.734C17.2205 231.424 19.1588 229.263 23.4471 226.978C27.5386 224.797 33.5065 222.75 42.0655 222.697L42.0285 216.697ZM42.4606 -80.3865C57.1991 -93.3022 74.0834 -99.9956 96.7194 -98.3359L97.1581 -104.32C72.832 -106.104 54.3851 -98.814 38.5062 -84.899L42.4606 -80.3865ZM96.7177 -98.336C117.048 -96.8344 132.173 -99.3922 143.305 -103.046C154.439 -106.701 161.469 -111.422 165.487 -113.994L162.252 -119.047C158.261 -116.493 151.784 -112.144 141.434 -108.747C131.081 -105.349 116.745 -102.873 97.1597 -104.32L96.7177 -98.336ZM162.378 -117.959C152.04 -106.581 141.457 -95.9472 128.541 -87.8076L131.74 -82.7315C145.371 -91.3219 156.399 -102.457 166.819 -113.924L162.378 -117.959ZM128.549 -87.8127C103.466 -72.1157 78.0488 -80.2587 62.4638 -83.4665L61.2541 -77.5897C76.0177 -74.551 104.19 -65.491 131.732 -82.7265L128.549 -87.8127ZM62.4638 -83.4665C54.5948 -85.0862 47.3607 -84.5989 40.1998 -82.6147L41.802 -76.8326C48.1413 -78.5892 54.4087 -78.9987 61.2541 -77.5897L62.4638 -83.4665ZM40.1654 -82.605C40.1059 -82.5877 40.6219 -82.7571 41.305 -82.3865C42.0773 -81.9674 42.3548 -81.2503 42.4063 -80.8219C42.4301 -80.6239 42.4121 -80.4797 42.3972 -80.403C42.3817 -80.3235 42.3629 -80.2815 42.3592 -80.2734C42.3531 -80.2604 42.3769 -80.3131 42.4606 -80.3865L38.5062 -84.899C37.2421 -83.7913 36.22 -82.0111 36.4492 -80.1053C36.5768 -79.0446 37.1495 -77.8149 38.4436 -77.1127C39.6486 -76.459 40.913 -76.5746 41.8364 -76.8423L40.1654 -82.605ZM11.8881 227.888C11.5812 228.112 11.3714 228.34 11.252 228.48C11.1988 228.542 11.1514 228.602 11.1449 228.61C11.1261 228.633 11.1512 228.601 11.1874 228.56C11.2631 228.474 11.5042 228.21 11.9099 227.991C12.3537 227.752 12.8093 227.663 13.2016 227.665L13.1661 233.665C13.6825 233.668 14.2342 233.554 14.7587 233.271C15.245 233.009 15.5512 232.683 15.6892 232.527C15.7565 232.45 15.8119 232.381 15.8244 232.365C15.8489 232.335 15.8335 232.354 15.8146 232.376C15.764 232.436 15.6324 232.583 15.4257 232.734L11.8881 227.888ZM120.778 168.854C120.307 169.306 119.739 169.36 119.305 169.24C119.056 169.17 118.685 168.999 118.365 168.609C118.009 168.177 117.853 167.633 117.89 167.139L123.873 167.589C124.049 165.257 122.358 163.861 120.914 163.459C119.562 163.083 117.864 163.333 116.622 164.526L120.778 168.854ZM378.198 208.775C378.094 208.93 378.025 209.052 377.976 209.14L383.229 212.04C383.237 212.024 383.23 212.039 383.215 212.063C383.207 212.076 383.199 212.09 383.19 212.104C383.181 212.118 383.173 212.13 383.167 212.139L378.198 208.775ZM544.674 122.008C544.116 122.001 543.743 121.618 543.619 121.321C543.504 121.042 543.502 120.605 543.807 120.256L548.33 124.197C550.897 121.252 549.171 116.064 544.749 116.008L544.674 122.008ZM174.978 209.363C175.941 210.691 175.347 212.187 174.523 212.839L170.803 208.131C169.578 209.099 168.858 211.145 170.121 212.886L174.978 209.363ZM184.284 10.6769C183.671 10.1295 183.225 9.17589 183.469 8.10227L189.32 9.43203C189.62 8.11191 189.082 6.91675 188.28 6.20101L184.284 10.6769ZM305.041 21.1198C304.628 20.5176 304.545 19.8621 304.621 19.3379C304.697 18.8129 304.967 18.1908 305.559 17.723L309.279 22.4309C310.735 21.2805 310.999 19.1985 309.989 17.7263L305.041 21.1198ZM165.487 -113.994C164.348 -113.265 163.222 -113.676 162.683 -114.091C162.372 -114.33 161.925 -114.804 161.753 -115.571C161.552 -116.473 161.835 -117.351 162.361 -117.94L166.837 -113.944C167.526 -114.717 167.852 -115.791 167.609 -116.878C167.397 -117.83 166.825 -118.475 166.342 -118.846C165.46 -119.525 163.805 -120.041 162.252 -119.047L165.487 -113.994ZM198.742 254.708C198.548 254.99 198.257 255.281 197.837 255.49C197.401 255.707 196.627 255.917 195.748 255.592L197.83 249.965C196.759 249.569 195.782 249.81 195.162 250.119C194.559 250.42 194.104 250.862 193.794 251.313L198.742 254.708ZM779.229 -99.5292C777.685 -100.268 776.009 -99.7301 775.078 -98.6143L779.685 -94.7699C779.026 -93.9807 777.8 -93.5617 776.64 -94.1169L779.229 -99.5292ZM308.006 22.1888C307.266 22.4103 305.899 22.3708 305.041 21.1198L309.989 17.7263C308.973 16.2451 307.295 16.1389 306.287 16.4404L308.006 22.1888ZM198.304 251.254C199.458 252.278 199.359 253.808 198.742 254.708L193.794 251.313C192.962 252.526 192.882 254.464 194.321 255.741L198.304 251.254ZM170.121 212.886C170.781 213.795 172.046 214.61 173.607 214.384L172.747 208.446C173.823 208.29 174.606 208.85 174.978 209.363L170.121 212.886ZM128.303 -63.8547C128.372 -63.4073 128.303 -62.9756 128.133 -62.5994C127.96 -62.2187 127.626 -61.7774 127.064 -61.4901L124.331 -66.8318C122.715 -66.0046 122.166 -64.2795 122.374 -62.9372L128.303 -63.8547ZM126.222 -66.0138C126.939 -65.888 128.083 -65.2753 128.303 -63.8547L122.374 -62.9372C122.65 -61.152 124.104 -60.2936 125.185 -60.104L126.222 -66.0138ZM718.268 -3.5268C715.726 0.328694 711.555 1.96238 708.578 1.69256C707.127 1.56095 706.207 1.0153 705.718 0.372997C705.259 -0.229746 704.825 -1.38479 705.3 -3.52339L699.442 -4.82408C698.688 -1.42515 699.158 1.65978 700.943 4.00614C702.698 6.31294 705.362 7.42555 708.037 7.66806C713.314 8.14646 719.574 5.39181 723.277 -0.223893L718.268 -3.5268ZM469.722 111.752C469.883 111.749 469.5 111.799 469.048 111.377C468.544 110.907 468.394 110.254 468.47 109.755C468.608 108.851 469.21 108.908 468.866 108.947L469.541 114.909C471.861 114.646 474.032 113.088 474.402 110.659C474.594 109.396 474.226 108.003 473.141 106.99C472.107 106.025 470.777 105.729 469.599 105.754L469.722 111.752ZM728.895 -18.6767C728.725 -18.6877 728.515 -18.755 728.329 -18.8948C728.155 -19.0257 728.061 -19.1737 728.015 -19.2794C727.935 -19.4666 727.964 -19.6066 728.013 -19.6973L733.277 -16.817C734.111 -18.3416 734.177 -20.1359 733.529 -21.6451C732.854 -23.2177 731.355 -24.5308 729.28 -24.6644L728.895 -18.6767ZM212.351 86.7895C212.354 86.7818 212.358 86.7715 212.359 86.7685C212.361 86.7635 212.361 86.7627 212.361 86.7635C212.36 86.7653 212.354 86.7824 212.344 86.8067C212.334 86.8331 212.322 86.8622 212.309 86.8926C212.296 86.9222 212.285 86.9458 212.278 86.9619L206.872 84.3583C206.828 84.4495 206.787 84.5428 206.748 84.6443C206.731 84.6885 206.717 84.7258 206.709 84.7494C206.702 84.7669 206.693 84.7947 206.692 84.7962L212.351 86.7895ZM187.905 10.5764C186.809 11.6587 185.21 11.5035 184.284 10.6769L188.28 6.20101C187.07 5.12052 185.056 4.95685 183.689 6.30707L187.905 10.5764ZM414.878 -212.332C414.73 -213.503 415.457 -214.832 416.876 -215.141L418.154 -209.279C420.033 -209.689 421.037 -211.447 420.83 -213.085L414.878 -212.332ZM377.976 209.14C378.253 208.638 378.833 208.094 379.688 207.943C380.44 207.81 381.019 208.051 381.321 208.237C381.87 208.576 382.29 209.208 382.232 210.019L376.247 209.591C376.129 211.244 377.027 212.638 378.17 213.343C378.769 213.713 379.674 214.038 380.73 213.852C381.888 213.648 382.747 212.912 383.229 212.04L377.976 209.14ZM416.8 -210.175C415.639 -210.469 414.99 -211.442 414.878 -212.332L420.83 -213.085C420.672 -214.338 419.79 -215.607 418.273 -215.991L416.8 -210.175ZM781.286 -96.4601C781.215 -97.9449 780.268 -99.032 779.229 -99.5292L776.64 -94.1169C775.999 -94.4232 775.344 -95.1284 775.293 -96.1715L781.286 -96.4601ZM119.031 214.761C119.738 214.841 120.213 215.182 120.461 215.42C120.714 215.663 120.887 215.94 120.994 216.227C121.089 216.482 121.23 217.007 121.064 217.676C120.859 218.503 120.232 219.28 119.293 219.592L117.402 213.897C116.243 214.282 115.493 215.214 115.24 216.233C115.027 217.095 115.195 217.85 115.374 218.33C115.673 219.128 116.572 220.522 118.357 220.723L119.031 214.761ZM312.632 137.537C312.425 139.245 313.18 141.1 315.025 141.886C316.68 142.592 318.388 142.074 319.529 141.153L315.759 136.485C315.917 136.357 316.532 136.006 317.378 136.367C317.807 136.55 318.173 136.884 318.393 137.309C318.606 137.723 318.61 138.082 318.589 138.26L312.632 137.537ZM205.481 86.0502C205.805 87.5978 207.002 88.4782 207.925 88.8119C208.437 88.9969 209.228 89.1546 210.115 88.9013C211.145 88.6073 211.982 87.8385 212.351 86.7895L206.692 84.7962C206.975 83.9935 207.644 83.3671 208.467 83.1321C209.147 82.9378 209.693 83.0711 209.964 83.169C210.406 83.3286 211.137 83.7838 211.354 84.8201L205.481 86.0502ZM9.58851 230.158C9.60551 231.502 10.4011 232.372 10.7921 232.722C11.2112 233.097 12.0367 233.659 13.1661 233.665L13.2016 227.665C13.6898 227.668 14.0543 227.803 14.2574 227.898C14.4763 228.001 14.6523 228.125 14.7936 228.251C14.9328 228.376 15.098 228.556 15.2445 228.81C15.3838 229.051 15.5805 229.489 15.588 230.082L9.58851 230.158ZM281.647 -103.956C279.252 -101.115 277.624 -100.101 276.735 -99.8539C276.376 -99.7544 276.213 -99.7995 276.133 -99.8293C276.022 -99.8704 275.776 -100 275.431 -100.426C274.68 -101.353 273.898 -103.13 273.248 -105.911C272.616 -108.616 272.178 -111.96 271.906 -115.736L265.921 -115.305C266.206 -111.357 266.675 -107.672 267.405 -104.546C268.117 -101.498 269.151 -98.6458 270.769 -96.6486C271.609 -95.6129 272.686 -94.7073 274.05 -94.2025C275.444 -93.6864 276.907 -93.6752 278.339 -94.0722C281.029 -94.8185 283.637 -97.0079 286.234 -100.088L281.647 -103.956ZM336.722 -154.518C334.279 -151.609 332.533 -148.978 331.635 -146.694C330.797 -144.56 330.328 -141.666 332.365 -139.523C334.2 -137.591 337.026 -137.484 339.329 -137.769C341.856 -138.083 344.938 -139.017 348.445 -140.478L346.137 -146.017C342.874 -144.657 340.357 -143.943 338.59 -143.724C336.599 -143.477 336.435 -143.95 336.715 -143.655C337.196 -143.148 336.609 -142.946 337.219 -144.499C337.77 -145.901 339.042 -147.951 341.316 -150.659L336.722 -154.518Z" fill="url(#paint1_linear_320_2274)" mask="url(#path-1-outside-1_320_2274)"/>
</g>
<defs>
<filter id="filter0_d_320_2274" x="0.0859375" y="-226.702" width="790.781" height="526.025" filterUnits="userSpaceOnUse" color-interpolation-filters="sRGB">
<feFlood flood-opacity="0" result="BackgroundImageFix"/>
<feColorMatrix in="SourceAlpha" type="matrix" values="0 0 0 0 0 0 0 0 0 0 0 0 0 0 0 0 0 0 127 0" result="hardAlpha"/>
<feOffset dy="4"/>
<feGaussianBlur stdDeviation="4.75"/>
<feComposite in2="hardAlpha" operator="out"/>
<feColorMatrix type="matrix" values="0 0 0 0 0 0 0 0 0 0 0 0 0 0 0 0 0 0 0.37 0"/>
<feBlend mode="normal" in2="BackgroundImageFix" result="effect1_dropShadow_320_2274"/>
<feBlend mode="normal" in="SourceGraphic" in2="effect1_dropShadow_320_2274" result="shape"/>
</filter>
<linearGradient id="paint0_linear_320_2274" x1="314.138" y1="-389.742" x2="-185.694" y2="108.229" gradientUnits="userSpaceOnUse">
<stop stop-color="#FF2020"/>
<stop offset="0.446" stop-color="#FF7B7D"/>
<stop offset="1" stop-color="#8F0C11"/>
</linearGradient>
<linearGradient id="paint1_linear_320_2274" x1="20.1586" y1="228.507" x2="525.034" y2="75.8868" gradientUnits="userSpaceOnUse">
<stop offset="0.025" stop-color="#FFC363"/>
<stop offset="0.5" stop-color="#FFE8C2"/>
<stop offset="0.995" stop-color="#955E07"/>
</linearGradient>
</defs>
</svg>
