<svg width="236" height="248" viewBox="0 0 236 248" fill="none" xmlns="http://www.w3.org/2000/svg">
<g filter="url(#filter0_d_629_443)">
<path d="M182.208 56.7122C143.399 58.4856 103.665 56.8613 62.5191 49.8237C60.8145 92.7837 58.8545 135.796 53.8191 178.981C91.3609 180.305 128.894 181.569 166.975 189.575C169.963 144.985 172.232 100.319 182.208 56.7122ZM120.442 67.1094C133.776 68.5621 146.587 75.5897 155.142 87.4954C170.783 109.207 166.386 140.543 145.243 155.75C144.236 156.488 143.209 157.136 142.183 157.785C137.207 164.823 136.39 173.776 129.122 174.356C125.342 174.66 121.953 170.645 119.107 166.716C117.469 169.045 115.881 170.623 114.133 170.383C112.5 170.155 111.819 167.207 111.499 163.86C98.7591 162.01 86.6639 155.083 78.4902 143.711C62.846 122 67.2259 90.6615 88.3919 75.4284C97.9738 68.5358 109.379 65.902 120.442 67.1094ZM120.591 77.6776C118.633 77.5027 116.66 77.4716 114.669 77.613C113.864 80.3192 112.879 82.8031 111.522 82.7199C110.107 82.6307 109.176 80.9643 108.302 78.7517C104.237 79.8395 100.291 81.7246 96.5842 84.3901C80.1521 96.2218 74.5701 119.123 87.0626 136.467C99.5263 153.807 122.836 157.979 139.268 146.147C155.697 134.344 159.184 110.905 146.692 93.5613C139.862 84.0731 130.453 78.7047 120.591 77.6776ZM121.712 90.6399C126.852 91.2334 131.678 93.4507 135.335 97.4063C144.289 107.145 142.412 123.777 132.514 132.86C122.614 141.971 107.149 141.727 98.198 131.959C89.2438 122.221 90.2995 106.782 100.226 97.7022C106.107 92.2987 114.217 89.7721 121.712 90.6399ZM117.593 101.168C113.542 100.717 109.329 101.818 106.182 104.687C100.238 110.142 100.893 119.481 105.878 124.912C110.863 130.343 120.816 130.769 126.761 125.314C132.674 119.885 131.847 111.08 126.862 105.649C124.514 103.08 121.129 101.536 117.593 101.168ZM115.839 110.75C116.633 110.833 117.404 111.058 118.108 111.413C118.812 111.767 119.435 112.243 119.942 112.814C120.45 113.385 120.831 114.039 121.064 114.74C121.297 115.441 121.378 116.175 121.302 116.899C121.227 117.623 120.997 118.324 120.624 118.962C120.252 119.6 119.744 120.162 119.13 120.616C118.516 121.07 117.808 121.408 117.046 121.609C116.284 121.811 115.483 121.872 114.689 121.79C113.896 121.707 113.125 121.482 112.421 121.128C111.717 120.773 111.093 120.297 110.586 119.726C110.079 119.155 109.698 118.501 109.464 117.8C109.231 117.099 109.15 116.365 109.227 115.641C109.301 114.917 109.531 114.216 109.904 113.578C110.277 112.94 110.785 112.378 111.399 111.924C112.013 111.47 112.721 111.132 113.483 110.931C114.245 110.729 115.045 110.668 115.839 110.75Z" fill="url(#paint0_linear_629_443)"/>
</g>
<defs>
<filter id="filter0_d_629_443" x="0.120312" y="0.123669" width="235.791" height="247.151" filterUnits="userSpaceOnUse" color-interpolation-filters="sRGB">
<feFlood flood-opacity="0" result="BackgroundImageFix"/>
<feColorMatrix in="SourceAlpha" type="matrix" values="0 0 0 0 0 0 0 0 0 0 0 0 0 0 0 0 0 0 127 0" result="hardAlpha"/>
<feOffset dy="4"/>
<feGaussianBlur stdDeviation="26.85"/>
<feComposite in2="hardAlpha" operator="out"/>
<feColorMatrix type="matrix" values="0 0 0 0 0 0 0 0 0 0 0 0 0 0 0 0 0 0 1 0"/>
<feBlend mode="normal" in2="BackgroundImageFix" result="effect1_dropShadow_629_443"/>
<feBlend mode="normal" in="SourceGraphic" in2="effect1_dropShadow_629_443" result="shape"/>
</filter>
<linearGradient id="paint0_linear_629_443" x1="122.651" y1="50.5093" x2="108.675" y2="184.695" gradientUnits="userSpaceOnUse">
<stop stop-color="#CA8920"/>
<stop offset="1" stop-color="#F9D7A1"/>
</linearGradient>
</defs>
</svg>
