<svg width="391" height="508" viewBox="0 0 391 508" fill="none" xmlns="http://www.w3.org/2000/svg">
<g filter="url(#filter0_d_432_1229)">
<mask id="path-1-outside-1_432_1229" maskUnits="userSpaceOnUse" x="-109.814" y="-316.697" width="955.336" height="1017.64" fill="black">
<rect fill="white" x="-109.814" y="-316.697" width="955.336" height="1017.64"/>
<path d="M363.019 9.56214C353.605 21.3432 357.778 25.2952 371.305 19.3728C388.085 12.0262 413.326 7.32165 448.588 19.4711C460.645 23.6464 472.243 29.2167 481.477 39.706C504.949 66.5415 485.955 98.514 459.357 105.261C409.303 118.051 317.508 77.2372 271.704 117.916C238.395 147.593 222.74 211.151 232.417 259.712C232.524 260.25 233.349 260.609 233.522 260.092C233.541 260.035 233.55 260.007 233.574 259.953C233.775 259.516 233.971 259.084 234.097 258.734C248.007 216.514 298.29 162.445 354.725 148.339C407.247 135.209 455.656 154.902 470.69 171.165C490.784 193.006 476.148 214.295 462.313 222.892C447.077 232.498 425.399 228.756 404.127 232.865C381.387 237.421 364.481 250.274 353.478 270.49C345.811 284.449 340.6 306.298 339.611 314.846C339.459 316.164 340.663 316.653 341.644 315.82C347.114 310.662 352.181 305.125 357.876 300.343C461.782 213.264 624.195 336.268 730.763 231.104C768.953 193.408 800.573 131.62 802.363 72.0544C802.383 70.8855 802.34 69.7903 802.29 68.703C802.279 68.4708 802.133 68.2694 801.933 68.1689C801.742 68.0727 801.519 68.1344 801.384 68.3045C800.853 68.9719 800.391 69.7032 799.929 70.4345C795.996 77.2008 790.93 82.738 784.954 87.4226C761.94 105.332 724.206 109.597 663.854 66.5838C625.063 38.9858 613.111 17.8129 570.643 -7.59206C477.888 -63.0818 390.602 -25.4726 363.019 9.56214ZM753.087 147.152C754.715 147.262 755.431 149.229 754.651 150.728C751.563 156.66 748.261 162.398 744.751 167.99C738.516 177.925 723.9 177.125 726.38 165.497C728.614 155.027 738.151 146.171 753.087 147.152ZM244.703 -3.02058C277.072 -43.6896 343.845 -62.7027 403.596 -58.9253C412.091 -58.4466 436.245 -55.4228 441.534 -54.0164C441.713 -53.9687 441.831 -53.8122 441.854 -53.6197C441.884 -53.3752 441.746 -53.1512 441.517 -53.0987C431.787 -50.869 402.539 -46.8163 371.649 -28.1512C345.594 -12.4301 327.549 10.3082 318.804 41.1084C316.244 50.1617 312.314 57.2543 307.94 62.7056C297.979 75.1222 294.027 64.7649 292.913 48.5189C292.472 39.64 284.709 33.1864 270.055 38.6904C236.978 51.1431 223.453 99.5329 168.146 104.407C164.325 104.722 154.341 104.509 149.706 103.655C149.523 103.621 149.366 103.491 149.338 103.298C149.292 102.987 149.428 102.641 149.695 102.498C155.362 99.4496 170.242 94.1446 190.158 74.4357C211.556 53.5162 221.133 26.6499 244.703 -3.02058ZM362 397.161C354.383 417.235 343.126 448.002 313.157 461.709C293.962 470.423 273.719 468.194 253.036 458.581C240.914 452.962 229.364 444.786 220.315 436.345C220.171 436.211 220.161 435.996 220.268 435.831C220.384 435.653 220.597 435.513 220.79 435.588C221.257 435.77 221.75 435.998 222.131 436.224C248.267 452.447 289.815 450.1 305.359 402.11C325.965 338.123 397.876 272.477 492.619 284.189C492.937 284.234 493.287 284.23 493.648 284.222C496.333 284.165 495.871 287.241 493.203 287.559C465.472 291.583 441.041 302.188 419.438 318.435C389.349 340.827 373.672 366.119 362 397.161ZM162.783 380.708C188.002 350.592 138.717 302.028 179.043 224.01C189.436 203.984 204.329 184.472 209.798 178.797C209.933 178.657 210.14 178.662 210.282 178.796C210.376 178.884 210.423 179.011 210.395 179.14C209.487 183.341 201.564 195.42 203.892 222.096C205.065 236.309 207.135 250.533 209.126 264.849C214.222 301.997 219.253 343.066 184.246 377.442C164.304 397.073 152.978 396.737 143.099 398.755C142.963 398.782 142.833 398.782 142.698 398.767C142.238 398.713 141.909 397.87 142.347 397.717C150.566 393.81 156.899 387.636 162.783 380.708ZM197.177 392.116C196.935 392.153 196.693 392.018 196.549 391.81C196.399 391.593 196.461 391.306 196.66 391.141C223.591 368.779 241.973 354.447 246.024 324.365C249.366 299.285 249.962 275.943 270.032 243.984C287.862 215.732 302.994 200.054 329.971 190.51C330.347 190.434 330.722 190.359 331.147 190.226C331.28 190.184 331.436 190.219 331.515 190.34C331.652 190.55 331.61 190.868 331.421 191.025C308.307 210.219 298.059 219.657 294.1 247.478C289.628 280.296 289.495 309.715 269.459 342.701C250.462 373.782 226.902 387.589 197.177 392.116ZM568.712 295C570.317 295.021 571.129 297.103 570.078 298.371C562.653 307.329 547.18 325.351 522.303 336.604C498.769 347.222 475.836 346.452 449.698 351.805C433.618 355.142 421.948 364.608 412.96 377.752C410.007 382.078 407.531 386.688 404.682 391.11C404.65 391.16 404.63 391.196 404.602 391.249C404.196 392.024 403.18 391.304 403.24 390.42C403.262 390.094 403.296 389.779 403.355 389.487C405.671 378.216 410.096 368.094 416.271 359.116C434.124 332.545 459.472 316.161 489.41 305.909C514.548 297.461 541.091 293.982 568.712 295ZM37.1855 412.348C36.9329 412.347 36.5914 412.038 36.5883 411.773C36.5071 404.921 43.1781 379.974 64.7541 367.739C78.3424 360.073 95.098 363.843 113.881 361.383C128.024 359.527 136.633 351.236 142.706 345.106C143.473 344.331 144.961 344.703 144.881 345.82C142.559 368.206 133.27 385.549 114.333 395.667C100.285 403.233 85.6381 400.612 66.047 400.82C47.9181 400.938 40.2656 409.976 37.6542 411.977C37.4551 412.13 37.4325 412.348 37.1855 412.348ZM65.0009 86.1402C63.0378 86.7385 62.9399 84.4942 64.4746 83.0804C79.7853 68.9761 97.4532 61.6252 120.939 63.435C160.856 66.5334 179.861 52.8543 187.87 47.4678C188.283 47.19 188.925 47.6919 188.599 48.0763C178.22 60.0814 167.414 71.5204 154.14 80.3116C127.828 97.6171 101.033 88.5772 85.859 85.2948C78.5017 83.7032 71.7509 84.1745 65.0009 86.1402Z"/>
</mask>
<path d="M363.019 9.56214C353.605 21.3432 357.778 25.2952 371.305 19.3728C388.085 12.0262 413.326 7.32165 448.588 19.4711C460.645 23.6464 472.243 29.2167 481.477 39.706C504.949 66.5415 485.955 98.514 459.357 105.261C409.303 118.051 317.508 77.2372 271.704 117.916C238.395 147.593 222.74 211.151 232.417 259.712C232.524 260.25 233.349 260.609 233.522 260.092C233.541 260.035 233.55 260.007 233.574 259.953C233.775 259.516 233.971 259.084 234.097 258.734C248.007 216.514 298.29 162.445 354.725 148.339C407.247 135.209 455.656 154.902 470.69 171.165C490.784 193.006 476.148 214.295 462.313 222.892C447.077 232.498 425.399 228.756 404.127 232.865C381.387 237.421 364.481 250.274 353.478 270.49C345.811 284.449 340.6 306.298 339.611 314.846C339.459 316.164 340.663 316.653 341.644 315.82C347.114 310.662 352.181 305.125 357.876 300.343C461.782 213.264 624.195 336.268 730.763 231.104C768.953 193.408 800.573 131.62 802.363 72.0544C802.383 70.8855 802.34 69.7903 802.29 68.703C802.279 68.4708 802.133 68.2694 801.933 68.1689C801.742 68.0727 801.519 68.1344 801.384 68.3045C800.853 68.9719 800.391 69.7032 799.929 70.4345C795.996 77.2008 790.93 82.738 784.954 87.4226C761.94 105.332 724.206 109.597 663.854 66.5838C625.063 38.9858 613.111 17.8129 570.643 -7.59206C477.888 -63.0818 390.602 -25.4726 363.019 9.56214ZM753.087 147.152C754.715 147.262 755.431 149.229 754.651 150.728C751.563 156.66 748.261 162.398 744.751 167.99C738.516 177.925 723.9 177.125 726.38 165.497C728.614 155.027 738.151 146.171 753.087 147.152ZM244.703 -3.02058C277.072 -43.6896 343.845 -62.7027 403.596 -58.9253C412.091 -58.4466 436.245 -55.4228 441.534 -54.0164C441.713 -53.9687 441.831 -53.8122 441.854 -53.6197C441.884 -53.3752 441.746 -53.1512 441.517 -53.0987C431.787 -50.869 402.539 -46.8163 371.649 -28.1512C345.594 -12.4301 327.549 10.3082 318.804 41.1084C316.244 50.1617 312.314 57.2543 307.94 62.7056C297.979 75.1222 294.027 64.7649 292.913 48.5189C292.472 39.64 284.709 33.1864 270.055 38.6904C236.978 51.1431 223.453 99.5329 168.146 104.407C164.325 104.722 154.341 104.509 149.706 103.655C149.523 103.621 149.366 103.491 149.338 103.298C149.292 102.987 149.428 102.641 149.695 102.498C155.362 99.4496 170.242 94.1446 190.158 74.4357C211.556 53.5162 221.133 26.6499 244.703 -3.02058ZM362 397.161C354.383 417.235 343.126 448.002 313.157 461.709C293.962 470.423 273.719 468.194 253.036 458.581C240.914 452.962 229.364 444.786 220.315 436.345C220.171 436.211 220.161 435.996 220.268 435.831C220.384 435.653 220.597 435.513 220.79 435.588C221.257 435.77 221.75 435.998 222.131 436.224C248.267 452.447 289.815 450.1 305.359 402.11C325.965 338.123 397.876 272.477 492.619 284.189C492.937 284.234 493.287 284.23 493.648 284.222C496.333 284.165 495.871 287.241 493.203 287.559C465.472 291.583 441.041 302.188 419.438 318.435C389.349 340.827 373.672 366.119 362 397.161ZM162.783 380.708C188.002 350.592 138.717 302.028 179.043 224.01C189.436 203.984 204.329 184.472 209.798 178.797C209.933 178.657 210.14 178.662 210.282 178.796C210.376 178.884 210.423 179.011 210.395 179.14C209.487 183.341 201.564 195.42 203.892 222.096C205.065 236.309 207.135 250.533 209.126 264.849C214.222 301.997 219.253 343.066 184.246 377.442C164.304 397.073 152.978 396.737 143.099 398.755C142.963 398.782 142.833 398.782 142.698 398.767C142.238 398.713 141.909 397.87 142.347 397.717C150.566 393.81 156.899 387.636 162.783 380.708ZM197.177 392.116C196.935 392.153 196.693 392.018 196.549 391.81C196.399 391.593 196.461 391.306 196.66 391.141C223.591 368.779 241.973 354.447 246.024 324.365C249.366 299.285 249.962 275.943 270.032 243.984C287.862 215.732 302.994 200.054 329.971 190.51C330.347 190.434 330.722 190.359 331.147 190.226C331.28 190.184 331.436 190.219 331.515 190.34C331.652 190.55 331.61 190.868 331.421 191.025C308.307 210.219 298.059 219.657 294.1 247.478C289.628 280.296 289.495 309.715 269.459 342.701C250.462 373.782 226.902 387.589 197.177 392.116ZM568.712 295C570.317 295.021 571.129 297.103 570.078 298.371C562.653 307.329 547.18 325.351 522.303 336.604C498.769 347.222 475.836 346.452 449.698 351.805C433.618 355.142 421.948 364.608 412.96 377.752C410.007 382.078 407.531 386.688 404.682 391.11C404.65 391.16 404.63 391.196 404.602 391.249C404.196 392.024 403.18 391.304 403.24 390.42C403.262 390.094 403.296 389.779 403.355 389.487C405.671 378.216 410.096 368.094 416.271 359.116C434.124 332.545 459.472 316.161 489.41 305.909C514.548 297.461 541.091 293.982 568.712 295ZM37.1855 412.348C36.9329 412.347 36.5914 412.038 36.5883 411.773C36.5071 404.921 43.1781 379.974 64.7541 367.739C78.3424 360.073 95.098 363.843 113.881 361.383C128.024 359.527 136.633 351.236 142.706 345.106C143.473 344.331 144.961 344.703 144.881 345.82C142.559 368.206 133.27 385.549 114.333 395.667C100.285 403.233 85.6381 400.612 66.047 400.82C47.9181 400.938 40.2656 409.976 37.6542 411.977C37.4551 412.13 37.4325 412.348 37.1855 412.348ZM65.0009 86.1402C63.0378 86.7385 62.9399 84.4942 64.4746 83.0804C79.7853 68.9761 97.4532 61.6252 120.939 63.435C160.856 66.5334 179.861 52.8543 187.87 47.4678C188.283 47.19 188.925 47.6919 188.599 48.0763C178.22 60.0814 167.414 71.5204 154.14 80.3116C127.828 97.6171 101.033 88.5772 85.859 85.2948C78.5017 83.7032 71.7509 84.1745 65.0009 86.1402Z" fill="#300404"/>
<path d="M448.588 19.4711L449.791 15.5809L449.785 15.579L448.588 19.4711ZM481.477 39.706L484.343 36.9435L484.334 36.9338L481.477 39.706ZM459.357 105.261L458.422 101.279L458.415 101.28L459.357 105.261ZM271.704 117.916L269.176 114.781L269.171 114.785L271.704 117.916ZM234.097 258.734L237.745 260.207L237.765 260.15L237.784 260.093L234.097 258.734ZM354.725 148.339L355.648 152.325L355.648 152.325L354.725 148.339ZM470.69 171.165L473.488 168.326L473.481 168.319L470.69 171.165ZM462.313 222.892L460.313 219.363L460.303 219.369L460.292 219.376L462.313 222.892ZM404.127 232.865L403.401 228.835L403.388 228.838L403.376 228.84L404.127 232.865ZM353.478 270.49L356.859 272.553L356.863 272.546L356.867 272.539L353.478 270.49ZM357.876 300.343L355.432 297.135L355.429 297.138L357.876 300.343ZM730.763 231.104L733.442 234.098L733.443 234.097L730.763 231.104ZM802.363 72.0544L806.262 72.2065L806.263 72.1779L806.264 72.1492L802.363 72.0544ZM799.929 70.4345L796.675 68.1561L796.635 68.22L796.597 68.2855L799.929 70.4345ZM784.954 87.4226L787.288 90.7192L787.293 90.7149L787.299 90.7105L784.954 87.4226ZM663.854 66.5838L666.032 63.1978L666.029 63.1959L663.854 66.5838ZM570.643 -7.59206L568.726 -4.0349L568.727 -4.03487L570.643 -7.59206ZM244.703 -3.02058L241.705 -5.65847L241.703 -5.65558L244.703 -3.02058ZM403.596 -58.9253L403.383 -54.8358L403.396 -54.835L403.408 -54.8343L403.596 -58.9253ZM371.649 -28.1512L373.606 -24.5959L373.608 -24.5972L371.649 -28.1512ZM318.804 41.1084L315.065 39.9175L315.064 39.9219L318.804 41.1084ZM270.055 38.6904L268.723 34.8319L268.72 34.8329L270.055 38.6904ZM168.146 104.407L168.473 108.491L168.483 108.49L168.494 108.49L168.146 104.407ZM190.158 74.4357L187.492 71.4297L187.483 71.4381L187.474 71.4465L190.158 74.4357ZM362 397.161L365.625 398.696L365.629 398.684L362 397.161ZM313.157 461.709L314.721 465.472L314.731 465.467L313.157 461.709ZM253.036 458.581L254.598 454.836L254.594 454.834L253.036 458.581ZM222.131 436.224L224.102 432.7L224.069 432.68L224.037 432.661L222.131 436.224ZM305.359 402.11L309.053 403.449L309.055 403.442L305.359 402.11ZM492.619 284.189L493.118 280.128L493.085 280.124L493.053 280.12L492.619 284.189ZM419.438 318.435L421.705 321.782L421.713 321.776L421.721 321.77L419.438 318.435ZM162.783 380.708L165.7 383.445L165.709 383.434L165.719 383.424L162.783 380.708ZM179.043 224.01L175.615 222.034L175.612 222.04L179.043 224.01ZM203.892 222.096L207.779 221.765L207.778 221.755L207.777 221.745L203.892 222.096ZM209.126 264.849L212.987 264.287L212.985 264.279L209.126 264.849ZM184.246 377.442L181.573 374.442L181.57 374.446L184.246 377.442ZM143.099 398.755L143.851 402.779L143.857 402.778L143.864 402.777L143.099 398.755ZM246.024 324.365L249.887 324.961L249.887 324.955L246.024 324.365ZM270.032 243.984L266.777 241.708L266.773 241.715L270.032 243.984ZM329.971 190.51L329.22 186.485L328.959 186.537L328.708 186.626L329.971 190.51ZM294.1 247.478L290.242 246.85L290.24 246.862L290.238 246.875L294.1 247.478ZM269.459 342.701L272.745 344.928L272.751 344.918L269.459 342.701ZM522.303 336.604L523.859 340.37L523.863 340.369L522.303 336.604ZM449.698 351.805L448.931 347.783L448.921 347.785L449.698 351.805ZM412.96 377.752L409.787 375.35L409.786 375.353L412.96 377.752ZM403.355 389.487L399.542 388.601L399.539 388.612L399.537 388.623L403.355 389.487ZM416.271 359.116L419.438 361.527L419.45 361.509L419.463 361.49L416.271 359.116ZM489.41 305.909L488.202 302.006L488.192 302.009L488.182 302.013L489.41 305.909ZM64.7541 367.739L62.8934 364.128L62.8862 364.132L64.7541 367.739ZM113.881 361.383L114.385 365.448L114.386 365.448L113.881 361.383ZM114.333 395.667L112.549 392.013L112.538 392.019L114.333 395.667ZM66.047 400.82L66.0929 404.917L66.1006 404.917L66.1082 404.917L66.047 400.82ZM120.939 63.435L121.205 59.3493L121.203 59.3491L120.939 63.435ZM154.14 80.3116L156.224 83.7874L156.234 83.7805L154.14 80.3116ZM85.859 85.2948L85.0926 89.3073L85.859 85.2948ZM64.4746 83.0804L61.8933 79.9938L64.4746 83.0804ZM37.6542 411.977L39.9648 415.291L37.6542 411.977ZM142.706 345.106L139.995 342.144L142.706 345.106ZM404.682 391.11L407.917 393.419L404.682 391.11ZM570.078 298.371L573.026 301.072L570.078 298.371ZM196.66 391.141L199.09 394.36L196.66 391.141ZM210.395 179.14L214.199 180.068L210.395 179.14ZM331.421 191.025L328.992 187.806L331.421 191.025ZM187.87 47.4678L189.986 50.9215L187.87 47.4678ZM220.79 435.588L219.454 439.429L220.79 435.588ZM801.384 68.3045L798.383 65.6693L801.384 68.3045ZM331.147 190.226L332.285 194.151L331.147 190.226ZM220.315 436.345L222.896 433.288L220.315 436.345ZM197.177 392.116L197.758 396.171L197.177 392.116ZM149.695 102.498L151.488 106.147L149.695 102.498ZM149.706 103.655L149.052 107.69L149.706 103.655ZM726.38 165.497L730.187 166.414L726.38 165.497ZM493.648 284.222L493.547 280.126L493.648 284.222ZM233.574 259.953L237.091 261.747L233.574 259.953ZM209.798 178.797L207.049 175.875L209.798 178.797ZM441.517 -53.0987L440.666 -57.1016L441.517 -53.0987ZM403.24 390.42L407.131 390.736L403.24 390.42ZM441.534 -54.0164L440.596 -50.0451L441.534 -54.0164ZM802.29 68.703L798.394 68.8772L802.29 68.703ZM142.698 398.767L142.29 402.839L142.698 398.767ZM339.611 314.846L343.484 315.363L339.611 314.846ZM232.417 259.712L228.599 260.529L232.417 259.712ZM36.5883 411.773L32.6879 411.801L36.5883 411.773ZM307.94 62.7056L310.929 65.3557L307.94 62.7056ZM372.823 23.1556C388.764 16.1762 413.042 11.5284 447.391 23.3632L449.785 15.579C413.609 3.11485 387.406 7.87628 369.788 15.5899L372.823 23.1556ZM447.385 23.3612C459.199 27.4523 470.053 32.7466 478.619 42.4783L484.334 36.9338C474.433 25.6868 462.091 19.8406 449.791 15.5809L447.385 23.3612ZM478.611 42.4685C489.303 54.6926 490.13 67.6536 485.625 78.3407C481.012 89.2839 470.642 98.1784 458.422 101.279L460.293 109.244C474.669 105.597 487.096 95.1316 492.761 81.6928C498.534 67.9979 497.123 51.5549 484.343 36.9436L478.611 42.4685ZM458.415 101.28C446.537 104.315 431.935 104.216 415.654 102.83C399.193 101.429 382.137 98.8505 364.288 97.0519C346.747 95.2843 329.068 94.359 312.801 96.5109C296.509 98.6661 281.383 103.94 269.176 114.781L274.232 121.05C284.927 111.553 298.452 106.673 313.818 104.641C329.209 102.604 346.195 103.456 363.585 105.208C380.667 106.929 398.808 109.614 415.067 110.997C431.507 112.396 447.15 112.602 460.299 109.243L458.415 101.28ZM269.171 114.785C251.754 130.303 239.19 154.422 232.185 180.604C225.172 206.816 223.614 235.518 228.599 260.529L236.234 258.894C231.542 235.345 232.974 207.987 239.696 182.861C246.427 157.704 258.345 135.205 274.237 121.046L269.171 114.785ZM237.091 261.747C237.273 261.349 237.548 260.752 237.745 260.207L230.449 257.261C230.393 257.417 230.276 257.683 230.058 258.159L237.091 261.747ZM237.784 260.093C244.473 239.79 260.075 216.261 281.108 196.022C302.115 175.807 328.225 159.179 355.648 152.325L353.802 144.353C324.79 151.605 297.541 169.065 275.82 189.966C254.125 210.843 237.631 235.458 230.41 257.375L237.784 260.093ZM355.648 152.325C381.227 145.93 405.825 147.527 425.853 152.707C446.016 157.923 461.09 166.645 467.899 174.01L473.481 168.319C465.256 159.422 448.608 150.166 427.678 144.752C406.612 139.303 380.745 137.618 353.802 144.353L355.648 152.325ZM467.892 174.003C477.01 183.913 477.906 193.122 475.521 200.688C473.018 208.629 466.674 215.41 460.313 219.363L464.313 226.421C471.788 221.776 479.679 213.614 482.929 203.302C486.298 192.613 484.465 180.258 473.488 168.326L467.892 174.003ZM460.292 219.376C453.514 223.649 445.09 225.08 435.173 225.854C425.533 226.606 414.31 226.728 403.401 228.835L404.853 236.894C415.216 234.892 425.468 234.831 435.794 234.025C445.844 233.241 455.877 231.74 464.335 226.407L460.292 219.376ZM403.376 228.84C379.529 233.619 361.657 247.188 350.089 268.442L356.867 272.539C367.305 253.361 383.244 241.224 404.879 236.889L403.376 228.84ZM350.096 268.428C342.099 282.987 336.771 305.402 335.739 314.33L343.484 315.363C344.428 307.195 349.522 285.911 356.859 272.553L350.096 268.428ZM344.259 318.876C350.047 313.418 354.706 308.264 360.322 303.549L355.429 297.138C349.655 301.986 344.182 307.906 339.029 312.765L344.259 318.876ZM360.319 303.551C385.501 282.447 414.299 273.982 445.287 271.663C476.389 269.336 509.378 273.21 542.972 276.584C609.69 283.285 678.726 288.093 733.442 234.098L728.084 228.111C676.232 279.28 610.778 275.167 543.671 268.427C510.352 265.081 476.595 261.103 444.69 263.49C412.672 265.886 382.203 274.7 355.432 297.135L360.319 303.551ZM733.443 234.097C772.242 195.799 804.433 133.039 806.262 72.2065L798.465 71.9024C796.712 130.202 765.664 191.016 728.083 228.112L733.443 234.097ZM806.264 72.1492C806.285 70.836 806.236 69.6261 806.186 68.5288L798.394 68.8772C798.443 69.9545 798.48 70.9349 798.463 71.9597L806.264 72.1492ZM798.383 65.6693C797.694 66.5367 797.117 67.4573 796.675 68.1561L803.183 72.7129C803.666 71.9491 804.013 71.407 804.384 70.9397L798.383 65.6693ZM796.597 68.2855C792.955 74.5515 788.245 79.7167 782.61 84.1346L787.299 90.7105C793.614 85.7593 799.038 79.8502 803.262 72.5835L796.597 68.2855ZM782.621 84.1259C771.88 92.4838 757.653 97.7428 738.77 95.7725C719.778 93.7908 695.878 84.4698 666.032 63.1978L661.676 69.9699C692.181 91.7114 717.324 101.764 738.041 103.926C758.867 106.099 775.014 100.271 787.288 90.7192L782.621 84.1259ZM666.029 63.1959C646.868 49.5632 634.379 37.5577 621.167 25.5786C607.929 13.5759 594.106 1.74028 572.559 -11.1492L568.727 -4.03487C589.648 8.4806 603.035 19.9339 616.088 31.7683C629.167 43.6265 642.05 56.0064 661.679 69.9718L666.029 63.1959ZM572.559 -11.1492C478.179 -67.6111 388.809 -29.6424 360.007 6.94094L366.031 12.1833C392.394 -21.3028 477.597 -58.5526 568.726 -4.0349L572.559 -11.1492ZM751.226 148.747C748.191 154.576 744.945 160.219 741.491 165.722L748.012 170.258C751.577 164.577 754.934 158.743 758.076 152.709L751.226 148.747ZM730.187 166.414C731.97 158.055 739.679 150.375 752.866 151.241L753.309 143.063C736.623 141.967 725.258 151.998 722.574 164.58L730.187 166.414ZM247.702 -0.382695C263.263 -19.934 287.31 -34.5155 315.076 -43.7333C342.805 -52.9391 373.957 -56.6961 403.383 -54.8358L403.808 -63.0148C373.483 -64.9319 341.373 -61.071 312.687 -51.5474C284.036 -42.0357 258.513 -26.7762 241.705 -5.65847L247.702 -0.382695ZM403.408 -54.8343C407.515 -54.6028 415.566 -53.7421 423.318 -52.7519C431.166 -51.7491 438.246 -50.6701 440.596 -50.0451L442.472 -57.9876C439.533 -58.7691 431.892 -59.9052 424.217 -60.8856C416.445 -61.8785 408.172 -62.769 403.783 -63.0163L403.408 -54.8343ZM440.666 -57.1016C431.195 -54.9314 401.225 -50.7605 369.689 -31.7052L373.608 -24.5972C403.852 -42.8721 432.38 -46.8067 442.369 -49.0958L440.666 -57.1016ZM369.691 -31.7064C342.83 -15.4987 324.111 8.05724 315.065 39.9175L322.542 42.2992C330.986 12.5592 348.358 -9.36165 373.606 -24.5959L369.691 -31.7064ZM315.064 39.9219C312.659 48.4271 308.988 55.0236 304.951 60.0555L310.929 65.3557C315.639 59.485 319.829 51.8963 322.544 42.2948L315.064 39.9219ZM296.809 48.3281C296.526 42.6338 293.818 37.3538 288.56 34.558C283.433 31.8319 276.631 31.8616 268.723 34.8319L271.386 42.5489C278.132 40.0151 282.539 40.5197 285.068 41.8642C287.465 43.1389 288.86 45.5252 289.018 48.7097L296.809 48.3281ZM268.72 34.8329C259.778 38.1994 252.298 43.9441 245.347 50.4645C241.871 53.7257 238.48 57.2269 235.099 60.7574C231.698 64.309 228.313 67.8826 224.755 71.4C210.63 85.3626 194.21 97.9969 167.798 100.324L168.494 108.49C197.389 105.943 215.385 91.9454 230.118 77.3814C233.775 73.7672 237.257 70.0906 240.615 66.5842C243.994 63.0565 247.255 59.6916 250.562 56.5889C257.179 50.3816 263.793 45.4078 271.389 42.5479L268.72 34.8329ZM167.819 100.323C164.24 100.618 154.596 100.4 150.359 99.6194L149.052 107.69C154.086 108.617 164.41 108.827 168.473 108.491L167.819 100.323ZM151.488 106.147C156.906 103.233 172.422 97.6315 192.841 77.4249L187.474 71.4465C168.061 90.6578 153.818 95.6666 147.901 98.849L151.488 106.147ZM192.824 77.4418C203.906 66.6074 211.872 54.281 219.897 41.2247C227.961 28.105 236.105 14.2154 247.704 -0.385592L241.703 -5.65558C229.731 9.4139 221.302 23.7927 213.336 36.7536C205.33 49.778 197.808 61.3446 187.492 71.4297L192.824 77.4418ZM358.375 395.626C350.672 415.928 339.888 445.005 311.582 457.952L314.731 465.467C346.364 450.998 358.094 418.541 365.625 398.696L358.375 395.626ZM311.592 457.947C293.676 466.08 274.607 464.136 254.598 454.836L251.474 462.326C272.831 472.252 294.247 474.765 314.721 465.472L311.592 457.947ZM254.594 454.834C242.884 449.407 231.674 441.476 222.896 433.288L217.734 439.402C227.054 448.095 238.944 456.518 251.478 462.328L254.594 454.834ZM219.454 439.429C219.794 439.562 220.082 439.702 220.225 439.787L224.037 432.661C223.418 432.293 222.719 431.978 222.126 431.747L219.454 439.429ZM220.16 439.748C234.012 448.346 252.023 452.091 268.782 447.194C285.728 442.243 300.908 428.593 309.053 403.449L301.665 400.772C294.266 423.617 280.9 435.136 266.652 439.299C252.217 443.518 236.386 440.325 224.102 432.7L220.16 439.748ZM309.055 403.442C329.14 341.072 399.463 276.796 492.184 288.257L493.053 280.12C396.289 268.159 322.79 335.173 301.663 400.778L309.055 403.442ZM492.12 288.249C492.779 288.342 493.418 288.325 493.748 288.318L493.547 280.126C493.371 280.13 493.263 280.131 493.177 280.129C493.093 280.127 493.083 280.123 493.118 280.128L492.12 288.249ZM492.648 283.5C464.276 287.617 439.255 298.479 417.156 315.099L421.721 321.77C442.827 305.897 466.668 295.548 493.758 291.617L492.648 283.5ZM417.171 315.088C386.348 338.027 370.258 364.022 358.371 395.637L365.629 398.684C377.085 368.215 392.351 343.628 421.705 321.782L417.171 315.088ZM165.719 383.424C172.916 374.829 174.66 364.955 174.189 354.322C173.73 343.986 171.095 332.1 169.094 319.662C165.04 294.469 162.889 263.87 182.473 225.98L175.612 222.04C154.871 262.168 157.199 294.86 161.402 320.983C163.529 334.203 165.966 344.98 166.396 354.658C166.812 364.039 165.26 371.53 159.848 377.993L165.719 383.424ZM182.47 225.986C192.702 206.271 207.375 187.087 212.548 181.719L207.049 175.875C201.284 181.857 186.17 201.698 175.615 222.034L182.47 225.986ZM206.59 178.212C206.551 178.395 206.432 178.782 206.137 179.557C205.836 180.347 205.515 181.127 205.057 182.303C204.192 184.521 203.127 187.425 202.169 191.082C200.245 198.423 198.8 208.605 200.008 222.448L207.777 221.745C206.657 208.911 208.009 199.716 209.691 193.298C210.536 190.076 211.476 187.504 212.279 185.443C212.655 184.479 213.084 183.418 213.381 182.639C213.684 181.845 214.011 180.936 214.199 180.068L206.59 178.212ZM200.006 222.427C201.191 236.788 203.282 251.152 205.266 265.419L212.985 264.279C210.988 249.914 208.939 235.829 207.779 221.765L200.006 222.427ZM205.265 265.411C210.38 302.695 214.965 341.652 181.573 374.442L186.918 380.442C223.541 344.479 218.064 301.298 212.987 264.287L205.265 265.411ZM181.57 374.446C171.883 383.982 164.485 388.479 158.494 390.874C152.35 393.329 147.729 393.631 142.334 394.733L143.864 402.777C148.348 401.861 154.329 401.322 161.304 398.533C168.431 395.684 176.667 390.534 186.922 380.439L181.57 374.446ZM142.347 394.73C142.678 394.664 142.95 394.677 143.106 394.695L142.29 402.839C142.716 402.888 143.249 402.9 143.851 402.779L142.347 394.73ZM143.972 401.451C152.916 397.199 159.678 390.534 165.7 383.445L159.866 377.971C154.119 384.737 148.215 390.421 140.722 393.984L143.972 401.451ZM199.09 394.36C225.723 372.245 245.579 356.939 249.887 324.961L242.162 323.769C238.366 351.954 221.459 365.312 194.23 387.922L199.09 394.36ZM249.887 324.955C253.257 299.666 253.791 277.305 273.292 246.253L266.773 241.715C246.133 274.58 245.475 298.904 242.161 323.775L249.887 324.955ZM273.287 246.261C290.856 218.423 305.377 203.541 331.235 194.393L328.708 186.626C300.611 196.567 284.868 213.042 266.777 241.708L273.287 246.261ZM330.723 194.534C331.088 194.461 331.645 194.352 332.285 194.151L330.009 186.3C329.799 186.366 329.606 186.408 329.22 186.485L330.723 194.534ZM328.992 187.806C317.512 197.338 308.76 204.808 302.464 213.529C296.037 222.431 292.293 232.433 290.242 246.85L297.957 248.105C299.865 234.701 303.225 226.074 308.69 218.503C314.287 210.751 322.216 203.906 333.851 194.244L328.992 187.806ZM290.238 246.875C285.695 280.219 285.63 308.442 266.167 340.484L272.751 344.918C293.361 310.988 293.561 280.372 297.961 248.08L290.238 246.875ZM266.173 340.474C247.815 370.51 225.27 383.695 196.597 388.062L197.758 396.171C228.533 391.484 253.109 377.055 272.745 344.928L266.173 340.474ZM567.13 295.671C559.795 304.519 544.792 321.962 520.743 332.84L523.863 340.369C549.568 328.741 565.51 310.138 573.026 301.072L567.13 295.671ZM520.747 332.839C509.438 337.941 498.209 340.34 486.401 342.124C474.743 343.884 462.108 345.085 448.931 347.783L450.465 355.826C463.426 353.172 475.327 352.081 487.553 350.234C499.63 348.41 511.635 345.885 523.859 340.37L520.747 332.839ZM448.921 347.785C431.682 351.363 419.223 361.551 409.787 375.35L416.133 380.154C424.673 367.665 435.554 358.92 450.474 355.824L448.921 347.785ZM409.786 375.353C408.235 377.625 406.824 379.949 405.476 382.201C404.111 384.481 402.825 386.662 401.447 388.802L407.917 393.419C409.387 391.136 410.764 388.801 412.087 386.589C413.429 384.349 414.732 382.206 416.134 380.151L409.786 375.353ZM407.131 390.736C407.146 390.504 407.164 390.392 407.172 390.352L399.537 388.623C399.428 389.167 399.378 389.685 399.349 390.105L407.131 390.736ZM407.168 390.373C409.367 379.673 413.564 370.066 419.438 361.527L413.105 356.704C406.628 366.122 401.975 376.76 399.542 388.601L407.168 390.373ZM419.463 361.49C436.707 335.825 461.255 319.867 490.637 309.804L488.182 302.013C457.689 312.456 431.541 329.266 413.08 356.741L419.463 361.49ZM490.617 309.811C515.288 301.521 541.379 298.091 568.597 299.094L568.827 290.906C540.803 289.872 513.809 293.401 488.202 302.006L490.617 309.811ZM40.4886 411.744C40.4587 409.217 41.8368 401.95 45.9979 393.71C50.0928 385.602 56.6702 376.99 66.622 371.347L62.8862 364.132C51.262 370.723 43.7158 380.702 39.1015 389.839C34.5534 398.845 32.6366 407.477 32.6879 411.801L40.4886 411.744ZM66.6148 371.351C72.5943 367.977 79.4327 367.021 87.5369 366.703C95.3995 366.394 104.78 366.706 114.385 365.448L113.377 357.317C104.199 358.52 95.8101 358.177 87.2021 358.515C78.8357 358.843 70.5022 359.835 62.8934 364.128L66.6148 371.351ZM114.386 365.448C129.869 363.416 139.264 354.279 145.417 348.067L139.995 342.144C134.002 348.194 126.18 355.637 113.376 357.317L114.386 365.448ZM141.004 345.354C138.792 366.672 130.086 382.643 112.549 392.013L116.117 399.32C136.454 388.455 146.326 369.739 148.759 346.287L141.004 345.354ZM112.538 392.019C106.208 395.429 99.6609 396.605 92.0977 396.909C88.2955 397.062 84.2971 396.993 79.9434 396.895C75.6196 396.797 70.9594 396.671 65.9858 396.723L66.1082 404.917C70.9302 404.866 75.4476 404.988 79.819 405.087C84.1607 405.185 88.3753 405.26 92.4398 405.097C100.61 404.768 108.41 403.471 116.128 399.314L112.538 392.019ZM66.0011 396.723C56.2831 396.786 49.2208 399.251 44.1807 402.075C39.398 404.755 36.0142 408.149 35.3436 408.663L39.9648 415.291C41.9056 413.804 43.6537 411.679 47.8823 409.309C51.8536 407.084 57.682 404.972 66.0929 404.917L66.0011 396.723ZM67.0559 86.167C81.6325 72.7389 98.2899 65.7959 120.675 67.5209L121.203 59.3491C96.6165 57.4545 77.9381 65.2133 61.8933 79.9938L67.0559 86.167ZM120.673 67.5207C141.117 69.1076 156.359 66.4061 167.606 62.5263C178.854 58.6457 185.965 53.6259 189.986 50.9215L185.753 44.0141C181.766 46.6962 175.369 51.2092 165.134 54.7402C154.896 58.272 140.678 60.8608 121.205 59.3493L120.673 67.5207ZM185.704 45.3129C175.377 57.2578 164.859 68.3571 152.046 76.8428L156.234 83.7805C169.969 74.6837 181.062 62.9049 191.493 50.8397L185.704 45.3129ZM152.057 76.8359C127.335 93.095 102.329 84.6793 86.6254 81.2822L85.0926 89.3073C99.7373 92.4752 128.321 102.139 156.224 83.7874L152.057 76.8359ZM86.6254 81.2822C78.6004 79.5463 71.2211 80.0713 63.9392 82.1919L66.0625 90.0886C72.2809 88.2778 78.4031 87.8602 85.0926 89.3073L86.6254 81.2822ZM63.8947 82.2051C63.962 82.1846 64.7442 81.9606 65.715 82.5119C66.8048 83.1308 67.2162 84.1961 67.2973 84.8846C67.3691 85.495 67.2202 85.8739 67.1757 85.975C67.1151 86.1127 67.0616 86.1618 67.0559 86.167L61.8933 79.9938C60.4879 81.2885 59.2718 83.4403 59.5548 85.8451C59.7139 87.1966 60.4219 88.7992 62.0343 89.7148C63.5276 90.5628 65.0583 90.395 66.1071 90.0754L63.8947 82.2051ZM35.3436 408.663C34.9603 408.957 34.6999 409.255 34.5546 409.435C34.4903 409.514 34.4337 409.589 34.4293 409.595C34.4092 409.622 34.4459 409.572 34.4968 409.511C34.6031 409.384 34.9226 409.015 35.4574 408.709C36.0412 408.376 36.6441 408.25 37.1709 408.251L37.2001 416.445C37.8504 416.446 38.5488 416.292 39.2125 415.913C39.8273 415.563 40.2112 415.129 40.3789 414.928C40.4605 414.83 40.5272 414.742 40.5378 414.728C40.5642 414.693 40.5392 414.726 40.5088 414.764C40.4314 414.859 40.2486 415.074 39.9648 415.291L35.3436 408.663ZM145.417 348.067C144.688 348.803 143.776 348.905 143.071 348.696C142.677 348.579 142.131 348.304 141.671 347.714C141.165 347.065 140.937 346.251 140.992 345.49L148.771 346.15C148.987 343.133 146.892 341.327 145.151 340.811C143.53 340.331 141.491 340.634 139.995 342.144L145.417 348.067ZM401.447 388.802C401.323 388.995 401.239 389.151 401.184 389.257L408.021 393.241C408.028 393.228 408.014 393.255 407.992 393.295C407.965 393.342 407.939 393.384 407.917 393.419L401.447 388.802ZM568.685 299.096C567.713 299.084 567.04 298.399 566.795 297.785C566.56 297.195 566.574 296.342 567.13 295.671L573.026 301.072C576.037 297.44 574.007 290.973 568.739 290.903L568.685 299.096ZM199.702 389.417C201.003 391.301 200.215 393.426 199.09 394.36L194.23 387.922C192.708 389.186 191.796 391.885 193.395 394.202L199.702 389.417ZM207.692 181.844C206.862 181.066 206.265 179.719 206.59 178.212L214.199 180.068C214.58 178.303 213.89 176.703 212.872 175.747L207.692 181.844ZM328.301 192.642C327.744 191.788 327.627 190.855 327.728 190.104C327.83 189.351 328.196 188.467 328.992 187.806L333.851 194.244C335.681 192.725 335.998 189.984 334.73 188.038L328.301 192.642ZM189.986 50.9215C188.446 51.9577 186.896 51.3752 186.14 50.7625C185.708 50.4122 185.106 49.736 184.875 48.6585C184.605 47.3967 184.976 46.1699 185.682 45.3394L191.516 50.8132C192.384 49.7905 192.798 48.3568 192.486 46.9015C192.213 45.6305 191.487 44.774 190.883 44.2849C189.784 43.3946 187.707 42.7 185.753 44.0141L189.986 50.9215ZM223.491 438.159C223.223 438.569 222.822 438.989 222.249 439.287C221.655 439.596 220.622 439.884 219.454 439.429L222.126 431.747C220.764 431.218 219.529 431.538 218.751 431.943C217.995 432.337 217.43 432.915 217.046 433.503L223.491 438.159ZM803.602 64.4755C801.65 63.4942 799.546 64.2053 798.383 65.6693L804.384 70.9397C803.491 72.0635 801.834 72.6512 800.265 71.8622L803.602 64.4755ZM332.285 194.151C331.282 194.466 329.447 194.401 328.301 192.642L334.73 188.038C333.425 186.037 331.279 185.901 330.009 186.3L332.285 194.151ZM222.896 433.288C224.444 434.732 224.321 436.885 223.491 438.159L217.046 433.503C216 435.107 215.899 437.69 217.734 439.402L222.896 433.288ZM193.395 394.202C194.214 395.389 195.797 396.469 197.758 396.171L196.597 388.062C198.074 387.837 199.171 388.647 199.702 389.417L193.395 394.202ZM153.193 102.697C153.289 103.349 153.195 103.983 152.957 104.537C152.716 105.097 152.254 105.734 151.488 106.147L147.901 98.849C145.888 99.9319 145.23 102.173 145.483 103.899L153.193 102.697ZM150.359 99.6194C151.352 99.8024 152.899 100.686 153.193 102.697L145.483 103.899C145.834 106.295 147.694 107.439 149.052 107.69L150.359 99.6194ZM741.491 165.722C739.125 169.492 735.269 171.013 732.645 170.751C731.381 170.625 730.729 170.139 730.435 169.731C730.179 169.375 729.749 168.464 730.187 166.414L722.574 164.58C721.771 168.343 722.238 171.893 724.22 174.647C726.164 177.348 729.09 178.622 731.95 178.908C737.572 179.469 744.142 176.423 748.012 170.258L741.491 165.722ZM493.748 288.318C493.738 288.319 493.59 288.321 493.354 288.243C493.111 288.162 492.774 287.995 492.441 287.67C491.693 286.941 491.461 285.93 491.574 285.126C491.678 284.395 492.025 283.957 492.257 283.752C492.514 283.525 492.719 283.491 492.743 283.488L493.664 291.63C496.276 291.319 498.856 289.45 499.291 286.374C499.518 284.769 499.064 282.979 497.732 281.68C496.467 280.447 494.877 280.098 493.547 280.126L493.748 288.318ZM752.858 151.24C752.512 151.217 752.132 151.081 751.801 150.821C751.486 150.573 751.296 150.277 751.193 150.026C751 149.557 751.042 149.1 751.226 148.747L758.076 152.709C759.04 150.856 759.115 148.667 758.352 146.812C757.553 144.87 755.771 143.229 753.316 143.063L752.858 151.24ZM237.203 261.467C237.206 261.461 237.211 261.446 237.211 261.446C237.212 261.441 237.212 261.442 237.211 261.445C237.209 261.452 237.199 261.479 237.186 261.516C237.171 261.555 237.155 261.598 237.136 261.642C237.118 261.686 237.103 261.721 237.091 261.747L230.058 258.159C230.005 258.274 229.955 258.395 229.906 258.527C229.885 258.584 229.869 258.632 229.859 258.662C229.854 258.676 229.849 258.689 229.847 258.697C229.843 258.71 229.843 258.708 229.841 258.716L237.203 261.467ZM212.548 181.719C211.085 183.237 208.942 183.017 207.692 181.844L212.872 175.747C211.337 174.308 208.781 174.077 207.049 175.875L212.548 181.719ZM437.984 -53.1283C437.784 -54.7955 438.762 -56.6653 440.666 -57.1016L442.369 -49.0958C444.731 -49.637 445.984 -51.9549 445.724 -54.1112L437.984 -53.1283ZM401.184 389.257C401.573 388.514 402.365 387.745 403.521 387.534C404.544 387.347 405.347 387.69 405.787 387.977C406.594 388.502 407.216 389.493 407.131 390.736L399.349 390.105C399.204 392.232 400.304 394.024 401.705 394.936C402.443 395.416 403.572 395.849 404.899 395.607C406.357 395.341 407.429 394.371 408.021 393.241L401.184 389.257ZM440.596 -50.0451C439.025 -50.463 438.138 -51.8486 437.984 -53.1283L445.724 -54.1112C445.524 -55.7759 444.401 -57.4744 442.472 -57.9876L440.596 -50.0451ZM806.186 68.5288C806.096 66.5645 804.902 65.1293 803.602 64.4755L800.265 71.8622C799.365 71.4096 798.463 70.3771 798.394 68.8772L806.186 68.5288ZM143.106 394.695C144.064 394.806 144.72 395.292 145.073 395.646C145.433 396.007 145.68 396.422 145.834 396.851C145.973 397.236 146.161 397.988 145.943 398.93C145.674 400.085 144.847 401.169 143.596 401.606L141.099 393.829C139.628 394.342 138.678 395.589 138.363 396.947C138.097 398.091 138.314 399.086 138.538 399.708C138.905 400.729 140.025 402.575 142.29 402.839L143.106 394.695ZM335.739 314.33C335.492 316.463 336.395 318.87 338.678 319.902C340.714 320.822 342.772 320.145 344.106 319.013L339.182 312.628C339.535 312.329 340.501 311.823 341.727 312.378C342.348 312.658 342.876 313.165 343.194 313.814C343.504 314.448 343.523 315.021 343.484 315.363L335.739 314.33ZM228.599 260.529C229.005 262.569 230.496 263.713 231.627 264.146C232.258 264.388 233.251 264.602 234.372 264.269C235.679 263.881 236.739 262.858 237.203 261.467L229.841 258.716C230.219 257.584 231.111 256.71 232.21 256.384C233.125 256.112 233.872 256.3 234.262 256.449C234.911 256.698 235.935 257.393 236.234 258.894L228.599 260.529ZM32.6879 411.801C32.7092 413.597 33.7179 414.75 34.1974 415.202C34.7112 415.686 35.7532 416.442 37.2001 416.445L37.1709 408.251C37.8318 408.252 38.3337 408.444 38.6233 408.586C38.9333 408.738 39.1857 408.925 39.3892 409.117C39.5902 409.306 39.8218 409.575 40.024 409.943C40.217 410.295 40.4788 410.915 40.4886 411.744L32.6879 411.801ZM304.951 60.0555C302.591 62.9972 301.109 63.8816 300.484 64.0636C300.283 64.1222 300.315 64.0684 300.435 64.1149C300.516 64.1464 300.4 64.1359 300.131 63.7886C299.515 62.9912 298.77 61.3008 298.128 58.4223C297.51 55.6499 297.074 52.1912 296.804 48.2475L289.023 48.7903C289.309 52.9696 289.785 56.8978 290.533 60.2485C291.256 63.4932 292.331 66.6622 294.086 68.9328C295.004 70.1196 296.212 71.1952 297.768 71.7991C299.363 72.418 301.021 72.4226 302.609 71.96C305.561 71.0995 308.308 68.6223 310.929 65.3557L304.951 60.0555ZM360.025 6.91809C357.563 9.99967 355.752 12.8505 354.807 15.3859C353.94 17.7115 353.314 21.2421 355.74 23.9207C357.902 26.3087 361.133 26.3653 363.479 26.0612C366.12 25.7189 369.284 24.7054 372.823 23.1556L369.788 15.5899C366.564 17.0013 364.133 17.7148 362.481 17.929C361.657 18.0358 361.183 17.997 360.973 17.9546C360.77 17.9136 361.042 17.9193 361.379 18.2918C362.246 19.2501 361.498 19.9539 362.073 18.4102C362.57 17.0762 363.768 15.0152 366.013 12.2062L360.025 6.91809Z" fill="url(#paint0_linear_432_1229)" mask="url(#path-1-outside-1_432_1229)"/>
</g>
<defs>
<filter id="filter0_d_432_1229" x="0.6875" y="-91.4922" width="837.578" height="598.753" filterUnits="userSpaceOnUse" color-interpolation-filters="sRGB">
<feFlood flood-opacity="0" result="BackgroundImageFix"/>
<feColorMatrix in="SourceAlpha" type="matrix" values="0 0 0 0 0 0 0 0 0 0 0 0 0 0 0 0 0 0 127 0" result="hardAlpha"/>
<feOffset dy="4"/>
<feGaussianBlur stdDeviation="16"/>
<feComposite in2="hardAlpha" operator="out"/>
<feColorMatrix type="matrix" values="0 0 0 0 0 0 0 0 0 0 0 0 0 0 0 0 0 0 1 0"/>
<feBlend mode="normal" in2="BackgroundImageFix" result="effect1_dropShadow_432_1229"/>
<feBlend mode="normal" in="SourceGraphic" in2="effect1_dropShadow_432_1229" result="shape"/>
</filter>
<linearGradient id="paint0_linear_432_1229" x1="44.1586" y1="410.079" x2="553.066" y2="263.7" gradientUnits="userSpaceOnUse">
<stop offset="0.025" stop-color="#FFC363"/>
<stop offset="0.5" stop-color="#FFE8C2"/>
<stop offset="0.995" stop-color="#955E07"/>
</linearGradient>
</defs>
</svg>
