<svg width="213" height="264" viewBox="0 0 213 264" fill="none" xmlns="http://www.w3.org/2000/svg">
<g filter="url(#filter0_d_789_1711)">
<path d="M90.9165 51.9745C90.1037 52.1762 89.2991 52.3966 88.4924 52.6323L88.2943 63.8032C89.6732 64.43 91.0754 65.0042 92.498 65.5245L92.1533 85.5861C85.054 88.9953 79.8635 94.916 79.7337 102.21C79.6796 105.238 80.55 108.117 82.0409 110.693C65.9967 120.548 54.9988 139.435 54.6109 161.343C54.3921 173.672 57.546 185.149 63.1156 194.726L63.6415 195.633L64.6072 196.034C91.6251 207.25 119.477 209.81 147.387 197.403L148.255 197.026L148.759 196.215C154.626 186.855 158.201 175.448 158.419 163.159C158.808 141.127 148.443 121.742 132.601 111.379C134.141 108.939 135.145 106.178 135.199 103.183C135.326 95.9486 130.383 89.9698 123.532 86.3295L123.892 66.2416C125.605 65.7302 127.299 65.1546 128.969 64.5161L129.165 53.3355C115.988 49.6789 103.109 48.9473 90.9167 51.9741L90.9165 51.9745ZM98.6782 67.3629C105.047 68.8216 111.289 68.8869 117.665 67.7301L117.302 88.1492L117.268 90.2006L119.135 91.0389C125.465 93.8701 129.074 98.3609 128.99 103.072C128.946 105.555 127.832 107.926 125.79 110.137L123.123 113.036L126.564 114.959C137.018 120.795 145.312 131.137 149.417 143.866L138.886 146.492L138.703 156.953L138.649 159.651L135.958 159.84C133.573 160.004 131.855 160.727 130.589 161.895C129.322 163.063 128.407 164.76 128.031 167.334L127.655 169.899L125.067 169.86L90.5357 169.251L87.8076 169.204L87.6528 166.484C87.4999 163.846 86.0467 161.566 83.905 160.2L60.8999 165.936C60.8165 164.458 60.7824 162.967 60.8095 161.456C61.1842 140.326 72.4681 122.559 87.963 114.456L91.4544 112.634L88.8641 109.665C86.9008 107.418 85.8862 104.886 85.9315 102.322C86.0167 97.5515 89.8508 93.0572 96.3656 90.4713L98.2913 89.702L98.3226 87.641L98.6782 67.3629ZM93.6287 132.506C92.1743 137.375 88.1809 141.167 83.2289 142.35L83.0232 153.491C87.8863 154.8 91.7855 158.563 93.0805 163.419L122.766 163.931C123.517 161.403 124.81 159.228 126.603 157.575C128.336 155.975 130.489 154.925 132.863 154.377L133.059 143.154C128.279 141.728 124.542 137.851 123.283 133.025L93.6285 132.506L93.6287 132.506Z" fill="url(#paint0_linear_789_1711)"/>
</g>
<defs>
<filter id="filter0_d_789_1711" x="0.901562" y="0.387402" width="211.228" height="262.951" filterUnits="userSpaceOnUse" color-interpolation-filters="sRGB">
<feFlood flood-opacity="0" result="BackgroundImageFix"/>
<feColorMatrix in="SourceAlpha" type="matrix" values="0 0 0 0 0 0 0 0 0 0 0 0 0 0 0 0 0 0 127 0" result="hardAlpha"/>
<feOffset dy="4"/>
<feGaussianBlur stdDeviation="26.85"/>
<feComposite in2="hardAlpha" operator="out"/>
<feColorMatrix type="matrix" values="0 0 0 0 0 0 0 0 0 0 0 0 0 0 0 0 0 0 1 0"/>
<feBlend mode="normal" in2="BackgroundImageFix" result="effect1_dropShadow_789_1711"/>
<feBlend mode="normal" in="SourceGraphic" in2="effect1_dropShadow_789_1711" result="shape"/>
</filter>
<linearGradient id="paint0_linear_789_1711" x1="79.7162" y1="54.7668" x2="117.518" y2="206.381" gradientUnits="userSpaceOnUse">
<stop stop-color="#CA8920"/>
<stop offset="1" stop-color="#F9D7A1"/>
</linearGradient>
</defs>
</svg>
