<svg width="142" height="142" viewBox="0 0 142 142" fill="none" xmlns="http://www.w3.org/2000/svg">
<path d="M32.5211 15.0874C33.1116 15.602 33.5154 16.2974 33.6695 17.0654C33.8236 17.8333 33.7194 18.6307 33.3731 19.3332C33.3101 19.5403 33.2789 19.7558 33.2808 19.9722C33.2808 20.4195 33.3944 21.2715 34.4665 22.3365C34.9848 22.8548 35.3824 23.224 35.8155 23.6287C36.1705 23.9553 36.5468 24.2961 37.0225 24.7647C37.9455 25.6451 38.9182 26.6817 39.7915 27.981C41.602 30.7003 42.6031 34.1012 42.6031 39.0499C42.6031 49.4869 35.6664 56.7999 28.4031 56.7999C21.1398 56.7999 14.2031 49.4869 14.2031 39.0499C14.2031 36.7353 14.8208 33.9734 15.6728 31.4245C16.5248 28.8756 17.7176 26.2273 19.095 24.0973C20.7351 21.3283 23.0426 19.0066 24.8318 17.4446C25.8163 16.5863 26.8398 15.7736 27.899 15.0093L28.2114 14.7963C28.8625 14.3623 29.6386 14.1556 30.4193 14.2082C31.2 14.2609 31.9342 14.57 32.5211 15.0874ZM28.4031 63.8999C32.7446 63.8938 36.9535 62.4031 40.3311 59.6754C40.6672 60.6741 40.9512 61.68 41.1831 62.6929C42.6031 68.8699 42.6031 76.2965 42.6031 81.4724V81.6499C42.6031 101.438 39.9122 112.663 36.9515 119.081C35.4605 122.312 33.8772 124.371 32.5069 125.663C31.9491 126.196 31.3349 126.668 30.6751 127.069C30.3726 127.25 30.057 127.409 29.7308 127.544C29.7308 127.544 28.9285 127.8 28.4031 127.8C27.8777 127.8 27.0754 127.544 27.0754 127.544C26.7493 127.409 26.4336 127.25 26.1311 127.069C25.4714 126.668 24.8572 126.196 24.2993 125.663C22.929 124.364 21.3457 122.312 19.8547 119.081C16.894 112.663 14.2031 101.438 14.2031 81.6499V81.4724C14.2031 76.2894 14.2031 68.8699 15.6231 62.6929C15.8551 61.68 16.1391 60.6741 16.4751 59.6754C19.8528 62.4031 24.0616 63.8938 28.4031 63.8999ZM63.9031 92.2999C58.8266 92.2999 53.9915 91.2349 49.6321 89.3179C49.7268 86.7903 49.7741 84.1633 49.7741 81.4369C54.0746 83.9029 58.9458 85.2002 63.9031 85.1999V70.9999C63.9031 67.2338 65.3992 63.622 68.0622 60.959C70.7252 58.296 74.3371 56.7999 78.1031 56.7999H92.3031C92.3038 51.7569 90.9617 46.8047 88.4147 42.4522C85.8677 38.0997 82.2076 34.5039 77.8107 32.0343C73.4138 29.5648 68.4386 28.3105 63.3964 28.4005C58.3542 28.4905 53.4269 29.9214 49.1209 32.5463C48.6783 30.1639 47.8687 27.8645 46.7211 25.7303C52.1261 22.7408 58.2176 21.2133 64.3936 21.2986C70.5697 21.384 76.6166 23.0792 81.9369 26.2169C87.2572 29.3546 91.6668 33.8262 94.73 39.1897C97.7932 44.5533 99.4039 50.6233 99.4031 56.7999H113.603C117.369 56.7999 120.981 58.296 123.644 60.959C126.307 63.622 127.803 67.2338 127.803 70.9999V106.5C127.803 110.266 126.307 113.878 123.644 116.541C120.981 119.204 117.369 120.7 113.603 120.7H78.1031C74.3371 120.7 70.7252 119.204 68.0622 116.541C65.3992 113.878 63.9031 110.266 63.9031 106.5V92.2999ZM98.6931 63.8999C97.2932 70.7184 93.9234 76.9763 89.0015 81.8983C84.0795 86.8202 77.8216 90.1899 71.0031 91.5899V106.5C71.0031 108.383 71.7512 110.189 73.0827 111.52C74.4142 112.852 76.2201 113.6 78.1031 113.6H113.603C115.486 113.6 117.292 112.852 118.624 111.52C119.955 110.189 120.703 108.383 120.703 106.5V70.9999C120.703 69.1169 119.955 67.311 118.624 65.9795C117.292 64.6479 115.486 63.8999 113.603 63.8999H98.6931ZM91.4085 63.8999H78.1031C76.2201 63.8999 74.4142 64.6479 73.0827 65.9795C71.7512 67.311 71.0031 69.1169 71.0031 70.9999V84.3053C75.914 83.0307 80.3951 80.467 83.9826 76.8794C87.5702 73.2919 90.1339 68.8108 91.4085 63.8999Z" fill="url(#paint0_linear_789_1722)"/>
<defs>
<linearGradient id="paint0_linear_789_1722" x1="71.0031" y1="14.2002" x2="71.0031" y2="127.8" gradientUnits="userSpaceOnUse">
<stop stop-color="#CA8920"/>
<stop offset="1" stop-color="#F9D7A1"/>
</linearGradient>
</defs>
</svg>
