<svg width="128" height="96" viewBox="0 0 128 96" fill="none" xmlns="http://www.w3.org/2000/svg">
<path d="M84 52C84 57.3043 81.8929 62.3914 78.1421 66.1421C74.3914 69.8929 69.3043 72 64 72C58.6957 72 53.6086 69.8929 49.8579 66.1421C46.1071 62.3914 44 57.3043 44 52C44 46.6957 46.1071 41.6086 49.8579 37.8579C53.6086 34.1071 58.6957 32 64 32C69.3043 32 74.3914 34.1071 78.1421 37.8579C81.8929 41.6086 84 46.6957 84 52Z" fill="url(#paint0_linear_789_1925)"/>
<path d="M16 16C11.7565 16 7.68687 17.6857 4.68629 20.6863C1.68571 23.6869 0 27.7565 0 32L0 80C0 84.2435 1.68571 88.3131 4.68629 91.3137C7.68687 94.3143 11.7565 96 16 96H112C116.243 96 120.313 94.3143 123.314 91.3137C126.314 88.3131 128 84.2435 128 80V32C128 27.7565 126.314 23.6869 123.314 20.6863C120.313 17.6857 116.243 16 112 16H102.624C98.3809 15.9991 94.3119 14.3128 91.312 11.312L84.688 4.688C81.6881 1.68721 77.6191 0.000906198 73.376 0H54.624C50.3809 0.000906198 46.3119 1.68721 43.312 4.688L36.688 11.312C33.6881 14.3128 29.6191 15.9991 25.376 16H16ZM20 32C18.9391 32 17.9217 31.5786 17.1716 30.8284C16.4214 30.0783 16 29.0609 16 28C16 26.9391 16.4214 25.9217 17.1716 25.1716C17.9217 24.4214 18.9391 24 20 24C21.0609 24 22.0783 24.4214 22.8284 25.1716C23.5786 25.9217 24 26.9391 24 28C24 29.0609 23.5786 30.0783 22.8284 30.8284C22.0783 31.5786 21.0609 32 20 32ZM92 52C92 59.4261 89.05 66.548 83.799 71.799C78.548 77.05 71.4261 80 64 80C56.5739 80 49.452 77.05 44.201 71.799C38.95 66.548 36 59.4261 36 52C36 44.5739 38.95 37.452 44.201 32.201C49.452 26.95 56.5739 24 64 24C71.4261 24 78.548 26.95 83.799 32.201C89.05 37.452 92 44.5739 92 52Z" fill="url(#paint1_linear_789_1925)"/>
<defs>
<linearGradient id="paint0_linear_789_1925" x1="64" y1="32" x2="64" y2="72" gradientUnits="userSpaceOnUse">
<stop stop-color="#CA8920"/>
<stop offset="1" stop-color="#F9D7A1"/>
</linearGradient>
<linearGradient id="paint1_linear_789_1925" x1="64" y1="0" x2="64" y2="96" gradientUnits="userSpaceOnUse">
<stop stop-color="#CA8920"/>
<stop offset="1" stop-color="#F9D7A1"/>
</linearGradient>
</defs>
</svg>
