<svg width="138" height="119" viewBox="0 0 138 119" fill="none" xmlns="http://www.w3.org/2000/svg">
<path d="M26.2906 0.0112305C19.4878 0.0112305 12.9636 2.33435 8.15334 6.46953C3.34303 10.6047 0.640625 16.2132 0.640625 22.0612V88.7698C0.641012 89.5088 0.895439 90.2311 1.37193 90.8461C1.84843 91.4611 2.52573 91.9413 3.31875 92.2264C4.11176 92.5115 4.9851 92.5888 5.82903 92.4485C6.67296 92.3082 7.44983 91.9566 8.06203 91.4379L19.5361 81.6991L51.496 54.6511C53.8949 52.6222 57.1254 51.4851 60.4906 51.4851C63.8559 51.4851 67.0863 52.6222 69.4852 54.6511L84.3793 67.2564L104.113 50.2926C108.435 46.5657 114.225 44.3679 120.341 44.1333V22.0612C120.341 16.2132 117.638 10.6047 112.828 6.46953C108.018 2.33435 101.493 0.0112305 94.6906 0.0112305H26.2906ZM94.6906 33.0862C94.6906 34.5341 94.3589 35.9677 93.7144 37.3053C93.0699 38.6429 92.1252 39.8583 90.9343 40.8821C89.7434 41.9058 88.3295 42.7179 86.7735 43.272C85.2175 43.8261 83.5498 44.1112 81.8656 44.1112C80.1814 44.1112 78.5137 43.8261 76.9577 43.272C75.4017 42.7179 73.9879 41.9058 72.797 40.8821C71.6061 39.8583 70.6614 38.6429 70.0169 37.3053C69.3724 35.9677 69.0406 34.5341 69.0406 33.0862C69.0406 30.1622 70.3918 27.358 72.797 25.2904C75.2021 23.2228 78.4642 22.0612 81.8656 22.0612C85.267 22.0612 88.5291 23.2228 90.9343 25.2904C93.3394 27.358 94.6906 30.1622 94.6906 33.0862ZM86.1406 33.0862C86.1406 34.0609 85.6902 34.9957 84.8885 35.6848C84.0868 36.374 82.9994 36.7612 81.8656 36.7612C80.7318 36.7612 79.6445 36.374 78.8427 35.6848C78.041 34.9957 77.5906 34.0609 77.5906 33.0862C77.5906 32.1116 78.041 31.1768 78.8427 30.4876C79.6445 29.7984 80.7318 29.4112 81.8656 29.4112C82.9994 29.4112 84.0868 29.7984 84.8885 30.4876C85.6902 31.1768 86.1406 32.1116 86.1406 33.0862ZM62.8248 85.7857L78.3259 72.4528L63.4917 59.8917C62.6918 59.2139 61.6138 58.8339 60.4906 58.8339C59.3675 58.8339 58.2895 59.2139 57.4896 59.8917L21.3744 90.4603C19.4934 92.1949 21.306 94.7748 23.9052 93.9736L26.701 93.1137C32.7288 91.2541 41.7832 89.0712 50.1879 91.9818C52.6332 92.827 54.5655 94.0398 56.0361 95.451C57.3528 91.8127 59.6784 88.4905 62.8248 85.7857ZM68.8696 90.9822L110.166 55.4817C111.652 54.2057 113.415 53.1937 115.355 52.5035C117.296 51.8133 119.375 51.4584 121.475 51.459C123.575 51.4597 125.655 51.816 127.594 52.5074C129.534 53.1989 131.297 54.2121 132.781 55.489C134.265 56.766 135.442 58.2818 136.245 59.9499C137.048 61.618 137.461 63.4057 137.46 65.2109C137.459 67.0162 137.045 68.8036 136.241 70.4712C135.436 72.1387 134.258 73.6538 132.772 74.9298L91.4758 110.423C89.0693 112.491 86.0553 113.959 82.7548 114.671L72.3153 116.913C62.7222 119.324 48.418 118.545 43.9806 115.568C40.1416 112.995 39.9877 109.048 41.2788 106.425C41.5695 105.837 41.0565 105.079 40.3297 105.175C36.0975 105.69 32.6347 107.013 29.2147 108.313C24.2215 110.224 19.3309 112.084 12.3199 111.334C6.24088 110.688 2.85507 107.961 0.991174 105.271C-0.051926 103.771 2.24803 102.389 4.06918 103.168C7.21558 104.521 11.1571 105.631 14.466 105.006C16.612 104.594 19.3993 103.587 22.5286 102.456C30.0954 99.714 39.6543 96.2595 47.0073 98.8026C52.4451 100.684 51.9919 106.013 50.4615 108.578C50.1622 109.063 50.3931 109.754 51.0172 109.879C54.1442 110.425 57.3368 110.643 60.5248 110.526C60.562 110.179 60.6277 109.835 60.7215 109.497L63.9277 98.4865C64.7559 95.6493 66.4638 93.0583 68.8696 90.9895" fill="url(#paint0_linear_789_1922)"/>
<defs>
<linearGradient id="paint0_linear_789_1922" x1="69.0505" y1="0.0112305" x2="69.0505" y2="118.338" gradientUnits="userSpaceOnUse">
<stop stop-color="#CA8920"/>
<stop offset="1" stop-color="#F9D7A1"/>
</linearGradient>
</defs>
</svg>
