<svg width="167" height="170" viewBox="0 0 167 170" fill="none" xmlns="http://www.w3.org/2000/svg">
<path d="M5.48905 48.6406L6.97809 5.99989C18.2871 6.39481 28.976 11.266 36.6935 19.542C44.4109 27.8179 48.5246 38.8206 48.1297 50.1296M5.48905 48.6406C5.09413 59.9496 9.20787 70.9523 16.9253 79.2282C24.6427 87.5041 35.3317 92.3754 46.6407 92.7703M5.48905 48.6406L90.7704 51.6187M46.6407 92.7703C57.9497 93.1652 68.9524 89.0515 77.2283 81.334C85.5043 73.6166 90.3755 62.9277 90.7704 51.6187M46.6407 92.7703L48.1297 50.1296M90.7704 51.6187L92.2595 8.97798C80.9504 8.58306 69.9477 12.6968 61.6718 20.4142C53.3959 28.1317 48.5246 38.8206 48.1297 50.1296" stroke="url(#paint0_linear_789_1826)" stroke-width="10.6667" stroke-linecap="round" stroke-linejoin="round"/>
<path d="M93.2549 49.5249C89.5948 49.5741 86.4357 51.4472 82.9102 53.9855C64.1045 67.5209 41.0039 86.2897 34.5422 99.453C32.1123 96.4424 23.6473 97.1074 23.6473 101.273C23.6473 104.847 29.5374 105.836 32.9033 104.306C32.7231 105.492 32.751 106.598 33.0044 107.622C31.1391 108.137 29.6997 109.261 29.6997 110.98C29.6997 114.743 36.23 115.649 39.4682 113.757C40.9784 114.532 42.524 115.244 44.1006 115.893C43.8604 116.307 43.7344 116.779 43.7344 117.303C43.7344 120.48 48.3832 121.614 51.7822 120.756C51.7395 120.95 51.7178 121.158 51.7178 121.371C51.7178 126.373 63.2625 126.328 63.2625 121.371C63.2625 121.331 63.2549 121.291 63.2537 121.251C67.4358 121.999 71.7835 122.558 76.2264 122.934C77.1062 126.85 85.7939 127.011 87.4324 123.499C91.8363 123.578 96.2692 123.499 100.662 123.259C100.622 123.449 100.588 123.65 100.588 123.857C100.588 127.732 107.518 128.575 110.641 126.455C114.072 131.207 127.047 130.31 127.047 123.891C127.047 123.261 126.928 122.686 126.699 122.165C129.502 123.397 133.312 123.594 136.441 122.755C137.155 127.269 147.949 127.061 147.949 122.268C147.949 119.689 144.831 118.487 141.833 118.602C142.002 118.111 142.098 117.581 142.098 117.013C142.098 116.507 142.022 116.037 141.887 115.594C143.377 115.049 144.811 114.473 146.182 113.877C149.768 112.317 151.335 109.795 151.363 106.613C154.742 108.082 160.537 107.042 160.537 103.529C160.537 99.576 153.194 98.8347 150.219 101.162C144.784 87.0416 121.144 65.9011 103.115 53.259C99.2549 50.5519 96.1017 49.4866 93.2549 49.5249ZM157.425 112.715C154.538 112.726 151.648 113.966 151.648 116.398C151.648 121.4 163.193 121.355 163.193 116.398C163.193 113.919 160.312 112.703 157.425 112.715H157.425ZM27.2461 115.876C24.3592 115.888 21.4688 117.128 21.4688 119.559C21.4688 124.562 33.0135 124.517 33.0135 119.559C33.0135 117.081 30.1324 115.865 27.2458 115.877L27.2461 115.876ZM40.548 123.652C37.4104 123.665 34.2697 124.969 34.057 127.523C31.0072 127.378 27.7582 128.611 27.7582 131.189C27.7582 135.931 38.1305 136.137 39.2112 131.924C42.8396 132.358 47.0481 130.982 47.0481 127.805C47.0481 125.015 43.7977 123.639 40.548 123.652ZM66.6867 126.498C64.7364 126.506 62.7844 127.072 61.7238 128.19C57.7711 127.413 52.6787 128.812 52.6787 132.317C52.6787 137.626 63.7198 138.107 65.9083 133.88C69.0296 134.119 72.4544 132.882 72.4544 130.181C72.4544 127.702 69.5736 126.486 66.687 126.498H66.6867ZM92.8154 126.942C89.9291 126.954 87.039 128.194 87.039 130.625C87.039 135.627 98.5928 135.583 98.5928 130.625C98.5928 128.146 95.7023 126.93 92.8154 126.942ZM154.522 128.6C150.728 128.615 146.933 130.249 146.933 133.445C146.933 140.02 162.103 139.96 162.103 133.445C162.103 130.187 158.316 128.584 154.522 128.6ZM132.495 130.548C129.608 130.56 126.717 131.799 126.717 134.231C126.717 139.233 138.272 139.188 138.272 134.231C138.272 131.752 135.381 130.537 132.494 130.548L132.495 130.548ZM79.3846 134.308C76.0746 134.321 72.7655 135.741 72.7655 138.529C72.7655 141.943 77.4548 143.302 81.2528 142.648C83.2579 147.762 96.1664 147.247 96.1664 141.237C96.1664 137.076 89.9827 135.627 85.5094 136.786C84.467 135.116 81.927 134.297 79.3846 134.308V134.308ZM115.081 136.205C113.262 136.212 111.436 136.708 110.339 137.683C106.941 136.332 101.321 137.398 101.321 140.793C101.321 144.867 108.979 145.588 111.822 143.041C115.22 144.415 120.849 143.349 120.849 139.888C120.849 137.409 117.968 136.193 115.081 136.204L115.081 136.205ZM44.6689 136.906C41.3584 136.919 38.0402 138.339 38.0402 141.126C38.0402 146.863 51.2883 146.811 51.2883 141.126C51.2883 138.284 47.9789 136.892 44.6689 136.905V136.906ZM142.831 140.69C139.581 140.704 136.331 142.097 136.331 144.835C136.331 150.466 149.331 150.415 149.331 144.835C149.331 142.044 146.081 140.677 142.831 140.69V140.69ZM63.5373 141.194C60.2268 141.208 56.918 142.627 56.918 145.416C56.918 151.152 70.1566 151.1 70.1566 145.416C70.1566 142.573 66.8473 141.181 63.5373 141.194Z" fill="url(#paint1_linear_789_1826)"/>
<defs>
<linearGradient id="paint0_linear_789_1826" x1="5.48905" y1="48.6406" x2="90.7704" y2="51.6187" gradientUnits="userSpaceOnUse">
<stop stop-color="#CA8920"/>
<stop offset="1" stop-color="#F9D7A1"/>
</linearGradient>
<linearGradient id="paint1_linear_789_1826" x1="92.3307" y1="49.5239" x2="92.3307" y2="149.699" gradientUnits="userSpaceOnUse">
<stop stop-color="#CA8920"/>
<stop offset="1" stop-color="#F9D7A1"/>
</linearGradient>
</defs>
</svg>
